<?xml version="1.0" encoding="iso-8859-1"?>
<!-- Generator: Adobe Illustrator 22.1.0, SVG Export Plug-In . SVG Version: 6.00 Build 0)  -->
<svg version="1.1" id="Layer_1" xmlns="http://www.w3.org/2000/svg" xmlns:xlink="http://www.w3.org/1999/xlink" x="0px" y="0px"
	 viewBox="0 0 300 300" style="enable-background:new 0 0 300 300;" xml:space="preserve">
<rect x="23.83" y="40.36" style="fill:#111111;" width="252.33" height="252.33"/>
<g>
	<g>
		<g>
			<circle style="fill:#111111;" cx="150" cy="150" r="145"/>
		</g>
		<g>
			<g>
				<path style="fill:#FFE697;" d="M156.4,12.95c0,0,0.87-0.25,2.14-0.32c1.27-0.1,2.92-0.01,4.55,0.25
					c1.62,0.27,3.22,0.72,4.39,1.22c1.17,0.47,1.92,0.99,1.92,0.99s-0.88,0.25-2.14,0.32c-1.27,0.1-2.92,0.01-4.55-0.25
					c-1.62-0.27-3.22-0.72-4.39-1.22C157.15,13.46,156.4,12.95,156.4,12.95z"/>
				<g>
					<g>
						<path style="fill:#FFE697;" d="M143.99,20.87c-0.32-1.83-0.53-3.66-0.68-5.49c-0.09-0.92-0.15-1.83-0.21-2.75
							c-0.07-0.92-0.11-1.83-0.14-2.75l-0.08-2.49l1.85,1.78c0.91,0.88,1.8,1.77,2.67,2.68c0.88,0.9,1.76,1.81,2.6,2.74
							c1.72,1.84,3.38,3.74,4.99,5.7l1.23,1.49l-1.84-0.08c-1.73-0.08-3.47-0.2-5.2-0.33C147.46,21.24,145.73,21.08,143.99,20.87
							c1.73-0.22,3.47-0.37,5.2-0.51c1.73-0.13,3.47-0.25,5.2-0.33l-0.61,1.41c-1.86-1.71-3.67-3.47-5.42-5.29
							c-0.89-0.9-1.75-1.82-2.6-2.75c-0.86-0.92-1.7-1.86-2.53-2.81L145,9.88c-0.03,0.92-0.07,1.83-0.14,2.75
							c-0.06,0.92-0.12,1.83-0.21,2.75C144.52,17.2,144.31,19.03,143.99,20.87z"/>
						<path style="fill:#FFE697;" d="M158.72,7.89c0.32,1.83,0.53,3.66,0.68,5.49c0.09,0.92,0.15,1.83,0.21,2.75
							c0.07,0.92,0.11,1.83,0.14,2.75l0.08,2.49l-1.85-1.78c-0.91-0.88-1.8-1.77-2.67-2.68c-0.88-0.9-1.76-1.81-2.6-2.74
							c-1.72-1.84-3.38-3.74-4.99-5.7l-1.23-1.49l1.84,0.08c1.73,0.08,3.47,0.2,5.2,0.33C155.26,7.51,156.99,7.67,158.72,7.89
							c-1.73,0.22-3.47,0.37-5.2,0.51c-1.73,0.13-3.47,0.25-5.2,0.33l0.61-1.41c1.86,1.71,3.67,3.47,5.42,5.29
							c0.89,0.9,1.75,1.82,2.6,2.75c0.86,0.92,1.7,1.86,2.53,2.81l-1.77,0.71c0.03-0.92,0.07-1.83,0.14-2.75
							c0.06-0.92,0.12-1.83,0.21-2.75C158.2,11.55,158.41,9.72,158.72,7.89z"/>
					</g>
					<path style="fill:#FFE697;" d="M176.25,22.73c0.03-2.07,0.17-4.13,0.31-6.19c0.16-2.05,0.34-4.1,0.55-6.15l0.78,1.05
						c-1.73-0.17-3.45-0.41-5.17-0.61s-3.44-0.45-5.16-0.69l1.28-0.95c-0.26,2.04-0.58,4.07-0.9,6.1c-0.3,2.03-0.68,4.05-1.03,6.08
						l-0.83-1.11l5.12,0.94l-0.89,0.66c0.33-1.51,0.63-3.03,0.99-4.54c0.34-1.51,0.72-3.02,1.13-4.52c-0.03,1.56-0.1,3.11-0.21,4.65
						c-0.09,1.55-0.23,3.09-0.35,4.63l-0.06,0.75l-0.83-0.09l-5.18-0.56l-0.95-0.1l0.12-1.01c0.25-2.04,0.46-4.09,0.75-6.12
						c0.27-2.04,0.55-4.07,0.88-6.1l0.18-1.12l1.1,0.17c1.71,0.27,3.43,0.52,5.14,0.82s3.42,0.56,5.13,0.89l0.94,0.18l-0.16,0.87
						c-0.38,2.02-0.79,4.04-1.23,6.05C177.26,18.72,176.81,20.73,176.25,22.73z"/>
					<path style="fill:#FFE697;" d="M128.02,22.73c-0.56-1.99-1.01-4.01-1.47-6.02c-0.44-2.01-0.85-4.03-1.23-6.05l-0.16-0.87
						l0.94-0.18c1.71-0.33,3.42-0.59,5.13-0.89c1.71-0.3,3.43-0.55,5.14-0.82l1.1-0.17l0.18,1.12c0.33,2.03,0.61,4.07,0.88,6.1
						c0.3,2.03,0.5,4.08,0.75,6.12l0.12,1.01l-0.95,0.1l-5.18,0.56l-0.83,0.09l-0.06-0.75c-0.12-1.54-0.27-3.08-0.35-4.63
						c-0.11-1.55-0.17-3.1-0.21-4.65c0.41,1.5,0.79,3.01,1.13,4.52c0.36,1.51,0.66,3.03,0.99,4.54l-0.89-0.66l5.12-0.94l-0.83,1.11
						c-0.34-2.03-0.73-4.05-1.03-6.08c-0.32-2.03-0.64-4.06-0.9-6.1l1.28,0.95c-1.72,0.23-3.44,0.49-5.16,0.69s-3.44,0.44-5.17,0.61
						l0.78-1.05c0.22,2.05,0.4,4.1,0.55,6.15C127.84,18.6,127.99,20.66,128.02,22.73z"/>
					<path style="fill:#FFE697;" d="M134.38,17.09c0,0,0.73-0.46,1.85-0.86c1.12-0.43,2.64-0.77,4.18-0.93s3.09-0.14,4.28,0.04
						c1.18,0.15,1.99,0.46,1.99,0.46s-0.73,0.47-1.85,0.86c-1.12,0.43-2.64,0.77-4.18,0.93s-3.1,0.14-4.28-0.05
						C135.18,17.39,134.38,17.09,134.38,17.09z"/>
				</g>
				<g>
					<g>
						<path style="fill:#FFE697;" d="M237.07,54.44c1.07-1.52,2.22-2.96,3.4-4.37c0.58-0.71,1.19-1.4,1.8-2.09
							c0.6-0.69,1.22-1.37,1.84-2.04l1.7-1.81l0.05,2.57c0.02,1.26,0.03,2.52,0,3.78c-0.01,1.26-0.04,2.52-0.1,3.78
							c-0.09,2.52-0.26,5.04-0.5,7.55l-0.19,1.93l-1.24-1.36c-1.17-1.28-2.31-2.59-3.45-3.91
							C239.25,57.16,238.14,55.82,237.07,54.44c1.38,1.07,2.72,2.19,4.04,3.32c1.32,1.13,2.63,2.28,3.91,3.45l-1.42,0.57
							c-0.11-2.53-0.14-5.05-0.09-7.57c0.01-1.26,0.05-2.52,0.11-3.78c0.04-1.26,0.11-2.52,0.2-3.78l1.75,0.75
							c-0.67,0.63-1.35,1.24-2.04,1.84c-0.69,0.61-1.38,1.21-2.09,1.8C240.03,52.22,238.58,53.37,237.07,54.44z"/>
						<path style="fill:#FFE697;" d="M256.66,55.68c-1.07,1.52-2.22,2.96-3.4,4.37c-0.58,0.71-1.19,1.4-1.8,2.09
							c-0.6,0.69-1.22,1.37-1.84,2.04l-1.7,1.81l-0.05-2.57c-0.02-1.26-0.03-2.52,0-3.78c0.01-1.26,0.04-2.52,0.1-3.78
							c0.09-2.52,0.26-5.04,0.5-7.55l0.19-1.93l1.24,1.36c1.17,1.28,2.31,2.59,3.45,3.91C254.47,52.96,255.59,54.3,256.66,55.68
							c-1.38-1.07-2.72-2.19-4.04-3.32c-1.32-1.13-2.63-2.28-3.91-3.45l1.42-0.57c0.11,2.53,0.14,5.05,0.09,7.57
							c-0.01,1.26-0.05,2.52-0.11,3.78c-0.04,1.26-0.11,2.52-0.2,3.78l-1.75-0.75c0.67-0.63,1.35-1.24,2.04-1.84
							c0.69-0.61,1.38-1.21,2.09-1.8C253.7,57.9,255.14,56.75,256.66,55.68z"/>
					</g>
					<path style="fill:#FFE697;" d="M258.56,78.57c1.49-1.44,3.04-2.8,4.59-4.15c1.56-1.34,3.14-2.66,4.74-3.96l-0.19,1.29
						c-1.1-1.34-2.15-2.73-3.22-4.09c-1.08-1.36-2.11-2.75-3.16-4.13l1.58,0.23c-1.63,1.26-3.29,2.47-4.95,3.68
						c-1.65,1.23-3.35,2.38-5.03,3.57l0.2-1.37l2.96,4.29l-1.1-0.16c1.3-0.84,2.59-1.7,3.91-2.51c1.31-0.83,2.64-1.63,3.99-2.4
						c-1.12,1.08-2.27,2.13-3.44,3.14c-1.16,1.03-2.35,2.02-3.52,3.03l-0.57,0.49l-0.53-0.65l-3.27-4.06l-0.6-0.75l0.8-0.63
						c1.62-1.27,3.21-2.57,4.86-3.8c1.63-1.25,3.27-2.49,4.94-3.69l0.92-0.67l0.66,0.9c1.02,1.4,2.06,2.79,3.06,4.21
						c1,1.42,2.03,2.82,3,4.26l0.54,0.79l-0.73,0.5c-1.7,1.16-3.41,2.3-5.15,3.41C262.1,76.45,260.36,77.55,258.56,78.57z"/>
					<path style="fill:#FFE697;" d="M224.45,44.46c1.01-1.81,2.12-3.55,3.22-5.29c1.12-1.73,2.25-3.45,3.41-5.15l0.5-0.73l0.79,0.54
						c1.44,0.97,2.84,2,4.26,3s2.81,2.03,4.21,3.06l0.9,0.66l-0.67,0.92c-1.2,1.67-2.45,3.3-3.69,4.94
						c-1.23,1.65-2.53,3.24-3.8,4.86l-0.63,0.8l-0.75-0.6l-4.06-3.27l-0.65-0.53l0.49-0.57c1.01-1.18,1.99-2.37,3.03-3.52
						c1.02-1.17,2.07-2.31,3.14-3.44c-0.77,1.35-1.57,2.69-2.4,3.99c-0.81,1.32-1.67,2.61-2.51,3.91l-0.16-1.1l4.29,2.96L232,50.1
						c1.19-1.68,2.35-3.38,3.57-5.03c1.21-1.66,2.42-3.32,3.68-4.95l0.23,1.58c-1.38-1.05-2.77-2.09-4.13-3.16
						c-1.36-1.08-2.75-2.12-4.09-3.22l1.29-0.19c-1.29,1.6-2.62,3.18-3.96,4.74C227.25,41.42,225.89,42.97,224.45,44.46z"/>
					<path style="fill:#FFE697;" d="M232.94,44.97c0,0,0.84,0.19,1.92,0.7c1.09,0.49,2.41,1.32,3.61,2.29s2.29,2.09,3,3.06
						c0.73,0.94,1.09,1.73,1.09,1.73s-0.84-0.19-1.92-0.7c-1.09-0.49-2.41-1.32-3.61-2.3s-2.29-2.09-2.99-3.06
						C233.29,45.75,232.94,44.97,232.94,44.97z"/>
				</g>
				<g>
					<g>
						<path style="fill:#FFE697;" d="M279.13,143.99c1.83-0.32,3.66-0.53,5.49-0.68c0.92-0.09,1.83-0.15,2.75-0.21
							c0.92-0.07,1.83-0.11,2.75-0.14l2.49-0.08l-1.78,1.85c-0.88,0.91-1.77,1.8-2.68,2.67c-0.9,0.88-1.81,1.76-2.74,2.6
							c-1.84,1.72-3.74,3.38-5.7,4.99l-1.49,1.23l0.08-1.84c0.08-1.73,0.2-3.47,0.33-5.2C278.76,147.46,278.92,145.73,279.13,143.99
							c0.22,1.73,0.37,3.47,0.51,5.2c0.13,1.73,0.25,3.47,0.33,5.2l-1.41-0.61c1.71-1.86,3.47-3.67,5.29-5.42
							c0.9-0.89,1.82-1.75,2.75-2.6c0.92-0.86,1.86-1.7,2.81-2.53l0.71,1.77c-0.92-0.03-1.83-0.07-2.75-0.14
							c-0.92-0.06-1.83-0.12-2.75-0.21C282.8,144.52,280.97,144.31,279.13,143.99z"/>
						<path style="fill:#FFE697;" d="M292.11,158.72c-1.83,0.32-3.66,0.53-5.49,0.68c-0.92,0.09-1.83,0.15-2.75,0.21
							c-0.92,0.07-1.83,0.11-2.75,0.14l-2.49,0.08l1.78-1.85c0.88-0.91,1.77-1.8,2.68-2.67c0.9-0.88,1.81-1.76,2.74-2.6
							c1.84-1.72,3.74-3.38,5.7-4.99l1.49-1.23l-0.08,1.84c-0.08,1.73-0.2,3.47-0.33,5.2C292.49,155.26,292.33,156.99,292.11,158.72
							c-0.22-1.73-0.37-3.47-0.51-5.2c-0.13-1.73-0.25-3.47-0.33-5.2l1.41,0.61c-1.71,1.86-3.47,3.67-5.29,5.42
							c-0.9,0.89-1.82,1.75-2.75,2.6c-0.92,0.86-1.86,1.7-2.81,2.53l-0.71-1.77c0.92,0.03,1.83,0.07,2.75,0.14
							c0.92,0.06,1.83,0.12,2.75,0.21C288.45,158.2,290.28,158.41,292.11,158.72z"/>
					</g>
					<path style="fill:#FFE697;" d="M277.27,176.25c2.07,0.03,4.13,0.17,6.19,0.31c2.05,0.16,4.1,0.34,6.15,0.55l-1.05,0.78
						c0.17-1.73,0.41-3.45,0.61-5.17c0.2-1.72,0.45-3.44,0.69-5.16l0.95,1.28c-2.04-0.26-4.07-0.58-6.1-0.9
						c-2.03-0.3-4.05-0.68-6.08-1.03l1.11-0.83l-0.94,5.12l-0.66-0.89c1.51,0.33,3.03,0.63,4.54,0.99c1.51,0.34,3.02,0.72,4.52,1.13
						c-1.56-0.03-3.11-0.1-4.65-0.21c-1.55-0.09-3.09-0.23-4.63-0.35l-0.75-0.06l0.09-0.83l0.56-5.18l0.1-0.95l1.01,0.12
						c2.04,0.25,4.09,0.46,6.12,0.75c2.04,0.27,4.07,0.55,6.1,0.88l1.12,0.18l-0.17,1.1c-0.27,1.71-0.52,3.43-0.82,5.14
						c-0.3,1.71-0.56,3.42-0.89,5.13l-0.18,0.94l-0.87-0.16c-2.02-0.38-4.04-0.79-6.05-1.23
						C281.28,177.26,279.27,176.81,277.27,176.25z"/>
					<path style="fill:#FFE697;" d="M277.27,128.02c1.99-0.56,4.01-1.01,6.02-1.47c2.01-0.44,4.03-0.85,6.05-1.23l0.87-0.16
						l0.18,0.94c0.33,1.71,0.59,3.42,0.89,5.13c0.3,1.71,0.55,3.43,0.82,5.14l0.17,1.1l-1.12,0.18c-2.03,0.33-4.07,0.61-6.1,0.88
						c-2.03,0.3-4.08,0.5-6.12,0.75l-1.01,0.12l-0.1-0.95l-0.56-5.18l-0.09-0.83l0.75-0.06c1.54-0.12,3.08-0.27,4.63-0.35
						c1.55-0.11,3.1-0.17,4.65-0.21c-1.5,0.41-3.01,0.79-4.52,1.13c-1.51,0.36-3.03,0.66-4.54,0.99l0.66-0.89l0.94,5.12l-1.11-0.83
						c2.03-0.34,4.05-0.73,6.08-1.03c2.03-0.32,4.06-0.64,6.1-0.9l-0.95,1.28c-0.23-1.72-0.49-3.44-0.69-5.16s-0.44-3.44-0.61-5.17
						l1.05,0.78c-2.05,0.22-4.1,0.4-6.15,0.55C281.4,127.84,279.34,127.99,277.27,128.02z"/>
					<path style="fill:#FFE697;" d="M282.91,134.38c0,0,0.46,0.73,0.86,1.85c0.43,1.12,0.77,2.64,0.93,4.18s0.14,3.09-0.04,4.28
						c-0.15,1.18-0.46,1.99-0.46,1.99s-0.47-0.73-0.86-1.85c-0.43-1.12-0.77-2.64-0.93-4.18s-0.14-3.1,0.05-4.28
						C282.61,135.18,282.91,134.38,282.91,134.38z"/>
				</g>
				<g>
					<g>
						<path style="fill:#FFE697;" d="M245.56,237.07c1.52,1.07,2.96,2.22,4.37,3.4c0.71,0.58,1.4,1.19,2.09,1.8
							c0.69,0.6,1.37,1.22,2.04,1.84l1.81,1.7l-2.57,0.05c-1.26,0.02-2.52,0.03-3.78,0c-1.26-0.01-2.52-0.04-3.78-0.1
							c-2.52-0.09-5.04-0.26-7.55-0.5l-1.93-0.19l1.36-1.24c1.28-1.17,2.59-2.31,3.91-3.45
							C242.84,239.25,244.18,238.14,245.56,237.07c-1.07,1.38-2.19,2.72-3.32,4.04c-1.13,1.32-2.28,2.63-3.45,3.91l-0.57-1.42
							c2.53-0.11,5.05-0.14,7.57-0.09c1.26,0.01,2.52,0.05,3.78,0.11c1.26,0.04,2.52,0.11,3.78,0.2l-0.75,1.75
							c-0.63-0.67-1.24-1.35-1.84-2.04c-0.61-0.69-1.21-1.38-1.8-2.09C247.78,240.03,246.63,238.58,245.56,237.07z"/>
						<path style="fill:#FFE697;" d="M244.32,256.66c-1.52-1.07-2.96-2.22-4.37-3.4c-0.71-0.58-1.4-1.19-2.09-1.8
							c-0.69-0.6-1.37-1.22-2.04-1.84l-1.81-1.7l2.57-0.05c1.26-0.02,2.52-0.03,3.78,0c1.26,0.01,2.52,0.04,3.78,0.1
							c2.52,0.09,5.04,0.26,7.55,0.5l1.93,0.19l-1.36,1.24c-1.28,1.17-2.59,2.31-3.91,3.45
							C247.04,254.47,245.7,255.59,244.32,256.66c1.07-1.38,2.19-2.72,3.32-4.04c1.13-1.32,2.28-2.63,3.45-3.91l0.57,1.42
							c-2.53,0.11-5.05,0.14-7.57,0.09c-1.26-0.01-2.52-0.05-3.78-0.11c-1.26-0.04-2.52-0.11-3.78-0.2l0.75-1.75
							c0.63,0.67,1.24,1.35,1.84,2.04c0.61,0.69,1.21,1.38,1.8,2.09C242.1,253.7,243.25,255.14,244.32,256.66z"/>
					</g>
					<path style="fill:#FFE697;" d="M221.43,258.56c1.44,1.49,2.8,3.04,4.15,4.59c1.34,1.56,2.66,3.14,3.96,4.74l-1.29-0.19
						c1.34-1.1,2.73-2.15,4.09-3.22c1.36-1.08,2.75-2.11,4.13-3.16l-0.23,1.58c-1.26-1.63-2.47-3.29-3.68-4.95
						c-1.23-1.65-2.38-3.35-3.57-5.03l1.37,0.2l-4.29,2.96l0.16-1.1c0.84,1.3,1.7,2.59,2.51,3.91c0.83,1.31,1.63,2.64,2.4,3.99
						c-1.08-1.12-2.13-2.27-3.14-3.44c-1.03-1.16-2.02-2.35-3.03-3.52l-0.49-0.57l0.65-0.53l4.06-3.27l0.75-0.6l0.63,0.8
						c1.27,1.62,2.57,3.21,3.8,4.86c1.25,1.63,2.49,3.27,3.69,4.94l0.67,0.92l-0.9,0.66c-1.4,1.02-2.79,2.06-4.21,3.06
						c-1.42,1-2.82,2.03-4.26,3l-0.79,0.54l-0.5-0.73c-1.16-1.7-2.3-3.41-3.41-5.15C223.55,262.1,222.45,260.36,221.43,258.56z"/>
					<path style="fill:#FFE697;" d="M255.54,224.45c1.81,1.01,3.55,2.12,5.29,3.22c1.73,1.12,3.45,2.25,5.15,3.41l0.73,0.5
						l-0.54,0.79c-0.97,1.44-2,2.84-3,4.26s-2.03,2.81-3.06,4.21l-0.66,0.9l-0.92-0.67c-1.67-1.2-3.3-2.45-4.94-3.69
						c-1.65-1.23-3.24-2.53-4.86-3.8l-0.8-0.63l0.6-0.75l3.27-4.06l0.53-0.65l0.57,0.49c1.18,1.01,2.37,1.99,3.52,3.03
						c1.17,1.02,2.31,2.07,3.44,3.14c-1.35-0.77-2.69-1.57-3.99-2.4c-1.32-0.81-2.61-1.67-3.91-2.51l1.1-0.16l-2.96,4.29l-0.2-1.37
						c1.68,1.19,3.38,2.35,5.03,3.57c1.66,1.21,3.32,2.42,4.95,3.68l-1.58,0.23c1.05-1.38,2.09-2.77,3.16-4.13
						c1.08-1.36,2.12-2.75,3.22-4.09l0.19,1.29c-1.6-1.29-3.18-2.62-4.74-3.96C258.58,227.25,257.03,225.89,255.54,224.45z"/>
					<path style="fill:#FFE697;" d="M255.03,232.94c0,0-0.19,0.84-0.7,1.92c-0.49,1.09-1.32,2.41-2.29,3.61
						c-0.97,1.2-2.09,2.29-3.06,3c-0.94,0.73-1.73,1.09-1.73,1.09s0.19-0.84,0.7-1.92c0.49-1.09,1.32-2.41,2.3-3.61
						s2.09-2.29,3.06-2.99C254.25,233.29,255.03,232.94,255.03,232.94z"/>
				</g>
				<g>
					<g>
						<path style="fill:#FFE697;" d="M62.93,245.56c-1.07,1.52-2.22,2.96-3.4,4.37c-0.58,0.71-1.19,1.4-1.8,2.09
							c-0.6,0.69-1.22,1.37-1.84,2.04l-1.7,1.81l-0.05-2.57c-0.02-1.26-0.03-2.52,0-3.78c0.01-1.26,0.04-2.52,0.1-3.78
							c0.09-2.52,0.26-5.04,0.5-7.55l0.19-1.93l1.24,1.36c1.17,1.28,2.31,2.59,3.45,3.91C60.75,242.84,61.86,244.18,62.93,245.56
							c-1.38-1.07-2.72-2.19-4.04-3.32s-2.63-2.28-3.91-3.45l1.42-0.57c0.11,2.53,0.14,5.05,0.09,7.57
							c-0.01,1.26-0.05,2.52-0.11,3.78c-0.04,1.26-0.11,2.52-0.2,3.78l-1.75-0.75c0.67-0.63,1.35-1.24,2.04-1.84
							c0.69-0.61,1.38-1.21,2.09-1.8C59.97,247.78,61.42,246.63,62.93,245.56z"/>
						<path style="fill:#FFE697;" d="M43.34,244.32c1.07-1.52,2.22-2.96,3.4-4.37c0.58-0.71,1.19-1.4,1.8-2.09
							c0.6-0.69,1.22-1.37,1.84-2.04l1.7-1.81l0.05,2.57c0.02,1.26,0.03,2.52,0,3.78c-0.01,1.26-0.04,2.52-0.1,3.78
							c-0.09,2.52-0.26,5.04-0.5,7.55l-0.19,1.93l-1.24-1.36c-1.17-1.28-2.31-2.59-3.45-3.91C45.53,247.04,44.41,245.7,43.34,244.32
							c1.38,1.07,2.72,2.19,4.04,3.32s2.63,2.28,3.91,3.45l-1.42,0.57c-0.11-2.53-0.14-5.05-0.09-7.57
							c0.01-1.26,0.05-2.52,0.11-3.78c0.04-1.26,0.11-2.52,0.2-3.78l1.75,0.75c-0.67,0.63-1.35,1.24-2.04,1.84
							c-0.69,0.61-1.38,1.21-2.09,1.8C46.3,242.1,44.86,243.25,43.34,244.32z"/>
					</g>
					<path style="fill:#FFE697;" d="M41.44,221.43c-1.49,1.44-3.04,2.8-4.59,4.15c-1.56,1.34-3.14,2.66-4.74,3.96l0.19-1.29
						c1.1,1.34,2.15,2.73,3.22,4.09c1.08,1.36,2.11,2.75,3.16,4.13l-1.58-0.23c1.63-1.26,3.29-2.47,4.95-3.68
						c1.65-1.23,3.35-2.38,5.03-3.57l-0.2,1.37l-2.96-4.29l1.1,0.16c-1.3,0.84-2.59,1.7-3.91,2.51c-1.31,0.83-2.64,1.63-3.99,2.4
						c1.12-1.08,2.27-2.13,3.44-3.14c1.16-1.03,2.35-2.02,3.52-3.03l0.57-0.49l0.53,0.65l3.27,4.06l0.6,0.75l-0.8,0.63
						c-1.62,1.27-3.21,2.57-4.86,3.8c-1.63,1.25-3.27,2.49-4.94,3.69l-0.92,0.67l-0.66-0.9c-1.02-1.4-2.06-2.79-3.06-4.21
						c-1-1.42-2.03-2.82-3-4.26l-0.54-0.79l0.73-0.5c1.7-1.16,3.41-2.3,5.15-3.41C37.9,223.55,39.64,222.45,41.44,221.43z"/>
					<path style="fill:#FFE697;" d="M75.55,255.54c-1.01,1.81-2.12,3.55-3.22,5.29c-1.12,1.73-2.25,3.45-3.41,5.15l-0.5,0.73
						l-0.79-0.54c-1.44-0.97-2.84-2-4.26-3c-1.42-1-2.81-2.03-4.21-3.06l-0.9-0.66l0.67-0.92c1.2-1.67,2.45-3.3,3.69-4.94
						c1.23-1.65,2.53-3.24,3.8-4.86l0.63-0.8l0.75,0.6l4.06,3.27l0.65,0.53l-0.49,0.57c-1.01,1.18-1.99,2.37-3.03,3.52
						c-1.02,1.17-2.07,2.31-3.14,3.44c0.77-1.35,1.57-2.69,2.4-3.99c0.81-1.32,1.67-2.61,2.51-3.91l0.16,1.1l-4.29-2.96l1.37-0.2
						c-1.19,1.68-2.35,3.38-3.57,5.03c-1.21,1.66-2.42,3.32-3.68,4.95l-0.23-1.58c1.38,1.05,2.77,2.09,4.13,3.16
						c1.36,1.08,2.75,2.12,4.09,3.22l-1.29,0.19c1.29-1.6,2.62-3.18,3.96-4.74C72.75,258.58,74.11,257.03,75.55,255.54z"/>
					<path style="fill:#FFE697;" d="M67.06,255.03c0,0-0.84-0.19-1.92-0.7c-1.09-0.49-2.41-1.32-3.61-2.29
						c-1.2-0.97-2.29-2.09-3-3.06c-0.73-0.94-1.09-1.73-1.09-1.73s0.84,0.19,1.92,0.7c1.09,0.49,2.41,1.32,3.61,2.3
						s2.29,2.09,2.99,3.06C66.71,254.25,67.06,255.03,67.06,255.03z"/>
				</g>
				<g>
					<g>
						<path style="fill:#FFE697;" d="M20.87,156.01c-1.83,0.32-3.66,0.53-5.49,0.68c-0.92,0.09-1.83,0.15-2.75,0.21
							c-0.92,0.07-1.83,0.11-2.75,0.14l-2.49,0.08l1.78-1.85c0.88-0.91,1.77-1.8,2.68-2.67c0.9-0.88,1.81-1.76,2.74-2.6
							c1.84-1.72,3.74-3.38,5.7-4.99l1.49-1.23l-0.08,1.84c-0.08,1.73-0.2,3.47-0.33,5.2C21.24,152.54,21.08,154.27,20.87,156.01
							c-0.22-1.73-0.37-3.47-0.51-5.2c-0.13-1.73-0.25-3.47-0.33-5.2l1.41,0.61c-1.71,1.86-3.47,3.67-5.29,5.42
							c-0.9,0.89-1.82,1.75-2.75,2.6c-0.92,0.86-1.86,1.7-2.81,2.53L9.88,155c0.92,0.03,1.83,0.07,2.75,0.14
							c0.92,0.06,1.83,0.12,2.75,0.21C17.2,155.48,19.03,155.69,20.87,156.01z"/>
						<path style="fill:#FFE697;" d="M7.89,141.28c1.83-0.32,3.66-0.53,5.49-0.68c0.92-0.09,1.83-0.15,2.75-0.21
							c0.92-0.07,1.83-0.11,2.75-0.14l2.49-0.08l-1.78,1.85c-0.88,0.91-1.77,1.8-2.68,2.67c-0.9,0.88-1.81,1.76-2.74,2.6
							c-1.84,1.72-3.74,3.38-5.7,4.99l-1.49,1.23l0.08-1.84c0.08-1.73,0.2-3.47,0.33-5.2C7.51,144.74,7.67,143.01,7.89,141.28
							c0.22,1.73,0.37,3.47,0.51,5.2c0.13,1.73,0.25,3.47,0.33,5.2l-1.41-0.61c1.71-1.86,3.47-3.67,5.29-5.42
							c0.9-0.89,1.82-1.75,2.75-2.6c0.92-0.86,1.86-1.7,2.81-2.53l0.71,1.77c-0.92-0.03-1.83-0.07-2.75-0.14
							c-0.92-0.06-1.83-0.12-2.75-0.21C11.55,141.8,9.72,141.59,7.89,141.28z"/>
					</g>
					<path style="fill:#FFE697;" d="M22.73,123.75c-2.07-0.03-4.13-0.17-6.19-0.31c-2.05-0.16-4.1-0.34-6.15-0.55l1.05-0.78
						c-0.17,1.73-0.41,3.45-0.61,5.17s-0.45,3.44-0.69,5.16l-0.95-1.28c2.04,0.26,4.07,0.58,6.1,0.9c2.03,0.3,4.05,0.68,6.08,1.03
						l-1.11,0.83l0.94-5.12l0.66,0.89c-1.51-0.33-3.03-0.63-4.54-0.99c-1.51-0.34-3.02-0.72-4.52-1.13c1.56,0.03,3.11,0.1,4.65,0.21
						c1.55,0.09,3.09,0.23,4.63,0.35l0.75,0.06l-0.09,0.83l-0.56,5.18l-0.1,0.95l-1.01-0.12c-2.04-0.25-4.09-0.46-6.12-0.75
						c-2.04-0.27-4.07-0.55-6.1-0.88l-1.12-0.18l0.17-1.1c0.27-1.71,0.52-3.43,0.82-5.14c0.3-1.71,0.56-3.42,0.89-5.13l0.18-0.94
						l0.87,0.16c2.02,0.38,4.04,0.79,6.05,1.23C18.72,122.74,20.73,123.19,22.73,123.75z"/>
					<path style="fill:#FFE697;" d="M22.73,171.98c-1.99,0.56-4.01,1.01-6.02,1.47c-2.01,0.44-4.03,0.85-6.05,1.23l-0.87,0.16
						l-0.18-0.94c-0.33-1.71-0.59-3.42-0.89-5.13s-0.55-3.43-0.82-5.14l-0.17-1.1l1.12-0.18c2.03-0.33,4.07-0.61,6.1-0.88
						c2.03-0.3,4.08-0.5,6.12-0.75l1.01-0.12l0.1,0.95l0.56,5.18l0.09,0.83l-0.75,0.06c-1.54,0.12-3.08,0.27-4.63,0.35
						c-1.55,0.11-3.1,0.17-4.65,0.21c1.5-0.41,3.01-0.79,4.52-1.13c1.51-0.36,3.03-0.66,4.54-0.99l-0.66,0.89l-0.94-5.12l1.11,0.83
						c-2.03,0.34-4.05,0.73-6.08,1.03c-2.03,0.32-4.06,0.64-6.1,0.9l0.95-1.28c0.23,1.72,0.49,3.44,0.69,5.16s0.44,3.44,0.61,5.17
						l-1.05-0.78c2.05-0.22,4.1-0.4,6.15-0.55C18.6,172.16,20.66,172.01,22.73,171.98z"/>
					<path style="fill:#FFE697;" d="M17.09,165.62c0,0-0.46-0.73-0.86-1.85c-0.43-1.12-0.77-2.64-0.93-4.18s-0.14-3.09,0.04-4.28
						c0.15-1.18,0.46-1.99,0.46-1.99s0.47,0.73,0.86,1.85c0.43,1.12,0.77,2.64,0.93,4.18s0.14,3.1-0.05,4.28
						C17.39,164.82,17.09,165.62,17.09,165.62z"/>
				</g>
				<g>
					<g>
						<path style="fill:#FFE697;" d="M54.44,62.93c-1.52-1.07-2.96-2.22-4.37-3.4c-0.71-0.58-1.4-1.19-2.09-1.8
							c-0.69-0.6-1.37-1.22-2.04-1.84l-1.81-1.7l2.57-0.05c1.26-0.02,2.52-0.03,3.78,0c1.26,0.01,2.52,0.04,3.78,0.1
							c2.52,0.09,5.04,0.26,7.55,0.5l1.93,0.19l-1.36,1.24c-1.28,1.17-2.59,2.31-3.91,3.45C57.16,60.75,55.82,61.86,54.44,62.93
							c1.07-1.38,2.19-2.72,3.32-4.04s2.28-2.63,3.45-3.91l0.57,1.42c-2.53,0.11-5.05,0.14-7.57,0.09
							c-1.26-0.01-2.52-0.05-3.78-0.11c-1.26-0.04-2.52-0.11-3.78-0.2l0.75-1.75c0.63,0.67,1.24,1.35,1.84,2.04
							c0.61,0.69,1.21,1.38,1.8,2.09C52.22,59.97,53.37,61.42,54.44,62.93z"/>
						<path style="fill:#FFE697;" d="M55.68,43.34c1.52,1.07,2.96,2.22,4.37,3.4c0.71,0.58,1.4,1.19,2.09,1.8
							c0.69,0.6,1.37,1.22,2.04,1.84l1.81,1.7l-2.57,0.05c-1.26,0.02-2.52,0.03-3.78,0c-1.26-0.01-2.52-0.04-3.78-0.1
							c-2.52-0.09-5.04-0.26-7.55-0.5l-1.93-0.19l1.36-1.24c1.28-1.17,2.59-2.31,3.91-3.45C52.96,45.53,54.3,44.41,55.68,43.34
							c-1.07,1.38-2.19,2.72-3.32,4.04s-2.28,2.63-3.45,3.91l-0.57-1.42c2.53-0.11,5.05-0.14,7.57-0.09
							c1.26,0.01,2.52,0.05,3.78,0.11c1.26,0.04,2.52,0.11,3.78,0.2l-0.75,1.75c-0.63-0.67-1.24-1.35-1.84-2.04
							c-0.61-0.69-1.21-1.38-1.8-2.09C57.9,46.3,56.75,44.86,55.68,43.34z"/>
					</g>
					<path style="fill:#FFE697;" d="M78.57,41.44c-1.44-1.49-2.8-3.04-4.15-4.59c-1.34-1.56-2.66-3.14-3.96-4.74l1.29,0.19
						c-1.34,1.1-2.73,2.15-4.09,3.22c-1.36,1.08-2.75,2.11-4.13,3.16l0.23-1.58c1.26,1.63,2.47,3.29,3.68,4.95
						c1.23,1.65,2.38,3.35,3.57,5.03l-1.37-0.2l4.29-2.96l-0.16,1.1c-0.84-1.3-1.7-2.59-2.51-3.91c-0.83-1.31-1.63-2.64-2.4-3.99
						c1.08,1.12,2.13,2.27,3.14,3.44c1.03,1.16,2.02,2.35,3.03,3.52l0.49,0.57l-0.65,0.53l-4.06,3.27l-0.75,0.6l-0.63-0.8
						c-1.27-1.62-2.57-3.21-3.8-4.86c-1.25-1.63-2.49-3.27-3.69-4.94l-0.67-0.92l0.9-0.66c1.4-1.02,2.79-2.06,4.21-3.06
						c1.42-1,2.82-2.03,4.26-3l0.79-0.54l0.5,0.73c1.16,1.7,2.3,3.41,3.41,5.15C76.45,37.9,77.55,39.64,78.57,41.44z"/>
					<path style="fill:#FFE697;" d="M44.46,75.55c-1.81-1.01-3.55-2.12-5.29-3.22c-1.73-1.12-3.45-2.25-5.15-3.41l-0.73-0.5
						l0.54-0.79c0.97-1.44,2-2.84,3-4.26c1-1.42,2.03-2.81,3.06-4.21l0.66-0.9l0.92,0.67c1.67,1.2,3.3,2.45,4.94,3.69
						c1.65,1.23,3.24,2.53,4.86,3.8l0.8,0.63l-0.6,0.75l-3.27,4.06l-0.53,0.65l-0.57-0.49c-1.18-1.01-2.37-1.99-3.52-3.03
						c-1.17-1.02-2.31-2.07-3.44-3.14c1.35,0.77,2.69,1.57,3.99,2.4c1.32,0.81,2.61,1.67,3.91,2.51l-1.1,0.16l2.96-4.29L50.1,68
						c-1.68-1.19-3.38-2.35-5.03-3.57c-1.66-1.21-3.32-2.42-4.95-3.68l1.58-0.23c-1.05,1.38-2.09,2.77-3.16,4.13
						c-1.08,1.36-2.12,2.75-3.22,4.09l-0.19-1.29c1.6,1.29,3.18,2.62,4.74,3.96C41.42,72.75,42.97,74.11,44.46,75.55z"/>
					<path style="fill:#FFE697;" d="M44.97,67.06c0,0,0.19-0.84,0.7-1.92c0.49-1.09,1.32-2.41,2.29-3.61s2.09-2.29,3.06-3
						c0.94-0.73,1.73-1.09,1.73-1.09s-0.19,0.84-0.7,1.92c-0.49,1.09-1.32,2.41-2.3,3.61s-2.09,2.29-3.06,2.99
						C45.75,66.71,44.97,67.06,44.97,67.06z"/>
				</g>
				<g>
					<path style="fill:#FFE697;" d="M203.84,26.19c0,0,0.91,0.01,2.14,0.31c1.24,0.26,2.81,0.82,4.29,1.53
						c1.48,0.72,2.88,1.6,3.86,2.42c0.99,0.79,1.56,1.49,1.56,1.49s-0.91-0.01-2.14-0.3c-1.25-0.26-2.81-0.82-4.29-1.53
						c-1.48-0.72-2.88-1.61-3.86-2.42C204.41,26.9,203.84,26.19,203.84,26.19z"/>
					<path style="fill:#FFE697;" d="M220.88,34.57c0,0,0.84,0.14,1.92,0.6c1.1,0.43,2.43,1.19,3.66,2.09
						c1.22,0.9,2.34,1.95,3.08,2.88c0.76,0.9,1.14,1.66,1.14,1.66s-0.84-0.14-1.92-0.6c-1.1-0.43-2.43-1.19-3.66-2.09
						c-1.22-0.91-2.34-1.96-3.08-2.88C221.27,35.34,220.88,34.57,220.88,34.57z"/>
					<path style="fill:#FFE697;" d="M188.01,20.83c0,0,0.9-0.13,2.16-0.04c1.27,0.06,2.9,0.36,4.48,0.83
						c1.58,0.48,3.1,1.12,4.19,1.77c1.1,0.62,1.78,1.23,1.78,1.23s-0.9,0.13-2.16,0.04c-1.27-0.06-2.9-0.36-4.48-0.83
						c-1.58-0.48-3.1-1.13-4.19-1.78C188.69,21.44,188.01,20.83,188.01,20.83z"/>
					<path style="fill:#FFE697;" d="M174.05,16.51c0,0,0.73-0.22,1.76-0.26c1.03-0.07,2.36,0.06,3.65,0.36
						c1.29,0.31,2.53,0.79,3.42,1.32c0.9,0.5,1.45,1.03,1.45,1.03s-0.73,0.22-1.76,0.26c-1.04,0.07-2.36-0.06-3.65-0.37
						c-1.28-0.31-2.53-0.79-3.42-1.32C174.6,17.04,174.05,16.51,174.05,16.51z"/>
					<path style="fill:#FFE697;" d="M209.1,25.36c0,0-0.01-0.17-0.03-0.48s-0.08-0.77-0.25-1.33c-0.17-0.55-0.42-1.23-0.91-1.87
						c-0.48-0.64-1.12-1.31-1.97-1.78c-0.84-0.48-1.86-0.78-2.93-0.8c-0.26,0-0.56,0.01-0.78,0.04c-0.29,0.04-0.61,0.07-0.84,0.15
						c-0.5,0.11-1.03,0.35-1.51,0.6c-0.97,0.53-1.79,1.34-2.37,2.29c-0.27,0.49-0.48,1-0.65,1.53c-0.15,0.54-0.21,1.09-0.21,1.65
						c0.02,0.2,0.01,0.68,0.06,0.86c0.02,0.24,0.09,0.51,0.16,0.79c0.17,0.53,0.38,1.04,0.65,1.53c0.58,0.95,1.4,1.76,2.36,2.29
						c0.98,0.53,2.05,0.81,3.16,0.78c1.02-0.02,2.07-0.32,2.91-0.8c0.85-0.47,1.5-1.13,1.97-1.78c0.49-0.64,0.75-1.32,0.91-1.87
						c0.17-0.56,0.23-1.02,0.25-1.33C209.08,25.53,209.1,25.36,209.1,25.36z M209.1,25.36c0,0-0.01,0.17-0.02,0.48
						c-0.01,0.31-0.06,0.77-0.21,1.34c-0.29,1.12-1,2.75-2.66,4.04c-0.84,0.63-1.85,1.15-3.11,1.4c-1.16,0.23-2.58,0.18-3.89-0.3
						c-0.66-0.24-1.3-0.59-1.9-1.02c-0.59-0.45-1.11-0.99-1.56-1.6s-0.79-1.31-1.03-2.05c-0.1-0.37-0.21-0.74-0.27-1.17
						c-0.08-0.48-0.07-0.67-0.1-1.13c0.04-1.55,0.49-3.12,1.41-4.35c0.46-0.61,0.97-1.16,1.56-1.6c0.6-0.42,1.23-0.78,1.9-1.02
						c0.67-0.23,1.32-0.38,2.02-0.42c0.36-0.04,0.64-0.01,0.94,0c0.36,0.02,0.64,0.07,0.96,0.12c1.21,0.25,2.27,0.77,3.09,1.4
						c1.66,1.29,2.38,2.92,2.66,4.04c0.15,0.57,0.19,1.03,0.21,1.34C209.09,25.19,209.1,25.36,209.1,25.36z"/>
					<path style="fill:#FFE697;" d="M178.69,25.36c0.33-2.39,0.77-4.76,1.2-7.13c0.45-2.36,0.92-4.72,1.43-7.07l0.19-0.88l0.94,0.22
						c2.04,0.47,4.07,1.02,6.1,1.53c2.03,0.52,4.05,1.09,6.07,1.63l1.17,0.31l-0.4,1.17c-0.76,2.21-1.57,4.41-2.35,6.62
						c-0.82,2.19-1.63,4.39-2.48,6.57l-0.34,0.86l-0.81-0.28c-1.8-0.62-3.61-1.22-5.4-1.88l-0.65-0.24l0.19-0.58
						c0.91-2.85,1.87-5.69,2.93-8.49c-0.46,2.97-1.01,5.91-1.62,8.84l-0.46-0.82c1.86,0.43,3.7,0.92,5.54,1.39l-1.14,0.58
						c0.69-2.24,1.42-4.46,2.14-6.69c0.76-2.21,1.49-4.44,2.27-6.64l0.77,1.48c-2.01-0.58-4.03-1.15-6.04-1.75
						c-2-0.62-4.02-1.2-6.01-1.85l1.13-0.66c-0.66,2.31-1.37,4.61-2.08,6.9C180.26,20.8,179.53,23.09,178.69,25.36z"/>
					<path style="fill:#FFE697;" d="M209.69,37c0.92-2.23,1.94-4.42,2.94-6.6c1.03-2.17,2.08-4.34,3.16-6.49l0.4-0.8l0.86,0.45
						c1.86,0.97,3.68,2.01,5.53,3c1.84,1.01,3.65,2.07,5.47,3.1l1.06,0.6l-0.68,1.03c-1.29,1.95-2.62,3.88-3.93,5.82
						c-1.34,1.92-2.67,3.84-4.04,5.74l-0.54,0.75l-0.71-0.47c-1.59-1.05-3.19-2.09-4.76-3.17l-0.57-0.39l0.33-0.52
						c1.59-2.53,3.23-5.04,4.96-7.49c-1.18,2.76-2.46,5.47-3.78,8.15l-0.24-0.91c1.69,0.89,3.35,1.81,5.02,2.73l-1.25,0.28
						c1.23-2,2.49-3.96,3.75-5.94c1.29-1.95,2.56-3.92,3.86-5.86l0.38,1.63c-1.8-1.07-3.62-2.12-5.41-3.2
						c-1.78-1.1-3.59-2.17-5.36-3.3l1.26-0.35c-1.22,2.07-2.48,4.12-3.75,6.16C212.35,32.98,211.07,35.02,209.69,37z"/>
				</g>
				<g>
					<path style="fill:#FFE697;" d="M275.41,100c0,0,0.64,0.65,1.3,1.72c0.7,1.06,1.42,2.56,1.97,4.11
						c0.54,1.55,0.92,3.17,1.04,4.43c0.15,1.26,0.06,2.16,0.06,2.16s-0.64-0.65-1.31-1.72c-0.7-1.06-1.42-2.56-1.96-4.11
						c-0.54-1.55-0.92-3.17-1.04-4.44C275.32,100.91,275.41,100,275.41,100z"/>
					<path style="fill:#FFE697;" d="M281.61,117.96c0,0,0.5,0.69,0.94,1.78c0.48,1.08,0.89,2.56,1.13,4.06
						c0.23,1.5,0.29,3.04,0.16,4.21c-0.1,1.17-0.36,1.98-0.36,1.98s-0.5-0.69-0.95-1.78c-0.48-1.08-0.89-2.56-1.13-4.06
						c-0.23-1.51-0.28-3.04-0.16-4.21C281.34,118.77,281.61,117.96,281.61,117.96z"/>
					<path style="fill:#FFE697;" d="M267.95,85.06c0,0,0.73,0.54,1.56,1.49c0.86,0.94,1.81,2.3,2.59,3.74
						c0.78,1.45,1.41,2.98,1.73,4.21c0.35,1.22,0.4,2.12,0.4,2.12s-0.73-0.54-1.56-1.49c-0.86-0.94-1.8-2.3-2.59-3.75
						c-0.78-1.45-1.41-2.98-1.73-4.21C268,85.96,267.95,85.06,267.95,85.06z"/>
					<path style="fill:#FFE697;" d="M261.07,72.16c0,0,0.68,0.36,1.43,1.06c0.78,0.68,1.64,1.71,2.34,2.83
						c0.7,1.12,1.24,2.34,1.5,3.35c0.29,0.99,0.31,1.75,0.31,1.75s-0.68-0.36-1.43-1.05c-0.78-0.68-1.64-1.71-2.33-2.83
						c-0.69-1.12-1.23-2.34-1.5-3.35C261.09,72.92,261.07,72.16,261.07,72.16z"/>
					<path style="fill:#FFE697;" d="M279.73,103.12c0,0,0.11-0.13,0.31-0.36c0.2-0.24,0.48-0.6,0.76-1.12
						c0.27-0.51,0.57-1.17,0.67-1.97c0.12-0.79,0.13-1.71-0.15-2.65c-0.26-0.93-0.77-1.87-1.51-2.63c-0.18-0.18-0.4-0.38-0.58-0.53
						c-0.23-0.17-0.48-0.38-0.7-0.49c-0.43-0.27-0.98-0.48-1.49-0.64c-1.07-0.3-2.22-0.3-3.3-0.04c-0.54,0.15-1.05,0.37-1.54,0.63
						c-0.47,0.26-0.96,0.67-1.27,0.98c-0.52,0.55-0.75,0.85-1.05,1.36c-0.26,0.49-0.46,1.01-0.61,1.54
						c-0.26,1.08-0.24,2.23,0.06,3.29c0.32,1.06,0.89,2.01,1.69,2.78c0.74,0.71,1.7,1.23,2.63,1.48c0.94,0.27,1.86,0.25,2.65,0.13
						c0.8-0.11,1.46-0.41,1.96-0.68c0.51-0.28,0.88-0.56,1.11-0.77C279.6,103.23,279.73,103.12,279.73,103.12z M279.73,103.12
						c0,0-0.12,0.11-0.35,0.33c-0.23,0.21-0.59,0.51-1.09,0.81c-0.99,0.59-2.65,1.25-4.74,1c-1.04-0.14-2.12-0.49-3.2-1.2
						c-0.99-0.66-1.96-1.69-2.55-2.96c-0.3-0.64-0.5-1.33-0.63-2.06c-0.1-0.73-0.09-1.48,0.02-2.24c0.11-0.75,0.36-1.49,0.71-2.19
						c0.33-0.66,0.91-1.43,1.31-1.85c1.2-1.16,2.57-1.89,4.1-2.14c0.75-0.11,1.51-0.14,2.24-0.03c0.73,0.12,1.43,0.31,2.06,0.61
						c0.64,0.31,1.21,0.66,1.73,1.13c0.28,0.23,0.46,0.44,0.67,0.66c0.24,0.27,0.41,0.5,0.59,0.76c0.69,1.03,1.07,2.14,1.21,3.17
						c0.27,2.09-0.37,3.75-0.95,4.75c-0.29,0.51-0.59,0.87-0.8,1.1C279.84,102.99,279.73,103.12,279.73,103.12z"/>
					<path style="fill:#FFE697;" d="M258.14,81.7c1.92-1.47,3.9-2.84,5.87-4.22c1.99-1.36,3.98-2.7,5.99-4.01l0.75-0.49l0.52,0.82
						c1.12,1.78,2.17,3.59,3.26,5.38c1.07,1.8,2.11,3.62,3.17,5.44l0.61,1.05l-1.11,0.55c-2.1,1.04-4.22,2.03-6.33,3.04
						c-2.13,0.98-4.25,1.97-6.39,2.92l-0.84,0.37l-0.38-0.76c-0.85-1.71-1.7-3.41-2.51-5.13l-0.29-0.62l0.54-0.28
						c2.65-1.38,5.33-2.72,8.06-3.97c-2.41,1.79-4.88,3.48-7.38,5.13l0.25-0.91c1.01,1.62,1.98,3.26,2.95,4.89l-1.22-0.39
						c2.06-1.11,4.15-2.16,6.23-3.24c2.1-1.04,4.18-2.1,6.29-3.11l-0.49,1.6c-1.02-1.83-2.06-3.65-3.06-5.5
						c-0.99-1.85-2.01-3.68-2.97-5.55l1.27,0.33c-2.1,1.17-4.22,2.31-6.34,3.43C262.46,79.58,260.33,80.69,258.14,81.7z"/>
					<path style="fill:#FFE697;" d="M271.95,111.8c2.23-0.94,4.48-1.77,6.74-2.62c2.26-0.82,4.53-1.62,6.81-2.38l0.85-0.28
						l0.29,0.92c0.64,2,1.2,4.02,1.81,6.03c0.59,2.01,1.14,4.04,1.7,6.05l0.33,1.17l-1.21,0.25c-2.29,0.48-4.59,0.91-6.89,1.36
						c-2.3,0.42-4.6,0.85-6.91,1.23l-0.91,0.15l-0.18-0.83c-0.39-1.86-0.79-3.72-1.15-5.6l-0.13-0.68l0.6-0.14
						c2.91-0.68,5.84-1.3,8.8-1.83c-2.78,1.13-5.6,2.15-8.43,3.12l0.47-0.81c0.58,1.82,1.1,3.65,1.64,5.47l-1.09-0.68
						c2.28-0.55,4.56-1.06,6.84-1.58c2.29-0.48,4.58-0.99,6.87-1.44l-0.88,1.42c-0.53-2.03-1.08-4.05-1.59-6.09
						c-0.49-2.04-1.02-4.07-1.48-6.11l1.14,0.64c-2.32,0.61-4.66,1.18-7,1.74C276.67,110.82,274.33,111.36,271.95,111.8z"/>
				</g>
				<g>
					<path style="fill:#FFE697;" d="M273.36,204.85c0,0-0.02,0.91-0.32,2.14c-0.27,1.24-0.84,2.8-1.57,4.28
						c-0.73,1.47-1.63,2.87-2.45,3.84c-0.79,0.99-1.51,1.55-1.51,1.55s0.02-0.91,0.32-2.14c0.27-1.24,0.84-2.8,1.57-4.28
						c0.73-1.47,1.63-2.87,2.45-3.84C272.65,205.42,273.36,204.85,273.36,204.85z"/>
					<path style="fill:#FFE697;" d="M264.84,221.83c0,0-0.15,0.84-0.62,1.92c-0.44,1.1-1.21,2.43-2.12,3.65s-1.97,2.33-2.91,3.06
						c-0.9,0.75-1.67,1.13-1.67,1.13s0.15-0.84,0.61-1.92c0.44-1.1,1.21-2.42,2.12-3.64c0.92-1.22,1.98-2.32,2.91-3.05
						C264.07,222.21,264.84,221.83,264.84,221.83z"/>
					<path style="fill:#FFE697;" d="M278.85,189.07c0,0,0.12,0.9,0.02,2.16c-0.07,1.27-0.38,2.9-0.87,4.47s-1.15,3.09-1.81,4.18
						c-0.63,1.1-1.24,1.77-1.24,1.77s-0.13-0.9-0.02-2.16c0.07-1.27,0.39-2.9,0.87-4.47c0.49-1.57,1.15-3.09,1.81-4.18
						C278.24,189.75,278.85,189.07,278.85,189.07z"/>
					<path style="fill:#FFE697;" d="M283.28,175.15c0,0,0.22,0.73,0.24,1.76c0.06,1.04-0.08,2.36-0.39,3.65
						c-0.32,1.28-0.81,2.52-1.35,3.41c-0.5,0.9-1.04,1.44-1.04,1.44s-0.22-0.73-0.25-1.76c-0.06-1.04,0.08-2.36,0.4-3.65
						c0.32-1.28,0.82-2.52,1.35-3.41C282.75,175.7,283.28,175.15,283.28,175.15z"/>
					<path style="fill:#FFE697;" d="M274.15,210.12c0,0,0.17-0.01,0.48-0.03s0.77-0.08,1.33-0.24s1.23-0.41,1.88-0.9
						c0.65-0.47,1.32-1.11,1.79-1.95c0.48-0.84,0.8-1.85,0.83-2.92c0-0.26-0.01-0.56-0.03-0.78c-0.04-0.29-0.06-0.61-0.14-0.84
						c-0.1-0.5-0.34-1.04-0.58-1.52c-0.53-0.97-1.33-1.8-2.28-2.38c-0.48-0.28-1-0.49-1.52-0.66c-0.51-0.15-1.15-0.22-1.59-0.23
						c-0.75,0.01-1.13,0.06-1.71,0.2c-0.53,0.16-1.05,0.37-1.53,0.64c-0.95,0.57-1.77,1.38-2.31,2.34
						c-0.54,0.97-0.82,2.04-0.81,3.15c0.01,1.02,0.3,2.08,0.77,2.91c0.46,0.86,1.12,1.5,1.76,1.98c0.64,0.5,1.31,0.76,1.86,0.93
						c0.56,0.17,1.01,0.23,1.32,0.26C273.98,210.11,274.15,210.12,274.15,210.12z M274.15,210.12c0,0-0.17-0.01-0.48-0.02
						c-0.31-0.02-0.77-0.06-1.34-0.22c-1.12-0.3-2.74-1.02-4.02-2.7c-0.62-0.84-1.13-1.86-1.38-3.13c-0.22-1.17-0.16-2.58,0.33-3.89
						c0.24-0.66,0.6-1.29,1.03-1.89c0.45-0.58,1-1.1,1.61-1.55c0.62-0.45,1.32-0.78,2.06-1.02c0.7-0.23,1.66-0.34,2.24-0.35
						c1.67,0.05,3.15,0.52,4.39,1.44c0.6,0.46,1.15,0.98,1.59,1.58c0.42,0.6,0.77,1.24,1,1.9c0.23,0.67,0.37,1.32,0.4,2.02
						c0.04,0.36,0,0.64-0.01,0.94c-0.02,0.36-0.07,0.64-0.13,0.96c-0.26,1.21-0.79,2.26-1.42,3.08c-1.3,1.65-2.94,2.35-4.06,2.63
						c-0.57,0.15-1.03,0.19-1.34,0.2C274.32,210.11,274.15,210.12,274.15,210.12z"/>
					<path style="fill:#FFE697;" d="M274.4,179.71c2.39,0.35,4.75,0.81,7.12,1.26c2.36,0.47,4.71,0.96,7.06,1.49l0.87,0.2
						l-0.23,0.94c-0.49,2.04-1.05,4.06-1.58,6.09c-0.54,2.03-1.12,4.04-1.68,6.06l-0.32,1.17l-1.16-0.41c-2.21-0.78-4.4-1.6-6.6-2.4
						c-2.19-0.84-4.38-1.66-6.55-2.53l-0.86-0.34l0.28-0.8c0.63-1.8,1.25-3.6,1.92-5.38l0.24-0.64l0.58,0.19
						c2.84,0.93,5.67,1.91,8.47,3c-2.96-0.48-5.9-1.06-8.82-1.7l0.82-0.45c-0.45,1.85-0.95,3.69-1.44,5.53l-0.57-1.15
						c2.23,0.71,4.45,1.46,6.67,2.2c2.21,0.78,4.42,1.53,6.62,2.33l-1.49,0.76c0.6-2.01,1.18-4.02,1.8-6.03c0.64-2,1.23-4.01,1.9-6
						l0.65,1.14c-2.3-0.68-4.6-1.4-6.89-2.14C278.94,181.32,276.66,180.57,274.4,179.71z"/>
					<path style="fill:#FFE697;" d="M262.51,210.62c2.23,0.94,4.4,1.97,6.58,3c2.16,1.05,4.32,2.11,6.46,3.21l0.8,0.41l-0.45,0.85
						c-0.98,1.85-2.04,3.67-3.05,5.5c-1.03,1.83-2.1,3.63-3.14,5.45l-0.61,1.05l-1.02-0.69c-1.94-1.31-3.86-2.65-5.79-3.98
						c-1.91-1.36-3.82-2.7-5.71-4.09l-0.74-0.55l0.47-0.71c1.06-1.58,2.11-3.17,3.21-4.73l0.39-0.56l0.52,0.33
						c2.52,1.61,5.01,3.27,7.45,5.02c-2.75-1.21-5.45-2.51-8.12-3.85l0.91-0.23c-0.9,1.68-1.84,3.33-2.78,4.99l-0.27-1.25
						c1.99,1.24,3.94,2.53,5.91,3.8c1.94,1.31,3.9,2.59,5.83,3.91l-1.63,0.37c1.08-1.79,2.15-3.6,3.25-5.39
						c1.12-1.78,2.2-3.57,3.34-5.33l0.34,1.26c-2.06-1.24-4.1-2.51-6.13-3.8C266.5,213.31,264.48,212.01,262.51,210.62z"/>
				</g>
				<g>
					<path style="fill:#FFE697;" d="M198.77,275.89c0,0-0.66,0.63-1.74,1.29c-1.07,0.69-2.57,1.39-4.13,1.93
						c-1.56,0.53-3.18,0.89-4.44,1c-1.26,0.14-2.16,0.04-2.16,0.04s0.65-0.63,1.73-1.29c1.07-0.69,2.57-1.39,4.13-1.92
						s3.18-0.88,4.45-0.99C197.87,275.79,198.77,275.89,198.77,275.89z"/>
					<path style="fill:#FFE697;" d="M213.79,268.57c0,0-0.55,0.73-1.51,1.55c-0.95,0.85-2.32,1.78-3.77,2.56
						c-1.46,0.77-2.99,1.38-4.23,1.69c-1.22,0.34-2.13,0.38-2.13,0.38s0.55-0.73,1.51-1.55c0.95-0.85,2.32-1.78,3.77-2.55
						c1.46-0.77,3-1.38,4.23-1.69C212.88,268.62,213.79,268.57,213.79,268.57z"/>
					<path style="fill:#FFE697;" d="M226.76,261.83c0,0-0.36,0.67-1.07,1.42c-0.69,0.78-1.72,1.62-2.85,2.31
						c-1.13,0.68-2.35,1.22-3.36,1.47c-0.99,0.28-1.76,0.29-1.76,0.29s0.36-0.67,1.07-1.42c0.69-0.78,1.72-1.62,2.85-2.31
						c1.13-0.68,2.36-1.21,3.36-1.46C225.99,261.84,226.76,261.83,226.76,261.83z"/>
					<path style="fill:#FFE697;" d="M195.62,280.18c0,0,0.13,0.11,0.36,0.32c0.24,0.21,0.6,0.49,1.11,0.77s1.16,0.58,1.96,0.69
						c0.79,0.12,1.71,0.14,2.65-0.12c0.93-0.25,1.87-0.75,2.65-1.49c0.18-0.18,0.39-0.4,0.53-0.58c0.17-0.23,0.39-0.48,0.49-0.7
						c0.28-0.43,0.49-0.97,0.66-1.49c0.31-1.06,0.33-2.21,0.07-3.3c-0.15-0.54-0.36-1.05-0.61-1.55c-0.27-0.49-0.62-0.92-1.01-1.32
						c-0.15-0.13-0.49-0.48-0.65-0.57c-0.18-0.16-0.43-0.3-0.66-0.45c-0.49-0.26-1-0.47-1.54-0.63c-1.08-0.27-2.23-0.27-3.29,0.03
						c-1.07,0.31-2.02,0.87-2.8,1.67c-0.71,0.73-1.25,1.69-1.5,2.61c-0.28,0.93-0.27,1.86-0.15,2.65c0.1,0.8,0.39,1.46,0.67,1.97
						c0.27,0.51,0.55,0.88,0.76,1.12C195.51,280.05,195.62,280.18,195.62,280.18z M195.62,280.18c0,0-0.11-0.12-0.33-0.35
						c-0.21-0.23-0.5-0.59-0.8-1.1c-0.58-1-1.22-2.66-0.95-4.75c0.15-1.04,0.51-2.12,1.23-3.19c0.67-0.98,1.71-1.94,2.98-2.53
						c0.64-0.3,1.34-0.49,2.07-0.61c0.73-0.1,1.49-0.07,2.24,0.04c0.75,0.12,1.49,0.38,2.18,0.73c0.34,0.19,0.67,0.38,1.01,0.64
						c0.39,0.28,0.52,0.42,0.87,0.73c1.07,1.13,1.84,2.57,2.05,4.08c0.1,0.75,0.12,1.51,0.01,2.24c-0.13,0.72-0.33,1.42-0.63,2.06
						c-0.31,0.64-0.67,1.2-1.14,1.72c-0.23,0.28-0.45,0.45-0.67,0.66c-0.27,0.24-0.51,0.4-0.76,0.59c-1.04,0.68-2.15,1.05-3.18,1.18
						c-2.09,0.25-3.74-0.41-4.74-1c-0.51-0.3-0.86-0.6-1.09-0.81C195.74,280.29,195.62,280.18,195.62,280.18z"/>
					<path style="fill:#FFE697;" d="M217.24,258.8c1.45,1.93,2.8,3.92,4.16,5.91c1.34,2,2.66,4.01,3.95,6.03l0.48,0.76l-0.82,0.51
						c-1.79,1.1-3.61,2.14-5.41,3.21c-1.81,1.06-3.64,2.07-5.47,3.11l-1.06,0.6l-0.54-1.11c-1.02-2.11-1.99-4.24-2.98-6.36
						c-0.96-2.14-1.93-4.26-2.86-6.42l-0.37-0.85l0.77-0.37c1.71-0.83,3.42-1.67,5.16-2.46l0.63-0.29l0.28,0.55
						c1.36,2.67,2.67,5.36,3.89,8.1c-1.76-2.43-3.43-4.92-5.06-7.43l0.9,0.26c-1.63,1-3.27,1.95-4.92,2.91l0.4-1.22
						c1.08,2.08,2.12,4.17,3.18,6.26c1.02,2.11,2.06,4.2,3.05,6.32l-1.59-0.51c1.84-1,3.67-2.02,5.53-3.01
						c1.86-0.97,3.7-1.97,5.58-2.91l-0.34,1.26c-1.15-2.11-2.27-4.24-3.37-6.38C219.32,263.15,218.23,261,217.24,258.8z"/>
					<path style="fill:#FFE697;" d="M187.01,272.32c0.92,2.23,1.73,4.5,2.55,6.76c0.8,2.27,1.58,4.54,2.32,6.83l0.28,0.85
						l-0.92,0.29c-2,0.62-4.03,1.16-6.04,1.75c-2.02,0.57-4.05,1.1-6.07,1.65l-1.17,0.32l-0.24-1.21c-0.46-2.3-0.86-4.6-1.3-6.9
						c-0.39-2.31-0.8-4.61-1.16-6.93l-0.14-0.91l0.84-0.17c1.87-0.37,3.73-0.76,5.61-1.09l0.68-0.12l0.13,0.6
						c0.65,2.92,1.24,5.85,1.74,8.82c-1.1-2.8-2.09-5.62-3.04-8.46l0.81,0.48c-1.82,0.56-3.66,1.07-5.49,1.58l0.69-1.08
						c0.53,2.28,1.01,4.57,1.51,6.86c0.46,2.3,0.94,4.59,1.37,6.89l-1.41-0.89c2.03-0.51,4.06-1.04,6.1-1.53
						c2.04-0.47,4.08-0.99,6.13-1.42l-0.65,1.14c-0.59-2.33-1.14-4.67-1.67-7.02C187.94,277.05,187.42,274.7,187.01,272.32z"/>
				</g>
				<g>
					<path style="fill:#FFE697;" d="M95.55,273.54c0,0-0.91-0.02-2.14-0.32c-1.24-0.27-2.8-0.83-4.28-1.55
						c-1.48-0.73-2.88-1.62-3.85-2.44c-0.99-0.79-1.56-1.5-1.56-1.5s0.91,0.01,2.14,0.31c1.24,0.27,2.8,0.83,4.28,1.56
						c1.48,0.73,2.87,1.62,3.85,2.44C94.98,272.83,95.55,273.54,95.55,273.54z"/>
					<path style="fill:#FFE697;" d="M78.55,265.07c0,0-0.84-0.15-1.92-0.61c-1.1-0.44-2.43-1.2-3.65-2.11
						c-1.22-0.91-2.33-1.97-3.06-2.9c-0.75-0.9-1.13-1.67-1.13-1.67s0.84,0.14,1.92,0.61c1.1,0.44,2.43,1.2,3.65,2.11
						c1.22,0.91,2.33,1.97,3.06,2.9C78.17,264.31,78.55,265.07,78.55,265.07z"/>
					<path style="fill:#FFE697;" d="M111.35,278.98c0,0-0.9,0.13-2.16,0.03c-1.27-0.07-2.9-0.38-4.47-0.85
						c-1.57-0.48-3.1-1.14-4.19-1.79c-1.1-0.62-1.77-1.24-1.77-1.24s0.9-0.13,2.16-0.03c1.27,0.07,2.9,0.38,4.47,0.86
						c1.57,0.49,3.09,1.14,4.19,1.8C110.67,278.37,111.35,278.98,111.35,278.98z"/>
					<path style="fill:#FFE697;" d="M90.29,274.35c0,0,0.01,0.17,0.03,0.48s0.08,0.77,0.24,1.33c0.16,0.55,0.41,1.23,0.9,1.87
						c0.47,0.65,1.11,1.31,1.96,1.79c0.84,0.48,1.86,0.79,2.93,0.82c0.26,0,0.56-0.01,0.78-0.03c0.29-0.04,0.61-0.07,0.84-0.14
						c0.5-0.11,1.03-0.34,1.52-0.59c0.97-0.53,1.8-1.34,2.38-2.28c0.28-0.48,0.49-1,0.66-1.53c0.15-0.51,0.21-1.15,0.22-1.59
						c-0.01-0.75-0.06-1.13-0.21-1.71c-0.16-0.53-0.37-1.04-0.65-1.53c-0.57-0.95-1.39-1.76-2.35-2.3c-0.97-0.54-2.04-0.82-3.16-0.8
						c-1.02,0.01-2.07,0.31-2.91,0.78c-0.85,0.47-1.5,1.12-1.98,1.77c-0.49,0.64-0.75,1.31-0.92,1.86
						c-0.17,0.56-0.23,1.02-0.26,1.33C90.3,274.18,90.29,274.35,90.29,274.35z M90.29,274.35c0,0,0.01-0.17,0.02-0.48
						c0.01-0.31,0.06-0.77,0.21-1.34c0.29-1.12,1.02-2.75,2.68-4.03c0.84-0.63,1.86-1.14,3.12-1.39c1.16-0.22,2.58-0.17,3.89,0.32
						c0.66,0.24,1.29,0.6,1.89,1.03c0.59,0.45,1.1,1,1.55,1.61c0.45,0.62,0.79,1.32,1.02,2.06c0.23,0.7,0.35,1.66,0.36,2.24
						c-0.04,1.67-0.51,3.15-1.43,4.4c-0.46,0.6-0.98,1.15-1.57,1.59c-0.6,0.42-1.24,0.77-1.9,1.01c-0.67,0.23-1.32,0.37-2.02,0.41
						c-0.36,0.04-0.64,0-0.94,0c-0.36-0.02-0.64-0.07-0.96-0.12c-1.21-0.26-2.26-0.78-3.08-1.41c-1.65-1.3-2.36-2.93-2.64-4.05
						c-0.15-0.57-0.19-1.03-0.2-1.34C90.29,274.51,90.29,274.35,90.29,274.35z"/>
					<path style="fill:#FFE697;" d="M120.7,274.5c-0.34,2.39-0.79,4.76-1.23,7.12c-0.47,2.36-0.95,4.72-1.47,7.06l-0.19,0.87
						l-0.94-0.22c-2.04-0.48-4.06-1.04-6.1-1.56c-2.03-0.53-4.04-1.11-6.07-1.66l-1.17-0.32l0.41-1.16c0.77-2.21,1.59-4.4,2.38-6.6
						c0.83-2.19,1.65-4.38,2.51-6.56l0.34-0.86l0.8,0.28c1.8,0.62,3.6,1.24,5.39,1.9l0.64,0.24l-0.19,0.58
						c-0.92,2.84-1.9,5.68-2.97,8.48c0.47-2.97,1.04-5.9,1.67-8.83l0.46,0.82c-1.85-0.44-3.69-0.94-5.53-1.42l1.14-0.58
						c-0.7,2.24-1.45,4.45-2.18,6.68c-0.77,2.21-1.51,4.43-2.31,6.63l-0.77-1.48c2.01,0.59,4.03,1.17,6.03,1.78
						c2,0.63,4.01,1.22,6,1.88l-1.14,0.65c0.67-2.31,1.39-4.6,2.12-6.89C119.1,279.05,119.84,276.76,120.7,274.5z"/>
					<path style="fill:#FFE697;" d="M89.75,262.7c-0.93,2.23-1.96,4.41-2.98,6.59c-1.04,2.17-2.1,4.33-3.19,6.47l-0.41,0.8
						l-0.86-0.45c-1.86-0.98-3.67-2.02-5.51-3.03c-1.83-1.02-3.64-2.08-5.46-3.13l-1.06-0.6l0.68-1.03c1.3-1.95,2.64-3.86,3.96-5.8
						c1.35-1.91,2.69-3.83,4.07-5.72l0.54-0.75l0.71,0.47c1.59,1.06,3.18,2.1,4.74,3.19l0.56,0.39l-0.33,0.52
						c-1.61,2.52-3.26,5.02-5,7.47c1.2-2.75,2.49-5.46,3.82-8.13l0.24,0.91c-1.68-0.89-3.34-1.83-5-2.76l1.25-0.27
						c-1.24,1.99-2.51,3.95-3.78,5.92c-1.3,1.95-2.57,3.91-3.89,5.84l-0.37-1.63c1.8,1.08,3.61,2.14,5.4,3.23
						c1.78,1.11,3.58,2.18,5.34,3.32l-1.26,0.35c1.23-2.06,2.5-4.11,3.78-6.14C87.07,266.71,88.36,264.68,89.75,262.7z"/>
				</g>
				<g>
					<path style="fill:#FFE697;" d="M24.44,199.63c0,0-0.63-0.65-1.3-1.73c-0.7-1.07-1.41-2.56-1.95-4.11
						c-0.54-1.56-0.91-3.17-1.03-4.44c-0.15-1.26-0.05-2.16-0.05-2.16s0.64,0.65,1.3,1.73c0.7,1.07,1.41,2.56,1.95,4.12
						s0.91,3.17,1.02,4.44C24.54,198.72,24.44,199.63,24.44,199.63z"/>
					<path style="fill:#FFE697;" d="M18.3,181.65c0,0-0.5-0.69-0.94-1.78c-0.47-1.08-0.89-2.56-1.12-4.07
						c-0.23-1.51-0.28-3.04-0.15-4.21c0.1-1.17,0.37-1.98,0.37-1.98s0.5,0.69,0.94,1.78c0.48,1.08,0.88,2.56,1.12,4.07
						c0.23,1.51,0.27,3.04,0.14,4.21C18.56,180.84,18.3,181.65,18.3,181.65z"/>
					<path style="fill:#FFE697;" d="M31.86,214.6c0,0-0.73-0.54-1.56-1.5c-0.86-0.94-1.8-2.3-2.58-3.75s-1.4-2.99-1.72-4.22
						c-0.34-1.22-0.39-2.13-0.39-2.13s0.73,0.54,1.56,1.5c0.86,0.94,1.8,2.3,2.58,3.75s1.4,2.99,1.71,4.22
						C31.81,213.69,31.86,214.6,31.86,214.6z"/>
					<path style="fill:#FFE697;" d="M38.7,227.51c0,0-0.67-0.36-1.43-1.06c-0.78-0.68-1.63-1.71-2.33-2.83
						c-0.69-1.13-1.23-2.35-1.49-3.35c-0.29-0.99-0.3-1.75-0.3-1.75s0.68,0.36,1.43,1.06c0.78,0.68,1.63,1.71,2.32,2.84
						c0.69,1.13,1.23,2.35,1.49,3.35C38.68,226.75,38.7,227.51,38.7,227.51z"/>
					<path style="fill:#FFE697;" d="M20.13,196.5c0,0-0.11,0.13-0.32,0.36c-0.2,0.24-0.49,0.6-0.76,1.12
						c-0.27,0.51-0.57,1.17-0.68,1.97c-0.12,0.79-0.13,1.71,0.14,2.65c0.26,0.93,0.77,1.87,1.51,2.64c0.18,0.18,0.4,0.39,0.58,0.53
						c0.23,0.17,0.48,0.38,0.7,0.49c0.43,0.27,0.98,0.48,1.49,0.65c1.06,0.31,2.22,0.31,3.3,0.05c0.54-0.15,1.05-0.37,1.54-0.62
						c0.47-0.26,0.96-0.67,1.27-0.98c0.52-0.54,0.75-0.85,1.05-1.36c0.26-0.49,0.47-1.01,0.62-1.54c0.26-1.08,0.25-2.23-0.05-3.29
						c-0.31-1.07-0.88-2.02-1.69-2.78c-0.74-0.71-1.7-1.24-2.62-1.49c-0.93-0.27-1.86-0.26-2.65-0.13c-0.8,0.11-1.46,0.4-1.97,0.68
						c-0.51,0.28-0.88,0.56-1.11,0.76C20.26,196.39,20.13,196.5,20.13,196.5z M20.13,196.5c0,0,0.12-0.11,0.35-0.33
						c0.23-0.21,0.59-0.51,1.09-0.8c0.99-0.59,2.65-1.24,4.74-0.98c1.04,0.14,2.12,0.5,3.2,1.21c0.99,0.66,1.95,1.69,2.55,2.96
						c0.3,0.64,0.5,1.34,0.62,2.06c0.1,0.73,0.08,1.48-0.02,2.24c-0.11,0.75-0.37,1.49-0.72,2.18c-0.33,0.66-0.92,1.42-1.32,1.85
						c-1.2,1.16-2.58,1.88-4.11,2.12c-0.75,0.11-1.51,0.13-2.24,0.03c-0.73-0.12-1.42-0.32-2.06-0.62c-0.64-0.31-1.2-0.66-1.73-1.13
						c-0.28-0.23-0.46-0.44-0.66-0.66c-0.24-0.27-0.41-0.5-0.59-0.76c-0.68-1.04-1.06-2.14-1.2-3.17c-0.26-2.09,0.38-3.75,0.97-4.74
						c0.29-0.51,0.59-0.87,0.8-1.1C20.02,196.62,20.13,196.5,20.13,196.5z"/>
					<path style="fill:#FFE697;" d="M41.66,217.98c-1.92,1.46-3.91,2.83-5.88,4.2c-1.99,1.35-3.99,2.69-6.01,3.99l-0.75,0.49
						l-0.51-0.82c-1.11-1.78-2.16-3.6-3.24-5.39c-1.07-1.8-2.1-3.63-3.15-5.44l-0.61-1.05l1.11-0.54c2.1-1.03,4.22-2.01,6.34-3.02
						c2.13-0.97,4.25-1.96,6.4-2.9l0.84-0.37l0.38,0.76c0.84,1.71,1.69,3.41,2.5,5.14l0.29,0.62l-0.54,0.28
						c-2.66,1.38-5.34,2.71-8.07,3.94c2.42-1.78,4.89-3.47,7.39-5.11l-0.25,0.9c-1.01-1.62-1.97-3.26-2.94-4.9l1.22,0.39
						c-2.07,1.1-4.16,2.15-6.24,3.22c-2.1,1.03-4.19,2.09-6.3,3.1l0.5-1.59c1.01,1.84,2.05,3.66,3.04,5.51
						c0.98,1.85,2,3.69,2.95,5.56l-1.27-0.33c2.1-1.17,4.22-2.3,6.35-3.42C37.33,220.09,39.47,218.99,41.66,217.98z"/>
					<path style="fill:#FFE697;" d="M27.94,187.84c-2.23,0.93-4.49,1.76-6.75,2.6c-2.26,0.81-4.53,1.61-6.81,2.36l-0.85,0.28
						l-0.29-0.92c-0.63-2-1.19-4.02-1.79-6.03c-0.58-2.01-1.12-4.04-1.69-6.06l-0.33-1.17l1.21-0.25c2.29-0.47,4.59-0.89,6.89-1.34
						c2.3-0.41,4.61-0.83,6.92-1.21l0.91-0.15l0.17,0.83c0.39,1.86,0.78,3.73,1.13,5.6l0.13,0.68l-0.6,0.14
						c-2.92,0.67-5.85,1.28-8.8,1.8c2.79-1.12,5.6-2.13,8.43-3.1l-0.47,0.81c-0.57-1.82-1.09-3.65-1.62-5.48l1.08,0.69
						c-2.28,0.55-4.56,1.04-6.85,1.56c-2.29,0.47-4.58,0.97-6.88,1.42l0.88-1.42c0.52,2.03,1.07,4.06,1.57,6.09
						c0.49,2.04,1.01,4.07,1.46,6.12l-1.14-0.64c2.33-0.6,4.66-1.17,7-1.72C23.21,188.8,25.56,188.27,27.94,187.84z"/>
				</g>
				<g>
					<path style="fill:#FFE697;" d="M26.19,96.15c0,0,0.01-0.91,0.31-2.14c0.26-1.24,0.82-2.81,1.53-4.29
						c0.72-1.48,1.6-2.88,2.42-3.86c0.79-0.99,1.49-1.56,1.49-1.56s-0.01,0.91-0.3,2.14c-0.26,1.25-0.82,2.81-1.53,4.29
						c-0.72,1.48-1.61,2.88-2.42,3.86C26.9,95.58,26.19,96.15,26.19,96.15z"/>
					<path style="fill:#FFE697;" d="M34.58,79.11c0,0,0.14-0.84,0.6-1.92c0.43-1.1,1.19-2.43,2.09-3.66
						c0.9-1.22,1.95-2.34,2.88-3.08c0.9-0.76,1.66-1.14,1.66-1.14s-0.14,0.84-0.6,1.92c-0.43,1.1-1.19,2.43-2.09,3.66
						c-0.91,1.22-1.96,2.34-2.88,3.08C35.34,78.73,34.58,79.11,34.58,79.11z"/>
					<path style="fill:#FFE697;" d="M20.83,111.98c0,0-0.13-0.9-0.04-2.16c0.06-1.27,0.36-2.9,0.83-4.48
						c0.48-1.58,1.12-3.1,1.77-4.19c0.62-1.1,1.23-1.78,1.23-1.78s0.13,0.9,0.04,2.16c-0.06,1.27-0.36,2.9-0.83,4.48
						c-0.48,1.58-1.13,3.1-1.78,4.19C21.44,111.3,20.83,111.98,20.83,111.98z"/>
					<path style="fill:#FFE697;" d="M16.52,125.94c0,0-0.22-0.73-0.26-1.76c-0.07-1.03,0.06-2.36,0.36-3.65
						c0.31-1.29,0.79-2.53,1.32-3.42c0.5-0.9,1.03-1.45,1.03-1.45s0.22,0.73,0.26,1.76c0.07,1.04-0.06,2.36-0.37,3.65
						c-0.31,1.28-0.8,2.53-1.32,3.42C17.04,125.39,16.52,125.94,16.52,125.94z"/>
					<path style="fill:#FFE697;" d="M25.36,90.9c0,0-0.17,0.01-0.48,0.03s-0.77,0.08-1.33,0.25c-0.55,0.17-1.23,0.42-1.87,0.91
						c-0.64,0.48-1.31,1.12-1.78,1.97c-0.48,0.84-0.78,1.86-0.8,2.93c0,0.26,0.01,0.56,0.04,0.78c0.04,0.29,0.07,0.61,0.15,0.84
						c0.11,0.5,0.35,1.03,0.6,1.51c0.53,0.97,1.34,1.79,2.29,2.37c0.49,0.28,1,0.48,1.53,0.65c0.54,0.15,1.09,0.21,1.65,0.21
						c0.2-0.02,0.68-0.01,0.86-0.06c0.24-0.02,0.51-0.09,0.79-0.16c0.53-0.17,1.04-0.38,1.53-0.65c0.95-0.58,1.76-1.4,2.29-2.36
						c0.53-0.98,0.81-2.05,0.78-3.16c-0.02-1.02-0.32-2.07-0.8-2.91c-0.47-0.85-1.13-1.5-1.77-1.97c-0.64-0.49-1.32-0.75-1.87-0.91
						c-0.56-0.17-1.02-0.23-1.33-0.25C25.53,90.91,25.36,90.9,25.36,90.9z M25.36,90.9c0,0,0.17,0.01,0.48,0.02
						c0.31,0.01,0.77,0.06,1.34,0.21c1.12,0.29,2.75,1,4.04,2.66c0.63,0.84,1.15,1.85,1.4,3.11c0.23,1.16,0.18,2.58-0.3,3.89
						c-0.24,0.66-0.59,1.3-1.02,1.9c-0.45,0.59-0.99,1.11-1.6,1.56s-1.31,0.79-2.05,1.03c-0.37,0.1-0.74,0.21-1.17,0.27
						c-0.48,0.08-0.67,0.07-1.13,0.1c-1.55-0.04-3.12-0.49-4.35-1.41c-0.61-0.46-1.16-0.97-1.6-1.56c-0.42-0.6-0.78-1.23-1.02-1.9
						c-0.23-0.67-0.38-1.32-0.42-2.02c-0.04-0.36-0.01-0.64,0-0.94c0.02-0.36,0.07-0.64,0.12-0.96c0.25-1.21,0.77-2.27,1.4-3.09
						c1.29-1.66,2.92-2.38,4.04-2.66c0.57-0.15,1.03-0.19,1.34-0.21C25.2,90.9,25.36,90.9,25.36,90.9z"/>
					<path style="fill:#FFE697;" d="M25.36,121.31c-2.39-0.33-4.76-0.77-7.13-1.2c-2.36-0.45-4.72-0.92-7.07-1.43l-0.88-0.19
						l0.22-0.94c0.47-2.04,1.02-4.07,1.53-6.1c0.52-2.03,1.09-4.05,1.63-6.07l0.31-1.17l1.17,0.4c2.21,0.76,4.41,1.57,6.62,2.35
						c2.19,0.82,4.39,1.63,6.57,2.48l0.86,0.34l-0.28,0.81c-0.62,1.8-1.22,3.61-1.88,5.4l-0.24,0.65l-0.58-0.19
						c-2.85-0.91-5.69-1.87-8.49-2.93c2.97,0.46,5.91,1.01,8.84,1.62l-0.82,0.46c0.44-1.86,0.92-3.7,1.39-5.54l0.58,1.14
						c-2.24-0.69-4.46-1.42-6.69-2.14c-2.21-0.76-4.44-1.49-6.64-2.27l1.48-0.77c-0.58,2.01-1.15,4.03-1.75,6.04
						c-0.62,2-1.2,4.02-1.85,6.01l-0.66-1.13c2.31,0.66,4.61,1.37,6.9,2.08C20.8,119.73,23.1,120.46,25.36,121.31z"/>
					<path style="fill:#FFE697;" d="M37,90.31c-2.23-0.92-4.42-1.94-6.6-2.94c-2.17-1.03-4.34-2.08-6.49-3.16l-0.8-0.4l0.45-0.86
						c0.97-1.86,2.01-3.68,3.01-5.53c1.01-1.84,2.07-3.65,3.1-5.47l0.6-1.06l1.03,0.68c1.95,1.29,3.88,2.62,5.82,3.93
						c1.92,1.34,3.84,2.67,5.74,4.04l0.75,0.54l-0.47,0.71c-1.05,1.59-2.09,3.19-3.17,4.76l-0.39,0.57l-0.52-0.33
						c-2.53-1.59-5.04-3.23-7.49-4.96c2.76,1.18,5.47,2.46,8.15,3.78l-0.91,0.24c0.89-1.69,1.81-3.35,2.73-5.02l0.28,1.25
						c-2-1.23-3.96-2.49-5.94-3.75c-1.95-1.29-3.92-2.56-5.86-3.86l1.63-0.38c-1.07,1.8-2.12,3.62-3.2,5.41
						c-1.1,1.78-2.17,3.59-3.3,5.36L24.8,82.6c2.07,1.22,4.12,2.48,6.16,3.75C32.99,87.64,35.02,88.92,37,90.31z"/>
				</g>
				<g>
					<path style="fill:#FFE697;" d="M101.47,24.01c0,0,0.66-0.63,1.74-1.28c1.07-0.69,2.57-1.39,4.13-1.92s3.18-0.88,4.45-0.99
						c1.26-0.14,2.16-0.03,2.16-0.03s-0.66,0.63-1.74,1.29c-1.07,0.69-2.57,1.39-4.13,1.92c-1.56,0.52-3.18,0.88-4.45,0.98
						C102.38,24.12,101.47,24.01,101.47,24.01z"/>
					<path style="fill:#FFE697;" d="M119.5,18.03c0,0,0.7-0.49,1.79-0.92c1.09-0.47,2.57-0.86,4.07-1.08
						c1.51-0.21,3.04-0.25,4.21-0.11c1.17,0.11,1.98,0.38,1.98,0.38s-0.7,0.49-1.79,0.93c-1.09,0.47-2.57,0.86-4.08,1.08
						c-1.51,0.21-3.04,0.25-4.21,0.11C120.31,18.3,119.5,18.03,119.5,18.03z"/>
					<path style="fill:#FFE697;" d="M86.44,31.3c0,0,0.55-0.73,1.51-1.54c0.95-0.85,2.32-1.78,3.77-2.55c1.46-0.77,3-1.38,4.23-1.68
						c1.22-0.33,2.13-0.38,2.13-0.38s-0.55,0.73-1.51,1.55c-0.95,0.85-2.32,1.78-3.78,2.55c-1.46,0.77-3,1.37-4.23,1.68
						C87.35,31.26,86.44,31.3,86.44,31.3z"/>
					<path style="fill:#FFE697;" d="M73.46,38.02c0,0,0.37-0.67,1.07-1.42c0.69-0.77,1.73-1.62,2.85-2.3
						c1.13-0.68,2.36-1.21,3.36-1.46c0.99-0.28,1.76-0.29,1.76-0.29s-0.36,0.67-1.07,1.42c-0.69,0.78-1.73,1.61-2.86,2.3
						c-1.13,0.68-2.36,1.21-3.36,1.46C74.23,38.01,73.46,38.02,73.46,38.02z"/>
					<path style="fill:#FFE697;" d="M104.64,19.73c0,0-0.12-0.11-0.36-0.32s-0.6-0.49-1.11-0.77s-1.16-0.58-1.96-0.69
						c-0.79-0.12-1.71-0.15-2.65,0.12c-0.94,0.25-1.87,0.75-2.65,1.48c-0.18,0.18-0.39,0.4-0.53,0.58c-0.17,0.23-0.39,0.48-0.5,0.7
						c-0.28,0.43-0.49,0.97-0.66,1.49c-0.32,1.06-0.33,2.21-0.07,3.29c0.14,0.54,0.36,1.05,0.61,1.55c0.27,0.49,0.62,0.92,1.01,1.32
						c0.15,0.13,0.49,0.48,0.65,0.57c0.18,0.16,0.43,0.3,0.66,0.45c0.49,0.26,1,0.48,1.54,0.63c1.08,0.27,2.23,0.27,3.29-0.03
						c1.07-0.31,2.02-0.86,2.8-1.66c0.72-0.73,1.25-1.68,1.51-2.61c0.28-0.93,0.27-1.86,0.16-2.65c-0.1-0.8-0.39-1.46-0.66-1.97
						c-0.27-0.51-0.55-0.88-0.75-1.12C104.74,19.86,104.64,19.73,104.64,19.73z M104.64,19.73c0,0,0.11,0.12,0.33,0.35
						c0.21,0.23,0.5,0.59,0.79,1.1c0.58,1,1.22,2.66,0.94,4.75c-0.15,1.04-0.52,2.12-1.23,3.19c-0.67,0.98-1.71,1.94-2.98,2.52
						c-0.64,0.3-1.34,0.49-2.07,0.61c-0.73,0.1-1.49,0.07-2.24-0.04c-0.75-0.12-1.49-0.38-2.18-0.74c-0.34-0.19-0.67-0.38-1.01-0.64
						c-0.39-0.28-0.52-0.42-0.87-0.73c-1.06-1.13-1.84-2.57-2.05-4.09c-0.1-0.75-0.12-1.51-0.01-2.24c0.13-0.72,0.33-1.42,0.64-2.06
						s0.67-1.2,1.15-1.72c0.23-0.28,0.45-0.45,0.67-0.66c0.27-0.24,0.51-0.4,0.77-0.59c1.04-0.67,2.15-1.04,3.18-1.17
						c2.09-0.25,3.74,0.41,4.73,1.01c0.5,0.3,0.86,0.6,1.09,0.81C104.51,19.62,104.64,19.73,104.64,19.73z"/>
					<path style="fill:#FFE697;" d="M82.97,41.07c-1.44-1.94-2.79-3.93-4.15-5.92c-1.33-2-2.65-4.01-3.94-6.04l-0.48-0.76l0.82-0.51
						c1.79-1.1,3.61-2.13,5.42-3.2c1.81-1.05,3.65-2.07,5.47-3.1l1.06-0.6l0.53,1.11c1.01,2.11,1.98,4.24,2.97,6.36
						c0.95,2.14,1.92,4.27,2.85,6.42l0.36,0.85l-0.77,0.37c-1.72,0.83-3.43,1.66-5.16,2.45l-0.63,0.29l-0.28-0.55
						c-1.35-2.67-2.66-5.36-3.87-8.11c1.76,2.43,3.42,4.92,5.05,7.44l-0.9-0.26c1.63-0.99,3.28-1.94,4.92-2.9l-0.4,1.22
						c-1.08-2.08-2.12-4.18-3.17-6.27c-1.01-2.11-2.05-4.21-3.04-6.33l1.59,0.51c-1.84,1-3.68,2.01-5.53,2.99
						c-1.86,0.96-3.7,1.97-5.58,2.9l0.35-1.26c1.15,2.11,2.26,4.24,3.36,6.38C80.9,36.72,81.98,38.87,82.97,41.07z"/>
					<path style="fill:#FFE697;" d="M113.23,27.61c-0.91-2.24-1.72-4.5-2.54-6.77c-0.79-2.27-1.57-4.55-2.3-6.84l-0.27-0.85
						l0.92-0.28c2.01-0.62,4.03-1.16,6.05-1.74c2.02-0.57,4.05-1.09,6.07-1.63l1.17-0.32l0.24,1.21c0.45,2.3,0.85,4.6,1.28,6.9
						c0.39,2.31,0.79,4.61,1.15,6.93l0.14,0.91l-0.84,0.17c-1.87,0.37-3.73,0.75-5.61,1.08l-0.68,0.12l-0.13-0.6
						c-0.64-2.92-1.23-5.86-1.72-8.82c1.09,2.8,2.08,5.62,3.03,8.46l-0.81-0.48c1.82-0.55,3.66-1.06,5.49-1.57l-0.7,1.08
						c-0.53-2.28-1-4.57-1.5-6.86c-0.45-2.3-0.93-4.59-1.36-6.89l1.41,0.89c-2.04,0.5-4.06,1.03-6.1,1.52
						c-2.04,0.47-4.08,0.98-6.13,1.41l0.65-1.14c0.58,2.33,1.13,4.67,1.66,7.02C112.31,22.88,112.82,25.23,113.23,27.61z"/>
				</g>
				<path style="fill:#FFE697;" d="M251.64,58c0,0,0.73,0.41,1.57,1.19c0.87,0.76,1.83,1.91,2.65,3.15
					c0.81,1.24,1.47,2.59,1.82,3.69c0.38,1.08,0.46,1.92,0.46,1.92s-0.73-0.41-1.57-1.19c-0.87-0.76-1.83-1.91-2.64-3.15
					c-0.81-1.25-1.47-2.59-1.82-3.69C251.72,58.83,251.64,58,251.64,58z"/>
				<path style="fill:#FFE697;" d="M287.46,156.83c0,0,0.28,0.79,0.39,1.93c0.15,1.15,0.12,2.64-0.09,4.11s-0.6,2.91-1.06,3.97
					c-0.43,1.06-0.92,1.74-0.92,1.74s-0.28-0.79-0.39-1.93c-0.15-1.15-0.12-2.64,0.09-4.11s0.6-2.91,1.06-3.97
					C286.97,157.51,287.46,156.83,287.46,156.83z"/>
				<path style="fill:#FFE697;" d="M242.94,252.56c0,0-0.45,0.8-1.3,1.77c-0.83,0.99-2.08,2.12-3.43,3.11
					c-1.35,0.99-2.81,1.83-4.01,2.32c-1.18,0.52-2.08,0.7-2.08,0.7s0.45-0.81,1.3-1.77c0.83-0.99,2.08-2.12,3.43-3.11
					c1.36-0.98,2.82-1.82,4.01-2.32C242.04,252.74,242.94,252.56,242.94,252.56z"/>
				<path style="fill:#FFE697;" d="M40.77,232.18c0,0,0.77,0.48,1.68,1.37c0.93,0.87,1.99,2.15,2.89,3.53
					c0.9,1.38,1.65,2.86,2.07,4.07c0.45,1.19,0.57,2.09,0.57,2.09s-0.78-0.48-1.68-1.37c-0.93-0.87-1.99-2.15-2.89-3.53
					c-0.9-1.38-1.65-2.87-2.07-4.07C40.9,233.08,40.77,232.18,40.77,232.18z"/>
				<path style="fill:#FFE697;" d="M14.27,130.53c0,0,0.26,0.9,0.34,2.21c0.11,1.31,0.04,3.03-0.2,4.71
					c-0.25,1.69-0.68,3.35-1.18,4.57c-0.46,1.23-0.97,2.01-0.97,2.01s-0.26-0.9-0.34-2.21c-0.12-1.31-0.04-3.03,0.21-4.71
					c0.26-1.69,0.69-3.35,1.18-4.57C13.76,131.32,14.27,130.53,14.27,130.53z"/>
				<path style="fill:#FFE697;" d="M67.97,40.41c0,0-0.45,0.82-1.31,1.81c-0.84,1.02-2.09,2.2-3.45,3.23
					c-1.36,1.03-2.84,1.92-4.04,2.45c-1.19,0.56-2.1,0.76-2.1,0.76s0.45-0.82,1.3-1.82c0.84-1.02,2.09-2.19,3.45-3.23
					c1.37-1.03,2.84-1.91,4.05-2.44C67.05,40.62,67.97,40.41,67.97,40.41z"/>
			</g>
			<g>
				<circle style="fill:#FFE697;" cx="150" cy="165.04" r="9.03"/>
				<g>
					<polygon style="fill:#FFE697;" points="111.69,171.17 111.65,171.14 143.23,132.08 129.23,117.28 103.08,162.57 85.77,145.25 
						64.35,145.25 95.24,176.14 64.35,229.65 102.08,182.98 102.11,183.01 					"/>
					<polygon style="fill:#FFE697;" points="235.65,145.25 214.23,145.25 196.92,162.57 164.28,106.04 182.12,83.98 162.6,59.47 
						137.4,59.47 117.88,84.11 148.38,84.11 135.72,106.04 156.52,131.77 235.65,229.65 204.76,176.14 					"/>
					<polygon style="fill:#FFE697;" points="150,209.49 115.6,175.09 105.2,186.1 150,230.9 194.59,186.3 184.18,175.31 					"/>
				</g>
			</g>
		</g>
	</g>
	<g>
		<path style="fill:#FFE697;" d="M249.24,40.36h26.92v32.46c0.79,1.28,1.56,2.58,2.3,3.89V38.06h-31.83
			C247.52,38.82,248.38,39.59,249.24,40.36z"/>
		<path style="fill:#FFE697;" d="M23.83,72.82V40.36h26.92c0.86-0.78,1.73-1.55,2.6-2.3H21.53v38.65
			C22.28,75.4,23.05,74.11,23.83,72.82z"/>
		<path style="fill:#FFE697;" d="M276.17,227.18v65.52h-87.24c-3.21,0.87-6.46,1.65-9.75,2.3h99.3v-71.71
			C277.72,224.6,276.95,225.89,276.17,227.18z"/>
		<path style="fill:#FFE697;" d="M111.07,292.7H23.83v-65.52c-0.79-1.28-1.56-2.58-2.3-3.89V295h99.3
			C117.53,294.34,114.28,293.57,111.07,292.7z"/>
	</g>
</g>
</svg>
