<?xml version="1.0" encoding="iso-8859-1"?>
<!-- Generator: Adobe Illustrator 22.1.0, SVG Export Plug-In . SVG Version: 6.00 Build 0)  -->
<svg version="1.1" id="Layer_1" xmlns="http://www.w3.org/2000/svg" xmlns:xlink="http://www.w3.org/1999/xlink" x="0px" y="0px"
	 viewBox="0 0 300 300" style="enable-background:new 0 0 300 300;" xml:space="preserve">
<g>
	<g>
		<g>
			<path d="M37.33,221.45l-1.45,0.19c-0.34,0.04-0.69,0.09-1.03,0.13c-0.32,0.09-0.6,0.27-0.84,0.55c-0.15,0.19-0.25,0.38-0.31,0.55
				c-0.05,0.17-0.08,0.42-0.08,0.74c0,0.24,0,0.41,0,0.52v9.44l-3.26,1.07c-1.1,0.37-2.25,0.64-3.45,0.81
				c-1.2,0.17-2.4,0.26-3.58,0.26c-2.15,0-4.14-0.22-5.97-0.66s-3.26-1.02-4.29-1.73c-2.49-1.68-4.3-3.55-5.4-5.62
				C6.55,225.63,6,223.14,6,220.23c0-4.59,1.66-8.5,4.99-11.75c3.33-3.25,7.3-4.88,11.92-4.88c1.72,0,3.25,0.11,4.61,0.32
				c1.35,0.22,2.6,0.52,3.74,0.9l1,0.32c0.32,0.13,0.5,0.2,0.55,0.23c0.17,0.11,0.32,0.25,0.45,0.42c0.13,0.17,0.22,0.35,0.27,0.53
				c0.05,0.18,0.08,0.4,0.08,0.66v5.45h-1.13l-0.29-1.55c-0.34-1.87-1.28-3.31-2.8-4.31c-1.52-1-3.39-1.5-5.61-1.5
				c-4.34,0-7.6,1.41-9.79,4.23c-1.89,2.43-2.83,5.66-2.83,9.69c0,4.61,0.89,8.18,2.68,10.72c2.06,2.93,5.25,4.39,9.55,4.39
				c1.48,0,2.63-0.14,3.44-0.42c0.81-0.28,1.41-0.75,1.82-1.42c0.24-0.37,0.41-0.93,0.52-1.7c0.11-0.77,0.16-1.58,0.16-2.44v-3.39
				c0-0.28,0-0.5,0-0.65c0-0.35-0.03-0.64-0.08-0.89c-0.05-0.25-0.17-0.5-0.34-0.76c-0.24-0.32-0.66-0.54-1.26-0.65
				c-0.8-0.09-1.4-0.15-1.81-0.19l-1.23-0.1v-1.13h12.71V221.45z"/>
			<path d="M66.91,235.15h-3.94c-0.39,0-0.77-0.04-1.15-0.13c-0.38-0.09-0.69-0.21-0.95-0.37c-0.26-0.16-0.48-0.41-0.68-0.76
				l-7.28-12.49h-4.17v10.35c0,0.37,0.04,0.67,0.11,0.91c0.08,0.24,0.23,0.46,0.47,0.68c0.56,0.47,1.31,0.71,2.26,0.71h0.84v1.1
				H40.62v-1.1l1.48-0.19c0.75-0.09,1.2-0.16,1.35-0.23c0.15-0.07,0.32-0.21,0.5-0.44c0.18-0.23,0.31-0.46,0.37-0.71
				c0.06-0.25,0.1-0.51,0.1-0.79v-24.28c0-0.45-0.12-0.84-0.36-1.16c-0.24-0.32-0.53-0.55-0.89-0.68c-0.36-0.13-0.77-0.19-1.24-0.19
				h-1.32v-1.19h11.42c2.02,0,3.55,0.11,4.58,0.32c1.61,0.35,2.89,1.04,3.84,2.1c1.31,1.53,1.97,3.31,1.97,5.35
				c0,1.29-0.27,2.54-0.82,3.76c-0.55,1.22-1.34,2.28-2.37,3.21c-0.39,0.34-0.78,0.64-1.18,0.89c-0.4,0.25-0.82,0.47-1.27,0.66
				l-0.55,0.26l6.54,9.65c0.45,0.67,0.83,1.19,1.14,1.56c0.31,0.38,0.73,0.81,1.24,1.31c0.3,0.28,0.59,0.52,0.85,0.73
				c0.27,0.2,0.56,0.41,0.89,0.63V235.15z M56.43,207.12c-0.52-0.6-1.08-1-1.68-1.21c-0.6-0.2-1.37-0.31-2.29-0.31h-3.68
				l-0.03,14.49h2.32c1.12,0,1.98-0.05,2.6-0.16s1.26-0.41,1.95-0.9c0.82-0.58,1.43-1.44,1.84-2.56c0.41-1.13,0.61-2.36,0.61-3.69
				c0-1.14-0.14-2.22-0.44-3.23C57.34,208.53,56.94,207.72,56.43,207.12z"/>
			<path d="M99.43,235.15H89.14v-1.1h0.58c0.62,0,1.18-0.22,1.68-0.65c0.3-0.24,0.45-0.66,0.45-1.26c0-0.17,0-0.34,0-0.52
				c-0.06-0.17-0.1-0.29-0.12-0.35l-2.13-6.42H78.33l-2.02,5.71c-0.16,0.37-0.23,0.77-0.23,1.23c0,0.67,0.18,1.18,0.55,1.55
				c0.54,0.47,1.12,0.71,1.74,0.71v1.1h-8.13v-1.04l0.39-0.06c0.65-0.09,1.2-0.32,1.66-0.71c0.46-0.38,0.83-0.82,1.11-1.31
				c0.28-0.49,0.55-1.1,0.81-1.82l10.03-26.52h2.58l9.58,27.97c0.26,0.82,0.7,1.44,1.32,1.87c0.24,0.17,0.46,0.3,0.66,0.39
				c0.2,0.09,0.44,0.13,0.69,0.13h0.36V235.15z M89.05,223.25l-4.59-14.58l-5.59,14.58H89.05z"/>
			<path d="M136.56,205.38h-0.65c-1.14,0-2.04,0.41-2.71,1.23c-0.3,0.39-0.49,0.76-0.56,1.13c-0.08,0.37-0.11,0.86-0.11,1.48v25.94
				h-1.45l-21.58-25.74v20.78c0,0.5,0.03,0.88,0.08,1.16c0.05,0.28,0.19,0.6,0.4,0.97c0.34,0.6,0.84,1.04,1.5,1.32
				c0.66,0.28,1.32,0.42,1.98,0.42h0.9v1.1h-10.81v-1.1h0.65c1.16,0,2.09-0.45,2.77-1.35c0.3-0.37,0.49-0.73,0.56-1.1
				c0.08-0.36,0.11-0.87,0.11-1.52v-21.71c-0.52-0.88-1.24-1.6-2.16-2.16c-0.93-0.56-1.94-0.84-3.03-0.84v-1.19l7.97,0.02
				l20.22,24.07v-19.12c0-0.41-0.02-0.77-0.05-1.07c-0.03-0.3-0.19-0.67-0.47-1.1c-0.37-0.54-0.83-0.94-1.4-1.21
				c-0.57-0.27-1.2-0.4-1.89-0.4h-1.1v-1.19h10.81V205.38z"/>
			<path d="M174.31,227.19l-1.32,7.97h-21.71v-1.1l1.48-0.19c0.45-0.07,0.82-0.14,1.11-0.23c0.29-0.09,0.54-0.24,0.74-0.45
				c0.2-0.22,0.33-0.58,0.39-1.08c0.05-0.51,0.08-1.04,0.08-1.6V207.5c0-0.24-0.02-0.45-0.06-0.63c-0.04-0.18-0.14-0.37-0.29-0.56
				c-0.22-0.28-0.51-0.49-0.87-0.63c-0.37-0.14-0.79-0.21-1.26-0.21l-1.32-0.1v-1.19h11.87v1.19l-1.61,0.1
				c-0.41,0-0.76,0.06-1.06,0.18c-0.3,0.12-0.53,0.3-0.69,0.53c-0.16,0.24-0.26,0.47-0.31,0.69c-0.04,0.23-0.07,0.46-0.07,0.69
				v22.74c0,0.69,0.04,1.2,0.11,1.53c0.08,0.33,0.27,0.66,0.6,0.98c0.58,0.56,1.52,0.84,2.81,0.84h3.07c0.88,0,1.61-0.06,2.19-0.18
				c0.58-0.12,1.18-0.38,1.79-0.79c0.61-0.41,1.18-1.04,1.69-1.9c0.34-0.58,0.63-1.16,0.87-1.74l0.68-1.9L174.31,227.19z"/>
			<path d="M210.18,219.35c0,4.39-1.6,8.24-4.81,11.55c-3.2,3.31-6.98,4.97-11.32,4.97c-4.06,0-7.61-1.4-10.65-4.19
				c-3.25-3.01-4.87-6.82-4.87-11.42c0-4.56,1.66-8.5,4.97-11.81c3.16-3.16,6.79-4.74,10.87-4.74c4.52,0,8.25,1.39,11.2,4.16
				C208.65,210.76,210.18,214.59,210.18,219.35z M205.15,219.15c0-3.55-0.91-6.67-2.74-9.36c-2.11-3.12-4.93-4.68-8.45-4.68
				c-3.36,0-5.95,1.4-7.77,4.19c-1.7,2.6-2.55,6.05-2.55,10.36c0,3.74,1.01,7.06,3.03,9.97c2.13,3.05,4.7,4.58,7.71,4.58
				c3.66,0,6.4-1.39,8.23-4.16C204.3,227.48,205.15,223.84,205.15,219.15z"/>
			<path d="M245.45,221.45l-1.45,0.19c-0.34,0.04-0.69,0.09-1.03,0.13c-0.32,0.09-0.6,0.27-0.84,0.55
				c-0.15,0.19-0.25,0.38-0.31,0.55c-0.05,0.17-0.08,0.42-0.08,0.74c0,0.24,0,0.41,0,0.52v9.44l-3.26,1.07
				c-1.1,0.37-2.25,0.64-3.45,0.81c-1.2,0.17-2.4,0.26-3.58,0.26c-2.15,0-4.14-0.22-5.97-0.66c-1.83-0.44-3.26-1.02-4.29-1.73
				c-2.5-1.68-4.3-3.55-5.4-5.62c-1.11-2.07-1.66-4.55-1.66-7.46c0-4.59,1.66-8.5,4.99-11.75c3.33-3.25,7.3-4.88,11.92-4.88
				c1.72,0,3.25,0.11,4.61,0.32c1.35,0.22,2.6,0.52,3.74,0.9l1,0.32c0.32,0.13,0.51,0.2,0.55,0.23c0.17,0.11,0.32,0.25,0.45,0.42
				c0.13,0.17,0.22,0.35,0.27,0.53c0.05,0.18,0.08,0.4,0.08,0.66v5.45h-1.13l-0.29-1.55c-0.34-1.87-1.28-3.31-2.8-4.31
				c-1.52-1-3.39-1.5-5.6-1.5c-4.34,0-7.6,1.41-9.79,4.23c-1.89,2.43-2.84,5.66-2.84,9.69c0,4.61,0.89,8.18,2.68,10.72
				c2.06,2.93,5.25,4.39,9.55,4.39c1.48,0,2.63-0.14,3.44-0.42c0.81-0.28,1.41-0.75,1.82-1.42c0.24-0.37,0.41-0.93,0.52-1.7
				c0.11-0.77,0.16-1.58,0.16-2.44v-3.39c0-0.28,0-0.5,0-0.65c0-0.35-0.03-0.64-0.08-0.89c-0.05-0.25-0.17-0.5-0.34-0.76
				c-0.24-0.32-0.66-0.54-1.26-0.65c-0.8-0.09-1.4-0.15-1.81-0.19l-1.23-0.1v-1.13h12.71V221.45z"/>
			<path d="M261.19,235.15h-11.87v-1.1l1.52-0.19c0.56-0.07,0.96-0.13,1.19-0.19c0.24-0.06,0.48-0.26,0.73-0.58
				c0.25-0.32,0.37-0.78,0.37-1.39v-24.2c0-0.24-0.02-0.45-0.07-0.63c-0.04-0.18-0.14-0.37-0.29-0.56
				c-0.22-0.28-0.51-0.49-0.87-0.63c-0.37-0.14-0.79-0.21-1.26-0.21l-1.32-0.1v-1.19h11.87v1.19l-1.61,0.1
				c-0.43,0-0.79,0.06-1.06,0.18c-0.28,0.12-0.53,0.33-0.74,0.63c-0.13,0.17-0.21,0.37-0.26,0.6c-0.04,0.23-0.06,0.46-0.06,0.69
				v24.16c0,0.39,0.04,0.69,0.11,0.92c0.08,0.23,0.24,0.45,0.5,0.66c0.26,0.22,0.6,0.36,1.02,0.42c0.42,0.06,0.83,0.12,1.24,0.16
				l0.87,0.16V235.15z"/>
			<path d="M294,235.15h-10.29v-1.1h0.58c0.62,0,1.18-0.22,1.68-0.65c0.3-0.24,0.45-0.66,0.45-1.26c0-0.17,0-0.34,0-0.52
				c-0.06-0.17-0.1-0.29-0.12-0.35l-2.13-6.42H272.9l-2.02,5.71c-0.16,0.37-0.23,0.77-0.23,1.23c0,0.67,0.18,1.18,0.55,1.55
				c0.54,0.47,1.12,0.71,1.74,0.71v1.1h-8.13v-1.04l0.39-0.06c0.65-0.09,1.2-0.32,1.66-0.71c0.46-0.38,0.83-0.82,1.11-1.31
				c0.28-0.49,0.55-1.1,0.81-1.82l10.03-26.52h2.58l9.58,27.97c0.26,0.82,0.7,1.44,1.32,1.87c0.24,0.17,0.46,0.3,0.66,0.39
				c0.2,0.09,0.44,0.13,0.69,0.13H294V235.15z M283.62,223.25l-4.59-14.58l-5.59,14.58H283.62z"/>
		</g>
		<g>
			<path d="M60.71,254.88c0,4.28-1.3,7.53-3.9,9.76c-2.3,1.97-5.31,2.95-9.04,2.95h-9.61v-0.81l1.19-0.12c0.56,0,1-0.19,1.33-0.57
				c0.17-0.21,0.28-0.41,0.32-0.61s0.06-0.48,0.06-0.85v-17.5c0-0.33-0.09-0.62-0.26-0.86c-0.17-0.24-0.39-0.41-0.65-0.5
				c-0.26-0.09-0.57-0.14-0.92-0.14h-0.98v-0.88h9.54c2.49,0,4.54,0.23,6.16,0.69c2.11,0.6,3.72,1.59,4.83,2.97
				C60.07,250.01,60.71,252.16,60.71,254.88z M52.48,246.74c-0.95-0.43-1.85-0.7-2.69-0.81c-0.84-0.11-1.94-0.17-3.28-0.17h-2.33
				v17.42c0,0.84,0.06,1.45,0.17,1.82c0.11,0.37,0.32,0.69,0.62,0.94c0.46,0.36,1.11,0.55,1.95,0.55h1.9c0.52,0,0.99-0.04,1.4-0.13
				c0.41-0.09,0.9-0.23,1.47-0.42c1.73-0.59,3.08-1.84,4.04-3.76c0.89-1.76,1.33-3.78,1.33-6.07c0-2.11-0.39-4.01-1.17-5.71
				C55.08,248.59,53.94,247.37,52.48,246.74z"/>
			<path d="M80.67,261.73l-1,5.85h-16.2v-0.81l1.09-0.17c0.35-0.05,0.62-0.1,0.81-0.17c0.19-0.06,0.37-0.19,0.53-0.39
				c0.17-0.2,0.27-0.41,0.31-0.62c0.04-0.21,0.06-0.5,0.06-0.85v-17.43c0-0.33-0.08-0.62-0.25-0.87s-0.39-0.42-0.67-0.51
				c-0.28-0.09-0.58-0.14-0.92-0.14h-0.98v-0.88h14.85V250h-0.81l-0.26-1.26c-0.16-0.59-0.28-0.99-0.36-1.21
				c-0.16-0.4-0.39-0.73-0.7-1c-0.31-0.27-0.63-0.46-0.96-0.57c-0.33-0.11-0.72-0.17-1.17-0.17h-4.62v9.33h2.95
				c0.19,0,0.39,0,0.59,0c0.71-0.05,1.24-0.22,1.57-0.52c0.25-0.22,0.44-0.47,0.56-0.75c0.12-0.28,0.2-0.62,0.25-1.03l0.05-0.55
				h0.83v6.9h-0.86l-0.05-0.62c-0.03-0.38-0.1-0.69-0.21-0.94c-0.11-0.25-0.29-0.49-0.52-0.73c-0.24-0.24-0.55-0.42-0.93-0.54
				c-0.38-0.12-0.85-0.18-1.4-0.18h-2.83v7.04c0,0.81,0.02,1.3,0.05,1.48c0.1,0.49,0.35,0.91,0.75,1.25s1.04,0.51,1.92,0.51h3
				c0.51,0,0.92-0.04,1.24-0.12c0.32-0.08,0.7-0.26,1.14-0.55c0.44-0.28,0.85-0.74,1.21-1.36c0.22-0.38,0.42-0.82,0.59-1.31
				l0.52-1.4L80.67,261.73z"/>
			<path d="M113.15,261.8l-1.14,4.78c-1.06,0.46-2.28,0.81-3.65,1.05s-2.61,0.36-3.7,0.36c-3.97,0-7.07-1.07-9.33-3.21
				c-2.14-2.03-3.21-4.72-3.21-8.05c0-3.48,1.2-6.4,3.6-8.78c2.4-2.37,5.38-3.56,8.93-3.56c1.33,0,2.51,0.09,3.55,0.26
				c1.63,0.27,2.95,0.75,3.95,1.43v4.88h-0.83l-0.21-1.17c-0.25-1.36-0.96-2.42-2.13-3.16c-1.17-0.74-2.61-1.12-4.32-1.12
				c-3.08,0-5.37,1.19-6.88,3.57c-1.24,1.95-1.86,4.5-1.86,7.65c0,2.95,0.72,5.34,2.16,7.15c1.62,2.03,3.98,3.05,7.09,3.05
				c1.03,0,1.94-0.15,2.74-0.44c0.79-0.29,1.56-0.75,2.31-1.37c0.41-0.35,0.74-0.7,0.99-1.04s0.48-0.79,0.7-1.35l0.38-0.91H113.15z"
				/>
			<path d="M139.23,255.92c0,3.24-1.18,6.07-3.54,8.52c-2.36,2.44-5.15,3.66-8.35,3.66c-3,0-5.62-1.03-7.85-3.09
				c-2.4-2.22-3.59-5.03-3.59-8.42c0-3.36,1.22-6.26,3.66-8.71c2.33-2.33,5-3.5,8.02-3.5c3.33,0,6.08,1.02,8.26,3.07
				C138.09,249.59,139.23,252.42,139.23,255.92z M135.52,255.78c0-2.62-0.67-4.92-2.02-6.9c-1.56-2.3-3.63-3.45-6.23-3.45
				c-2.47,0-4.39,1.03-5.73,3.09c-1.25,1.92-1.88,4.46-1.88,7.64c0,2.76,0.75,5.21,2.24,7.35c1.57,2.25,3.47,3.38,5.69,3.38
				c2.7,0,4.72-1.02,6.07-3.07C134.89,261.92,135.52,259.24,135.52,255.78z"/>
			<path d="M158.81,261.7l-0.98,5.88h-16.01v-0.81l1.09-0.14c0.33-0.05,0.61-0.1,0.82-0.17c0.21-0.06,0.4-0.18,0.55-0.33
				c0.15-0.16,0.25-0.42,0.29-0.8c0.04-0.37,0.06-0.76,0.06-1.18v-16.97c0-0.17-0.02-0.33-0.05-0.46c-0.03-0.13-0.1-0.27-0.21-0.42
				c-0.16-0.21-0.37-0.36-0.64-0.46c-0.27-0.1-0.58-0.15-0.93-0.15l-0.98-0.07v-0.88h8.76v0.88l-1.19,0.07
				c-0.3,0-0.56,0.04-0.79,0.13c-0.22,0.09-0.39,0.22-0.51,0.39c-0.12,0.18-0.19,0.35-0.23,0.51c-0.03,0.17-0.05,0.34-0.05,0.51
				v16.77c0,0.51,0.03,0.88,0.08,1.13c0.06,0.25,0.2,0.49,0.44,0.73c0.43,0.41,1.12,0.62,2.07,0.62h2.26c0.65,0,1.19-0.04,1.62-0.13
				c0.43-0.09,0.87-0.28,1.32-0.58c0.45-0.3,0.87-0.77,1.25-1.4c0.25-0.43,0.47-0.86,0.64-1.28l0.5-1.4L158.81,261.7z"/>
			<path d="M185.27,255.92c0,3.24-1.18,6.07-3.55,8.52c-2.36,2.44-5.15,3.66-8.35,3.66c-3,0-5.61-1.03-7.85-3.09
				c-2.4-2.22-3.59-5.03-3.59-8.42c0-3.36,1.22-6.26,3.66-8.71c2.33-2.33,5-3.5,8.02-3.5c3.33,0,6.08,1.02,8.26,3.07
				C184.13,249.59,185.27,252.42,185.27,255.92z M181.56,255.78c0-2.62-0.67-4.92-2.02-6.9c-1.55-2.3-3.63-3.45-6.23-3.45
				c-2.47,0-4.39,1.03-5.73,3.09c-1.25,1.92-1.88,4.46-1.88,7.64c0,2.76,0.75,5.21,2.24,7.35c1.57,2.25,3.47,3.38,5.69,3.38
				c2.7,0,4.72-1.02,6.07-3.07C180.93,261.92,181.56,259.24,181.56,255.78z"/>
			<path d="M217.32,245.57h-0.62c-0.38,0-0.75,0.09-1.09,0.27s-0.62,0.4-0.81,0.66c-0.29,0.38-0.47,0.8-0.56,1.24
				c-0.09,0.44-0.13,0.97-0.13,1.57c0,0.21,0,0.36,0,0.48v15.24c0,0.27,0.02,0.47,0.06,0.61c0.04,0.14,0.14,0.3,0.3,0.5
				c0.16,0.2,0.36,0.32,0.61,0.37c0.25,0.05,0.5,0.09,0.75,0.12l1.09,0.14v0.81h-8.73v-0.81h0.62c0.68,0,1.24-0.18,1.67-0.55
				c0.29-0.25,0.43-0.64,0.43-1.17v-15.07l-9.25,17.69l-0.5,0.01l-8.59-17.85l0.02,14.09c0,0.21,0,0.44,0.01,0.7
				c0.01,0.26,0.1,0.55,0.27,0.87c0.48,0.86,1.27,1.28,2.38,1.28h0.33v0.81h-7.42v-0.81h0.48c0.86,0,1.54-0.33,2.05-1
				c0.22-0.27,0.36-0.54,0.42-0.81c0.06-0.27,0.08-0.63,0.08-1.09v-15.7c-0.35-0.76-0.87-1.36-1.55-1.81
				c-0.4-0.27-0.76-0.47-1.08-0.6c-0.33-0.13-0.69-0.19-1.08-0.19v-0.83h6.02l8.83,18.34l9.52-18.34h5.5V245.57z"/>
			<path d="M237.13,260.78c0,2.21-0.79,3.92-2.38,5.14c-1.43,1.11-3.23,1.67-5.4,1.67h-9.61v-0.81l1.19-0.12
				c0.36-0.05,0.63-0.1,0.8-0.17c0.17-0.06,0.35-0.21,0.54-0.43c0.14-0.16,0.24-0.35,0.3-0.58c0.06-0.23,0.08-0.51,0.08-0.85v-17.5
				c0-0.33-0.09-0.62-0.26-0.86c-0.18-0.24-0.39-0.41-0.65-0.5c-0.26-0.09-0.57-0.14-0.92-0.14h-0.98v-0.88h9.54
				c1.67,0,3.02,0.3,4.07,0.9c1.25,0.73,1.97,1.85,2.16,3.35c0.02,0.16,0.03,0.3,0.04,0.42c0.01,0.12,0.01,0.22,0.01,0.3
				c0,1.17-0.36,2.21-1.08,3.12c-0.72,0.9-1.69,1.6-2.89,2.09l-0.71,0.31l1.02,0.21c1.57,0.32,2.78,0.86,3.62,1.62
				C236.63,257.99,237.13,259.22,237.13,260.78z M231.28,246.95c-0.43-0.44-0.89-0.75-1.39-0.92c-0.5-0.17-1.1-0.25-1.8-0.25h-2.33
				v9.42h2.14c0.48,0,0.97-0.07,1.49-0.21c0.52-0.14,0.99-0.37,1.44-0.69c0.52-0.38,0.92-0.9,1.19-1.57c0.27-0.67,0.4-1.39,0.4-2.17
				c0-0.75-0.1-1.44-0.31-2.08C231.91,247.85,231.63,247.33,231.28,246.95z M231.85,257.45c-0.41-0.4-0.96-0.7-1.64-0.92
				c-0.68-0.21-1.21-0.32-1.59-0.32h-2.83l-0.02,7.04c0,0.81,0.02,1.3,0.05,1.48c0.1,0.48,0.33,0.88,0.69,1.21
				c0.24,0.19,0.52,0.33,0.85,0.4s0.7,0.12,1.11,0.12h1.39c1.07,0,1.93-0.49,2.59-1.48c0.65-0.98,0.98-2.13,0.98-3.45
				c0-0.78-0.13-1.53-0.39-2.25C232.77,258.57,232.38,257.95,231.85,257.45z"/>
			<path d="M249.01,267.58h-8.76v-0.81l1.12-0.14c0.41-0.05,0.71-0.1,0.88-0.14c0.18-0.05,0.35-0.19,0.54-0.43
				c0.18-0.24,0.27-0.58,0.27-1.02v-17.85c0-0.17-0.02-0.33-0.05-0.46c-0.03-0.13-0.1-0.27-0.21-0.42
				c-0.16-0.21-0.37-0.36-0.64-0.46c-0.27-0.1-0.58-0.15-0.93-0.15l-0.98-0.07v-0.88h8.76v0.88l-1.19,0.07
				c-0.32,0-0.58,0.04-0.79,0.13c-0.21,0.09-0.39,0.24-0.55,0.46c-0.09,0.13-0.16,0.27-0.19,0.44c-0.03,0.17-0.05,0.34-0.05,0.51
				v17.82c0,0.28,0.03,0.51,0.08,0.68c0.06,0.17,0.18,0.33,0.37,0.49c0.19,0.16,0.44,0.26,0.75,0.31c0.31,0.05,0.61,0.09,0.92,0.12
				l0.64,0.12V267.58z"/>
			<path d="M273.21,267.58h-7.59v-0.81h0.43c0.46,0,0.87-0.16,1.24-0.48c0.22-0.17,0.33-0.48,0.33-0.93c0-0.13,0-0.25,0-0.38
				c-0.04-0.13-0.07-0.21-0.09-0.26l-1.57-4.73h-8.31l-1.49,4.21c-0.11,0.27-0.17,0.57-0.17,0.9c0,0.49,0.13,0.87,0.4,1.14
				c0.4,0.35,0.82,0.52,1.29,0.52v0.81h-6v-0.76l0.29-0.04c0.48-0.06,0.88-0.24,1.23-0.52c0.34-0.28,0.61-0.61,0.82-0.97
				c0.21-0.36,0.4-0.81,0.59-1.34l7.4-19.56h1.9l7.07,20.63c0.19,0.6,0.52,1.06,0.98,1.38c0.17,0.13,0.34,0.22,0.49,0.29
				c0.15,0.06,0.32,0.09,0.51,0.09h0.26V267.58z M265.55,258.8l-3.38-10.76l-4.12,10.76H265.55z"/>
		</g>
		<g>
			<g>
				<g>
					<path d="M93.04,286.06h-4.39l-1.5,4.28h-1.31L90.39,278h1.4l4.23,12.34h-1.52L93.04,286.06z M92.76,285.18
						c-1.28-3.84-1.5-4.63-1.85-5.7c-0.33,0.98-0.56,1.69-1.96,5.7H92.76z"/>
					<path d="M99.17,286.37c0,1.07,0.03,1.78,0.16,2.22c0.19,0.7,0.75,1.07,1.62,1.07c0.72,0,1.56-0.26,2.08-0.87
						c0.38-0.42,0.4-0.7,0.4-1.83v-5.42h1.29v5.84c0,1.03,0.05,2.06,0.17,2.97h-1.31c-0.05-0.26-0.12-0.68-0.14-1.01
						c-0.93,1.1-2.17,1.24-2.95,1.24c-1.22,0-2.17-0.42-2.48-1.78c-0.1-0.44-0.16-1.24-0.16-2.04v-5.21h1.31V286.37z"/>
					<path d="M111.31,290.53c-2.11,0-3.48-1.52-3.48-4.47c0-3.81,2.18-4.72,3.76-4.72c1.03,0,1.83,0.24,2.46,0.8v-4.84h1.29v10.97
						c0,0.66,0.07,1.48,0.16,2.06h-1.26c-0.05-0.26-0.12-0.87-0.16-1.15C113.37,290.02,112.59,290.53,111.31,290.53z M113.62,282.81
						c-0.47-0.51-1.15-0.66-1.89-0.66c-1.38,0-2.53,1.14-2.53,3.9c0,2.55,0.96,3.67,2.38,3.67c0.87,0,1.4-0.28,1.76-0.68
						c0.52-0.56,0.73-1.17,0.73-3.18C114.07,283.94,114,283.24,113.62,282.81z"/>
					<path d="M119.57,279.68c-0.54,0-0.8-0.19-0.8-0.87c0-0.65,0.28-0.87,0.84-0.87c0.54,0,0.79,0.21,0.79,0.87
						C120.39,279.45,120.13,279.68,119.57,279.68z M118.92,290.34v-8.81h1.33v8.81H118.92z"/>
					<path d="M143.51,290.34L139.29,278h1.57c2.69,8.19,2.94,9.02,3.48,10.8c0.56-1.77,0.93-2.81,3.58-10.8h1.42l-4.44,12.34H143.51
						z"/>
					<path d="M152,279.68c-0.54,0-0.8-0.19-0.8-0.87c0-0.65,0.28-0.87,0.84-0.87c0.54,0,0.79,0.21,0.79,0.87
						C152.82,279.45,152.56,279.68,152,279.68z M151.35,290.34v-8.81h1.33v8.81H151.35z"/>
					<path d="M159.2,290.53c-2.11,0-3.48-1.52-3.48-4.47c0-3.81,2.18-4.72,3.76-4.72c1.03,0,1.83,0.24,2.46,0.8v-4.84h1.29v10.97
						c0,0.66,0.07,1.48,0.16,2.06h-1.26c-0.05-0.26-0.12-0.87-0.16-1.15C161.26,290.02,160.47,290.53,159.2,290.53z M161.5,282.81
						c-0.47-0.51-1.15-0.66-1.89-0.66c-1.38,0-2.53,1.14-2.53,3.9c0,2.55,0.96,3.67,2.38,3.67c0.87,0,1.4-0.28,1.76-0.68
						c0.52-0.56,0.73-1.17,0.73-3.18C161.96,283.94,161.89,283.24,161.5,282.81z"/>
					<path d="M167.54,285.92c0.02,2.48,1.01,3.76,2.81,3.76c1.22,0,1.98-0.38,2.69-0.77v1c-0.61,0.33-1.5,0.66-2.9,0.66
						c-2.59,0-3.95-1.43-3.95-4.66c0-2.95,1.38-4.6,3.79-4.6c1.77,0,2.5,0.66,2.99,1.69c0.33,0.72,0.42,1.62,0.42,2.57v0.35H167.54z
						 M169.94,282.07c-1.12,0-2.29,0.73-2.36,3.11h4.4C171.98,283.3,171.67,282.07,169.94,282.07z"/>
					<path d="M200.59,278.86h-3.97v11.48h-1.4v-11.48h-3.84V278h9.21V278.86z"/>
					<path d="M206.44,289.11c-0.45,0.82-1.27,1.43-2.67,1.43c-1.78,0-2.81-1.14-2.81-2.69c0-1.71,1.29-2.67,4.35-2.67
						c0.33,0,0.79,0.02,1.1,0.04v-0.79c0-0.65-0.1-1.26-0.4-1.64c-0.3-0.38-0.8-0.56-1.45-0.56c-0.73,0-1.68,0.12-2.76,0.72v-1.01
						c0.93-0.44,2.06-0.63,2.92-0.63c0.87,0,1.75,0.14,2.29,0.68c0.45,0.47,0.7,1.05,0.7,2.31v4.11c0,0.59,0.02,1.27,0.23,1.94
						h-1.27C206.56,290.04,206.46,289.45,206.44,289.11z M205.55,285.92c-2.52,0-3.27,0.86-3.27,1.9c0,1.12,0.63,1.83,1.75,1.83
						c0.82,0,1.5-0.38,1.96-0.94c0.33-0.38,0.42-0.96,0.42-1.54v-1.24C206.16,285.92,205.83,285.92,205.55,285.92z"/>
					<path d="M214.54,290.56c-2.38,0-3.86-1.4-3.86-4.49c0-3.21,1.52-4.77,4.09-4.77c0.82,0,1.54,0.09,2.11,0.26v1.15
						c-0.59-0.37-1.35-0.49-2.13-0.49c-1.71,0-2.71,1.19-2.71,3.76c0,2.59,1.14,3.69,2.74,3.69c0.84,0,1.52-0.24,2.15-0.58v0.98
						C216.41,290.32,215.7,290.56,214.54,290.56z"/>
					<path d="M220.04,285.92c0.02,2.48,1.01,3.76,2.81,3.76c1.22,0,1.98-0.38,2.69-0.77v1c-0.61,0.33-1.5,0.66-2.9,0.66
						c-2.59,0-3.95-1.43-3.95-4.66c0-2.95,1.38-4.6,3.79-4.6c1.77,0,2.5,0.66,2.99,1.69c0.33,0.72,0.42,1.62,0.42,2.57v0.35H220.04z
						 M222.44,282.07c-1.12,0-2.29,0.73-2.36,3.11h4.4C224.48,283.3,224.17,282.07,222.44,282.07z"/>
					<rect x="128" y="283.34" width="4.4" height="4.4"/>
					<rect x="180.34" y="283.34" width="4.4" height="4.4"/>
				</g>
			</g>
			<g>
				<g>
					
						<rect x="244.13" y="280.62" transform="matrix(-1 -1.224647e-16 1.224647e-16 -1 493.3462 566.3395)" width="5.09" height="5.09"/>
					
						<rect x="233.94" y="280.62" transform="matrix(-1 -1.224647e-16 1.224647e-16 -1 472.9706 566.3395)" width="5.09" height="5.09"/>
					
						<rect x="239.03" y="285.72" transform="matrix(-1 -1.224647e-16 1.224647e-16 -1 483.1584 576.5273)" width="5.09" height="5.09"/>
				</g>
				<g>
					<rect x="63.69" y="285.72" width="5.09" height="5.09"/>
					<rect x="73.87" y="285.72" width="5.09" height="5.09"/>
					<rect x="68.78" y="280.62" width="5.09" height="5.09"/>
				</g>
			</g>
		</g>
	</g>
	<path d="M150,69.47"/>
	<g>
		<g>
			<g>
				<g>
					<path d="M153.94,11.81c0,0,0.54-0.15,1.32-0.19c0.78-0.06,1.8-0.01,2.8,0.15c1,0.17,1.98,0.44,2.7,0.75
						c0.72,0.29,1.19,0.61,1.19,0.61s-0.54,0.15-1.32,0.2c-0.78,0.06-1.8,0.01-2.8-0.16c-1-0.17-1.98-0.44-2.7-0.75
						C154.41,12.12,153.94,11.81,153.94,11.81z"/>
					<g>
						<g>
							<path d="M146.3,16.69c-0.19-1.13-0.32-2.26-0.42-3.38c-0.06-0.56-0.09-1.13-0.13-1.69c-0.04-0.56-0.07-1.13-0.09-1.69
								l-0.05-1.53l1.14,1.1c0.56,0.54,1.11,1.09,1.65,1.65c0.54,0.55,1.08,1.12,1.6,1.69c1.06,1.14,2.08,2.31,3.07,3.51l0.76,0.92
								l-1.13-0.05c-1.07-0.05-2.14-0.12-3.21-0.2C148.44,16.92,147.37,16.82,146.3,16.69c1.07-0.13,2.14-0.23,3.21-0.31
								c1.07-0.08,2.14-0.15,3.21-0.2l-0.37,0.87c-1.15-1.05-2.26-2.14-3.34-3.26c-0.55-0.55-1.08-1.12-1.6-1.69
								c-0.53-0.57-1.05-1.15-1.56-1.73l1.09-0.44c-0.02,0.56-0.05,1.13-0.09,1.69c-0.03,0.56-0.07,1.13-0.13,1.69
								C146.62,14.43,146.49,15.56,146.3,16.69z"/>
							<path d="M155.38,8.69c0.19,1.13,0.32,2.26,0.42,3.38c0.06,0.56,0.09,1.13,0.13,1.69c0.04,0.56,0.07,1.13,0.09,1.69l0.05,1.53
								l-1.14-1.1c-0.56-0.54-1.11-1.09-1.65-1.65c-0.54-0.55-1.08-1.12-1.6-1.69c-1.06-1.14-2.08-2.31-3.07-3.51l-0.76-0.92
								l1.13,0.05c1.07,0.05,2.14,0.12,3.21,0.2C153.24,8.46,154.31,8.55,155.38,8.69c-1.07,0.13-2.14,0.23-3.21,0.31
								c-1.07,0.08-2.14,0.15-3.21,0.2l0.37-0.87c1.15,1.05,2.26,2.14,3.34,3.26c0.55,0.55,1.08,1.12,1.6,1.69
								c0.53,0.57,1.05,1.15,1.56,1.73l-1.09,0.44c0.02-0.56,0.05-1.13,0.09-1.69c0.03-0.56,0.07-1.13,0.13-1.69
								C155.05,10.94,155.18,9.82,155.38,8.69z"/>
						</g>
						<path d="M166.17,17.83c0.02-1.28,0.11-2.54,0.19-3.81c0.1-1.27,0.21-2.53,0.34-3.79l0.48,0.65c-1.06-0.11-2.12-0.25-3.19-0.38
							c-1.06-0.12-2.12-0.28-3.18-0.42l0.79-0.59c-0.16,1.26-0.36,2.51-0.55,3.76c-0.18,1.25-0.42,2.5-0.63,3.75l-0.51-0.68
							l3.16,0.58l-0.55,0.41c0.2-0.93,0.39-1.87,0.61-2.8c0.21-0.93,0.44-1.86,0.7-2.78c-0.02,0.96-0.06,1.92-0.13,2.87
							c-0.05,0.95-0.14,1.9-0.22,2.85l-0.04,0.47l-0.51-0.06l-3.19-0.34l-0.59-0.06l0.08-0.62c0.15-1.26,0.28-2.52,0.46-3.77
							c0.17-1.26,0.34-2.51,0.54-3.76l0.11-0.69l0.68,0.1c1.06,0.16,2.11,0.32,3.17,0.5c1.05,0.18,2.11,0.35,3.16,0.55l0.58,0.11
							l-0.1,0.53c-0.23,1.25-0.49,2.49-0.75,3.73C166.8,15.36,166.52,16.6,166.17,17.83z"/>
						<path d="M136.45,17.83c-0.35-1.23-0.62-2.47-0.91-3.71c-0.27-1.24-0.52-2.48-0.75-3.73l-0.1-0.53l0.58-0.11
							c1.05-0.2,2.11-0.36,3.16-0.55c1.05-0.19,2.11-0.34,3.17-0.5l0.68-0.1l0.11,0.69c0.2,1.25,0.37,2.51,0.54,3.76
							c0.18,1.25,0.31,2.51,0.46,3.77l0.08,0.62l-0.59,0.06l-3.19,0.34l-0.51,0.06l-0.04-0.47c-0.07-0.95-0.16-1.9-0.22-2.85
							c-0.07-0.95-0.11-1.91-0.13-2.87c0.25,0.93,0.49,1.85,0.7,2.78c0.22,0.93,0.41,1.86,0.61,2.8l-0.55-0.41l3.16-0.58L142.2,17
							c-0.21-1.25-0.45-2.49-0.63-3.75c-0.2-1.25-0.39-2.5-0.55-3.76l0.79,0.59c-1.06,0.14-2.12,0.3-3.18,0.42
							c-1.06,0.12-2.12,0.27-3.19,0.38l0.48-0.65c0.13,1.26,0.25,2.52,0.34,3.79C136.35,15.29,136.44,16.56,136.45,17.83z"/>
						<path d="M140.37,14.36c0,0,0.45-0.29,1.14-0.53c0.69-0.26,1.63-0.47,2.57-0.58c0.95-0.1,1.91-0.09,2.64,0.03
							c0.73,0.09,1.23,0.28,1.23,0.28s-0.45,0.29-1.14,0.53c-0.69,0.26-1.63,0.47-2.57,0.57c-0.95,0.1-1.91,0.08-2.64-0.03
							C140.87,14.54,140.37,14.36,140.37,14.36z"/>
					</g>
					<g>
						<g>
							<path d="M203.65,37.38c0.66-0.94,1.37-1.83,2.1-2.69c0.36-0.44,0.73-0.86,1.11-1.29c0.37-0.43,0.75-0.85,1.14-1.26l1.05-1.12
								l0.03,1.58c0.01,0.78,0.02,1.56,0,2.33c-0.01,0.78-0.02,1.55-0.06,2.33c-0.05,1.55-0.16,3.1-0.31,4.66l-0.12,1.19l-0.76-0.84
								c-0.72-0.79-1.43-1.6-2.12-2.41C205,39.05,204.31,38.23,203.65,37.38c0.85,0.66,1.67,1.35,2.49,2.05
								c0.81,0.7,1.62,1.4,2.41,2.12l-0.88,0.35c-0.07-1.56-0.09-3.11-0.05-4.67c0-0.78,0.03-1.55,0.07-2.33
								c0.02-0.78,0.07-1.55,0.12-2.33l1.08,0.46c-0.41,0.39-0.83,0.77-1.26,1.14c-0.42,0.37-0.85,0.75-1.29,1.11
								C205.47,36.01,204.59,36.72,203.65,37.38z"/>
							<path d="M215.72,38.14c-0.66,0.94-1.37,1.83-2.1,2.69c-0.36,0.44-0.73,0.86-1.11,1.29c-0.37,0.43-0.75,0.85-1.14,1.26
								l-1.05,1.12l-0.03-1.58c-0.01-0.78-0.02-1.55,0-2.33c0.01-0.78,0.02-1.55,0.06-2.33c0.05-1.55,0.16-3.1,0.31-4.66l0.12-1.19
								l0.76,0.84c0.72,0.79,1.43,1.6,2.12,2.41C214.37,36.46,215.06,37.29,215.72,38.14c-0.85-0.66-1.67-1.35-2.49-2.05
								c-0.81-0.7-1.62-1.4-2.41-2.12l0.88-0.35c0.07,1.56,0.09,3.11,0.05,4.67c0,0.78-0.03,1.55-0.07,2.33
								c-0.02,0.78-0.07,1.55-0.12,2.33l-1.08-0.46c0.41-0.39,0.83-0.77,1.26-1.14c0.42-0.37,0.85-0.75,1.29-1.11
								C213.9,39.5,214.79,38.8,215.72,38.14z"/>
						</g>
						<path d="M216.89,52.24c0.92-0.89,1.87-1.72,2.83-2.56c0.96-0.83,1.94-1.64,2.92-2.44l-0.12,0.8
							c-0.68-0.83-1.32-1.68-1.99-2.52c-0.66-0.84-1.3-1.7-1.95-2.55l0.97,0.14c-1,0.77-2.03,1.52-3.05,2.27
							c-1.02,0.76-2.06,1.47-3.1,2.2l0.12-0.85l1.82,2.64l-0.68-0.1c0.8-0.52,1.59-1.05,2.41-1.55c0.81-0.51,1.63-1,2.46-1.48
							c-0.69,0.66-1.4,1.31-2.12,1.94c-0.71,0.64-1.45,1.24-2.17,1.86l-0.35,0.3l-0.32-0.4l-2.01-2.5L212.2,47l0.49-0.39
							c1-0.78,1.98-1.58,2.99-2.34c1.01-0.77,2.01-1.54,3.04-2.28l0.57-0.41l0.4,0.55c0.63,0.86,1.27,1.72,1.88,2.6
							c0.62,0.87,1.25,1.74,1.85,2.62l0.33,0.49l-0.45,0.31c-1.05,0.72-2.1,1.42-3.17,2.1C219.08,50.94,218.01,51.62,216.89,52.24z"
							/>
						<path d="M195.88,31.23c0.62-1.11,1.3-2.19,1.98-3.26c0.69-1.07,1.39-2.13,2.1-3.17l0.31-0.45l0.49,0.33
							c0.89,0.6,1.75,1.23,2.62,1.85c0.88,0.61,1.73,1.25,2.6,1.88l0.55,0.4l-0.41,0.57c-0.74,1.03-1.51,2.04-2.28,3.04
							c-0.76,1.02-1.56,2-2.34,2.99l-0.39,0.49l-0.46-0.37l-2.5-2.01l-0.4-0.32l0.3-0.35c0.62-0.72,1.23-1.46,1.86-2.17
							c0.63-0.72,1.27-1.42,1.94-2.12c-0.47,0.83-0.97,1.66-1.48,2.46c-0.5,0.81-1.03,1.61-1.55,2.41l-0.1-0.68l2.64,1.82
							l-0.85,0.12c0.73-1.03,1.45-2.08,2.2-3.1c0.75-1.02,1.49-2.05,2.27-3.05l0.14,0.97c-0.85-0.65-1.71-1.29-2.55-1.95
							c-0.84-0.66-1.69-1.31-2.52-1.99l0.8-0.12c-0.8,0.99-1.61,1.96-2.44,2.92C197.6,29.35,196.77,30.31,195.88,31.23z"/>
						<path d="M201.1,31.54c0,0,0.52,0.12,1.18,0.43c0.67,0.3,1.49,0.82,2.23,1.41c0.74,0.6,1.41,1.29,1.85,1.88
							c0.45,0.58,0.67,1.07,0.67,1.07s-0.52-0.11-1.18-0.43c-0.67-0.3-1.49-0.82-2.23-1.41c-0.74-0.6-1.41-1.29-1.84-1.89
							C201.33,32.02,201.1,31.54,201.1,31.54z"/>
					</g>
					<g>
						<g>
							<path d="M229.57,92.56c1.13-0.19,2.26-0.32,3.39-0.42c0.56-0.06,1.13-0.09,1.69-0.13c0.56-0.04,1.13-0.07,1.69-0.09
								l1.53-0.05l-1.1,1.14c-0.54,0.56-1.09,1.11-1.65,1.65c-0.55,0.54-1.12,1.08-1.69,1.6c-1.14,1.06-2.31,2.08-3.51,3.07
								l-0.92,0.76l0.05-1.13c0.05-1.07,0.12-2.14,0.2-3.21C229.34,94.7,229.44,93.63,229.57,92.56c0.13,1.07,0.23,2.14,0.31,3.21
								c0.08,1.07,0.15,2.14,0.2,3.21l-0.87-0.37c1.05-1.15,2.14-2.26,3.26-3.34c0.55-0.55,1.12-1.08,1.69-1.6
								c0.57-0.53,1.15-1.05,1.73-1.56l0.44,1.09c-0.56-0.02-1.13-0.05-1.69-0.09c-0.56-0.03-1.13-0.07-1.69-0.13
								C231.83,92.88,230.7,92.75,229.57,92.56z"/>
							<path d="M237.57,101.63c-1.13,0.19-2.26,0.32-3.38,0.42c-0.56,0.06-1.13,0.09-1.69,0.13c-0.56,0.04-1.13,0.07-1.69,0.09
								l-1.53,0.05l1.1-1.14c0.54-0.56,1.09-1.11,1.65-1.65c0.55-0.54,1.12-1.08,1.69-1.6c1.14-1.06,2.31-2.08,3.51-3.07l0.92-0.76
								l-0.05,1.13c-0.05,1.07-0.12,2.14-0.2,3.21C237.8,99.5,237.71,100.57,237.57,101.63c-0.13-1.07-0.23-2.14-0.31-3.21
								c-0.08-1.07-0.15-2.14-0.2-3.21l0.87,0.37c-1.05,1.15-2.14,2.26-3.26,3.34c-0.55,0.55-1.12,1.08-1.69,1.6
								c-0.57,0.53-1.15,1.05-1.73,1.56L230.8,101c0.56,0.02,1.13,0.05,1.69,0.09c0.56,0.03,1.13,0.07,1.69,0.13
								C235.31,101.31,236.44,101.44,237.57,101.63z"/>
						</g>
						<path d="M228.43,112.43c1.28,0.02,2.54,0.11,3.81,0.19c1.27,0.1,2.53,0.21,3.79,0.34l-0.65,0.48
							c0.11-1.06,0.25-2.12,0.38-3.19c0.12-1.06,0.28-2.12,0.42-3.18l0.59,0.79c-1.26-0.16-2.51-0.36-3.76-0.55
							c-1.25-0.18-2.5-0.42-3.75-0.63l0.68-0.51l-0.58,3.16l-0.41-0.55c0.93,0.2,1.87,0.39,2.8,0.61c0.93,0.21,1.86,0.44,2.78,0.7
							c-0.96-0.02-1.92-0.06-2.87-0.13c-0.95-0.05-1.9-0.14-2.85-0.22l-0.47-0.04l0.06-0.51l0.34-3.19l0.06-0.59l0.62,0.08
							c1.26,0.15,2.52,0.28,3.77,0.46c1.26,0.17,2.51,0.34,3.76,0.54l0.69,0.11l-0.1,0.68c-0.16,1.06-0.32,2.11-0.5,3.17
							c-0.18,1.05-0.35,2.11-0.55,3.16l-0.11,0.58l-0.53-0.1c-1.25-0.23-2.49-0.49-3.73-0.75
							C230.89,113.06,229.65,112.78,228.43,112.43z"/>
						<path d="M228.43,82.71c1.23-0.35,2.47-0.62,3.71-0.91c1.24-0.27,2.48-0.52,3.73-0.75l0.53-0.1l0.11,0.58
							c0.2,1.05,0.36,2.11,0.55,3.16c0.19,1.05,0.34,2.11,0.5,3.17l0.1,0.68l-0.69,0.11c-1.25,0.2-2.51,0.37-3.76,0.54
							c-1.25,0.18-2.51,0.31-3.77,0.46l-0.62,0.08l-0.06-0.59l-0.34-3.19l-0.06-0.51l0.47-0.04c0.95-0.07,1.9-0.16,2.85-0.22
							c0.95-0.07,1.91-0.11,2.87-0.13c-0.93,0.25-1.85,0.49-2.78,0.7c-0.93,0.22-1.86,0.41-2.8,0.61l0.41-0.55l0.58,3.16l-0.68-0.51
							c1.25-0.21,2.49-0.45,3.75-0.63c1.25-0.2,2.5-0.39,3.76-0.55l-0.59,0.79c-0.14-1.06-0.3-2.12-0.42-3.18
							c-0.12-1.06-0.27-2.12-0.38-3.19l0.65,0.48c-1.26,0.13-2.52,0.25-3.79,0.34C230.97,82.61,229.7,82.69,228.43,82.71z"/>
						<path d="M231.9,86.63c0,0,0.29,0.45,0.53,1.14c0.26,0.69,0.47,1.63,0.58,2.57c0.1,0.95,0.09,1.91-0.03,2.64
							c-0.09,0.73-0.28,1.23-0.28,1.23s-0.29-0.45-0.53-1.14c-0.26-0.69-0.47-1.63-0.57-2.57c-0.1-0.95-0.08-1.91,0.03-2.64
							C231.71,87.13,231.9,86.63,231.9,86.63z"/>
					</g>
					<g>
						<g>
							<path d="M208.88,149.91c0.94,0.66,1.83,1.37,2.69,2.1c0.44,0.36,0.86,0.73,1.29,1.11c0.43,0.37,0.85,0.75,1.26,1.14
								l1.12,1.05l-1.58,0.03c-0.78,0.01-1.56,0.02-2.33,0c-0.78-0.01-1.55-0.02-2.33-0.06c-1.55-0.05-3.1-0.16-4.66-0.31
								l-1.19-0.12l0.84-0.76c0.79-0.72,1.6-1.43,2.41-2.12C207.21,151.26,208.03,150.57,208.88,149.91
								c-0.66,0.85-1.35,1.67-2.05,2.49c-0.7,0.81-1.4,1.62-2.12,2.41l-0.35-0.88c1.56-0.07,3.11-0.09,4.67-0.05
								c0.78,0,1.55,0.03,2.33,0.07c0.78,0.02,1.55,0.07,2.33,0.12l-0.46,1.08c-0.39-0.41-0.77-0.83-1.14-1.26
								c-0.37-0.42-0.75-0.85-1.11-1.29C210.25,151.73,209.54,150.84,208.88,149.91z"/>
							<path d="M208.12,161.98c-0.94-0.66-1.83-1.37-2.69-2.1c-0.44-0.36-0.86-0.73-1.29-1.11c-0.43-0.37-0.85-0.75-1.26-1.14
								l-1.12-1.05l1.58-0.03c0.78-0.01,1.55-0.02,2.33,0c0.78,0.01,1.55,0.02,2.33,0.06c1.55,0.05,3.1,0.16,4.66,0.31l1.19,0.12
								l-0.84,0.76c-0.79,0.72-1.6,1.43-2.41,2.12C209.8,160.63,208.97,161.32,208.12,161.98c0.66-0.85,1.35-1.67,2.05-2.49
								c0.7-0.81,1.4-1.62,2.12-2.41l0.35,0.88c-1.56,0.07-3.11,0.09-4.67,0.05c-0.78,0-1.55-0.03-2.33-0.07
								c-0.78-0.02-1.55-0.07-2.33-0.12l0.46-1.08c0.39,0.41,0.77,0.83,1.14,1.26c0.37,0.42,0.75,0.85,1.11,1.29
								C206.75,160.16,207.46,161.05,208.12,161.98z"/>
						</g>
						<path d="M194.02,163.15c0.89,0.92,1.72,1.87,2.56,2.83c0.83,0.96,1.64,1.94,2.44,2.92l-0.8-0.12
							c0.83-0.68,1.68-1.32,2.52-1.99c0.84-0.66,1.7-1.3,2.55-1.95l-0.14,0.97c-0.77-1-1.52-2.03-2.27-3.05
							c-0.76-1.02-1.47-2.06-2.2-3.1l0.85,0.12l-2.64,1.82l0.1-0.68c0.52,0.8,1.05,1.59,1.55,2.41c0.51,0.81,1,1.63,1.48,2.46
							c-0.66-0.69-1.31-1.4-1.94-2.12c-0.64-0.71-1.24-1.45-1.86-2.17l-0.3-0.35l0.4-0.32l2.5-2.01l0.46-0.37l0.39,0.49
							c0.78,1,1.58,1.98,2.34,2.99c0.77,1.01,1.54,2.01,2.28,3.04l0.41,0.57l-0.55,0.4c-0.86,0.63-1.72,1.27-2.6,1.88
							c-0.87,0.62-1.74,1.25-2.62,1.85l-0.49,0.33l-0.31-0.45c-0.72-1.05-1.42-2.1-2.1-3.17
							C195.32,165.34,194.64,164.27,194.02,163.15z"/>
						<path d="M215.03,142.14c1.11,0.62,2.19,1.3,3.26,1.98c1.07,0.69,2.13,1.39,3.17,2.1l0.45,0.31l-0.33,0.49
							c-0.6,0.89-1.23,1.75-1.85,2.62c-0.61,0.88-1.25,1.73-1.88,2.6l-0.4,0.55l-0.57-0.41c-1.03-0.74-2.04-1.51-3.04-2.28
							c-1.02-0.76-2-1.56-2.99-2.34l-0.49-0.39l0.37-0.46l2.01-2.5l0.32-0.4l0.35,0.3c0.72,0.62,1.46,1.23,2.17,1.86
							c0.72,0.63,1.42,1.27,2.12,1.94c-0.83-0.47-1.66-0.97-2.46-1.48c-0.81-0.5-1.61-1.03-2.41-1.55l0.68-0.1l-1.82,2.64
							l-0.12-0.85c1.03,0.73,2.08,1.45,3.1,2.2c1.02,0.75,2.05,1.49,3.05,2.27l-0.97,0.14c0.65-0.85,1.29-1.71,1.95-2.55
							c0.66-0.84,1.31-1.69,1.99-2.52l0.12,0.8c-0.99-0.8-1.96-1.61-2.92-2.44C216.91,143.86,215.95,143.02,215.03,142.14z"/>
						<path d="M214.72,147.36c0,0-0.12,0.52-0.43,1.18c-0.3,0.67-0.82,1.49-1.41,2.23c-0.6,0.74-1.29,1.41-1.88,1.85
							c-0.58,0.45-1.07,0.67-1.07,0.67s0.11-0.52,0.43-1.18c0.3-0.67,0.82-1.49,1.41-2.23c0.6-0.74,1.29-1.41,1.89-1.84
							C214.24,147.58,214.72,147.36,214.72,147.36z"/>
					</g>
					<g>
						<g>
							<path d="M96.35,155.14c-0.66,0.94-1.37,1.83-2.1,2.69c-0.36,0.44-0.73,0.86-1.11,1.29c-0.37,0.43-0.75,0.85-1.14,1.26
								l-1.05,1.12l-0.03-1.58c-0.01-0.78-0.02-1.55,0-2.33c0.01-0.78,0.02-1.55,0.06-2.33c0.05-1.55,0.16-3.1,0.31-4.66l0.12-1.19
								l0.76,0.84c0.72,0.79,1.43,1.6,2.12,2.41C95,153.47,95.69,154.29,96.35,155.14c-0.85-0.66-1.67-1.35-2.49-2.05
								c-0.81-0.7-1.62-1.4-2.41-2.12l0.88-0.35c0.07,1.56,0.09,3.11,0.05,4.67c0,0.78-0.03,1.55-0.07,2.33
								c-0.02,0.78-0.07,1.55-0.12,2.33l-1.08-0.46c0.41-0.39,0.83-0.77,1.26-1.14c0.42-0.37,0.85-0.75,1.29-1.11
								C94.53,156.51,95.41,155.8,96.35,155.14z"/>
							<path d="M84.28,154.38c0.66-0.94,1.37-1.83,2.1-2.69c0.36-0.44,0.73-0.86,1.11-1.29c0.37-0.43,0.75-0.85,1.14-1.26l1.05-1.12
								l0.03,1.58c0.01,0.78,0.02,1.56,0,2.33c-0.01,0.78-0.02,1.55-0.06,2.33c-0.05,1.55-0.16,3.1-0.31,4.66l-0.12,1.19l-0.76-0.84
								c-0.72-0.79-1.43-1.6-2.12-2.41C85.63,156.05,84.94,155.23,84.28,154.38c0.85,0.66,1.67,1.35,2.49,2.05
								c0.81,0.7,1.62,1.4,2.41,2.12l-0.88,0.35c-0.07-1.56-0.09-3.11-0.05-4.67c0-0.78,0.03-1.55,0.07-2.33
								c0.02-0.78,0.07-1.55,0.12-2.33l1.08,0.46c-0.41,0.39-0.83,0.77-1.26,1.14c-0.42,0.37-0.85,0.75-1.29,1.11
								C86.1,153.01,85.21,153.72,84.28,154.38z"/>
						</g>
						<path d="M83.11,140.28c-0.92,0.89-1.87,1.72-2.83,2.56c-0.96,0.83-1.94,1.64-2.92,2.44l0.12-0.8
							c0.68,0.83,1.32,1.68,1.99,2.52c0.66,0.84,1.3,1.7,1.95,2.55l-0.97-0.14c1-0.77,2.03-1.52,3.05-2.27
							c1.02-0.76,2.06-1.47,3.1-2.2l-0.12,0.85l-1.82-2.64l0.68,0.1c-0.8,0.52-1.59,1.05-2.41,1.55c-0.81,0.51-1.63,1-2.46,1.48
							c0.69-0.66,1.4-1.31,2.12-1.94c0.71-0.64,1.45-1.24,2.17-1.86l0.35-0.3l0.32,0.4l2.01,2.5l0.37,0.46l-0.49,0.39
							c-1,0.78-1.98,1.58-2.99,2.34c-1.01,0.77-2.01,1.54-3.04,2.28l-0.57,0.41l-0.4-0.55c-0.63-0.86-1.27-1.72-1.88-2.6
							c-0.62-0.87-1.25-1.74-1.85-2.62l-0.33-0.49l0.45-0.31c1.05-0.72,2.1-1.42,3.17-2.1C80.92,141.58,81.99,140.9,83.11,140.28z"
							/>
						<path d="M104.12,161.29c-0.62,1.11-1.3,2.19-1.98,3.26c-0.69,1.07-1.39,2.13-2.1,3.17l-0.31,0.45l-0.49-0.33
							c-0.89-0.6-1.75-1.23-2.62-1.85c-0.88-0.61-1.73-1.25-2.6-1.88l-0.55-0.4l0.41-0.57c0.74-1.03,1.51-2.04,2.28-3.04
							c0.76-1.02,1.56-2,2.34-2.99l0.39-0.49l0.46,0.37l2.5,2.01l0.4,0.32l-0.3,0.35c-0.62,0.72-1.23,1.46-1.86,2.17
							c-0.63,0.72-1.27,1.42-1.94,2.12c0.47-0.83,0.97-1.66,1.48-2.46c0.5-0.81,1.03-1.61,1.55-2.41l0.1,0.68l-2.64-1.82l0.85-0.12
							c-0.73,1.03-1.45,2.08-2.2,3.1c-0.75,1.02-1.49,2.05-2.27,3.05l-0.14-0.97c0.85,0.65,1.71,1.29,2.55,1.95
							c0.84,0.66,1.69,1.31,2.52,1.99l-0.8,0.12c0.8-0.99,1.61-1.96,2.44-2.92C102.4,163.17,103.23,162.21,104.12,161.29z"/>
						<path d="M98.9,160.98c0,0-0.52-0.12-1.18-0.43c-0.67-0.3-1.49-0.82-2.23-1.41c-0.74-0.6-1.41-1.29-1.85-1.88
							c-0.45-0.58-0.67-1.07-0.67-1.07s0.52,0.11,1.18,0.43c0.67,0.3,1.49,0.82,2.23,1.41c0.74,0.6,1.41,1.29,1.84,1.89
							C98.67,160.49,98.9,160.98,98.9,160.98z"/>
					</g>
					<g>
						<g>
							<path d="M70.43,99.96c-1.13,0.19-2.26,0.32-3.38,0.42c-0.56,0.06-1.13,0.09-1.69,0.13c-0.56,0.04-1.13,0.07-1.69,0.09
								l-1.53,0.05l1.1-1.14c0.54-0.56,1.09-1.11,1.65-1.65c0.55-0.54,1.12-1.08,1.69-1.6c1.14-1.06,2.31-2.08,3.51-3.07l0.92-0.76
								l-0.05,1.13c-0.05,1.07-0.12,2.14-0.2,3.21C70.66,97.82,70.56,98.89,70.43,99.96c-0.13-1.07-0.23-2.14-0.31-3.21
								c-0.08-1.07-0.15-2.14-0.2-3.21l0.87,0.37c-1.05,1.15-2.14,2.26-3.26,3.34c-0.55,0.55-1.12,1.08-1.69,1.6
								c-0.57,0.53-1.15,1.05-1.73,1.56l-0.44-1.09c0.56,0.02,1.13,0.05,1.69,0.09c0.56,0.03,1.13,0.07,1.69,0.13
								C68.17,99.63,69.3,99.76,70.43,99.96z"/>
							<path d="M62.43,90.88c1.13-0.19,2.26-0.32,3.38-0.42c0.56-0.06,1.13-0.09,1.69-0.13c0.56-0.04,1.13-0.07,1.69-0.09l1.53-0.05
								l-1.1,1.14c-0.54,0.56-1.09,1.11-1.65,1.65c-0.55,0.54-1.12,1.08-1.69,1.6c-1.14,1.06-2.31,2.08-3.51,3.07l-0.92,0.76
								l0.05-1.13c0.05-1.07,0.12-2.14,0.2-3.21C62.2,93.02,62.29,91.95,62.43,90.88c0.13,1.07,0.23,2.14,0.31,3.21
								c0.08,1.07,0.15,2.14,0.2,3.21l-0.87-0.37c1.05-1.15,2.14-2.26,3.26-3.34c0.55-0.55,1.12-1.08,1.69-1.6
								c0.57-0.53,1.15-1.05,1.73-1.56l0.44,1.09c-0.56-0.02-1.13-0.05-1.69-0.09c-0.56-0.03-1.13-0.07-1.69-0.13
								C64.69,91.21,63.56,91.08,62.43,90.88z"/>
						</g>
						<path d="M71.57,80.08c-1.28-0.02-2.54-0.11-3.81-0.19c-1.27-0.1-2.53-0.21-3.79-0.34l0.65-0.48
							c-0.11,1.06-0.25,2.12-0.38,3.19c-0.12,1.06-0.28,2.12-0.42,3.18l-0.59-0.79c1.26,0.16,2.51,0.36,3.76,0.55
							c1.25,0.18,2.5,0.42,3.75,0.63l-0.68,0.51l0.58-3.16l0.41,0.55c-0.93-0.2-1.87-0.39-2.8-0.61c-0.93-0.21-1.86-0.44-2.78-0.7
							c0.96,0.02,1.92,0.06,2.87,0.13c0.95,0.05,1.9,0.14,2.85,0.22l0.47,0.04l-0.06,0.51l-0.34,3.19l-0.06,0.59l-0.62-0.08
							c-1.26-0.15-2.52-0.28-3.77-0.46c-1.26-0.17-2.51-0.34-3.76-0.54l-0.69-0.11l0.1-0.68c0.16-1.06,0.32-2.11,0.5-3.17
							c0.18-1.05,0.35-2.11,0.55-3.16l0.11-0.58l0.53,0.1c1.25,0.23,2.49,0.49,3.73,0.75C69.11,79.46,70.35,79.74,71.57,80.08z"/>
						<path d="M71.57,109.8c-1.23,0.35-2.47,0.62-3.71,0.91c-1.24,0.27-2.48,0.52-3.73,0.75l-0.53,0.1l-0.11-0.58
							c-0.2-1.05-0.36-2.11-0.55-3.16c-0.19-1.05-0.34-2.11-0.5-3.17l-0.1-0.68l0.69-0.11c1.25-0.2,2.51-0.37,3.76-0.54
							c1.25-0.18,2.51-0.31,3.77-0.46l0.62-0.08l0.06,0.59l0.34,3.19l0.06,0.51l-0.47,0.04c-0.95,0.07-1.9,0.16-2.85,0.22
							c-0.95,0.07-1.91,0.11-2.87,0.13c0.93-0.25,1.85-0.49,2.78-0.7c0.93-0.22,1.86-0.41,2.8-0.61l-0.41,0.55l-0.58-3.16l0.68,0.51
							c-1.25,0.21-2.49,0.45-3.75,0.63c-1.25,0.2-2.5,0.39-3.76,0.55l0.59-0.79c0.14,1.06,0.3,2.12,0.42,3.18
							c0.12,1.06,0.27,2.12,0.38,3.19l-0.65-0.48c1.26-0.13,2.52-0.25,3.79-0.34C69.03,109.91,70.3,109.82,71.57,109.8z"/>
						<path d="M68.1,105.89c0,0-0.29-0.45-0.53-1.14c-0.26-0.69-0.47-1.63-0.58-2.57c-0.1-0.95-0.09-1.91,0.03-2.64
							c0.09-0.73,0.28-1.23,0.28-1.23s0.29,0.45,0.53,1.14c0.26,0.69,0.47,1.63,0.57,2.57c0.1,0.95,0.08,1.91-0.03,2.64
							C68.29,105.39,68.1,105.89,68.1,105.89z"/>
					</g>
					<g>
						<g>
							<path d="M91.12,42.61c-0.94-0.66-1.83-1.37-2.69-2.1c-0.44-0.36-0.86-0.73-1.29-1.11c-0.43-0.37-0.85-0.75-1.26-1.14
								l-1.12-1.05l1.58-0.03c0.78-0.01,1.56-0.02,2.33,0c0.78,0.01,1.55,0.02,2.33,0.06c1.55,0.05,3.1,0.16,4.66,0.31l1.19,0.12
								l-0.84,0.76c-0.79,0.72-1.6,1.43-2.41,2.12C92.79,41.26,91.97,41.95,91.12,42.61c0.66-0.85,1.35-1.67,2.05-2.49
								c0.7-0.81,1.4-1.62,2.12-2.41l0.35,0.88c-1.56,0.07-3.11,0.09-4.67,0.05c-0.78,0-1.55-0.03-2.33-0.07
								c-0.78-0.02-1.55-0.07-2.33-0.12l0.46-1.08c0.39,0.41,0.77,0.83,1.14,1.26c0.37,0.42,0.75,0.85,1.11,1.29
								C89.75,40.78,90.46,41.67,91.12,42.61z"/>
							<path d="M91.88,30.54c0.94,0.66,1.83,1.37,2.69,2.1c0.44,0.36,0.86,0.73,1.29,1.11c0.43,0.37,0.85,0.75,1.26,1.14l1.12,1.05
								l-1.58,0.03c-0.78,0.01-1.56,0.02-2.33,0c-0.78-0.01-1.55-0.02-2.33-0.06c-1.55-0.05-3.1-0.16-4.66-0.31l-1.19-0.12
								l0.84-0.76c0.79-0.72,1.6-1.43,2.41-2.12C90.21,31.88,91.03,31.2,91.88,30.54c-0.66,0.85-1.35,1.67-2.05,2.49
								c-0.7,0.81-1.4,1.62-2.12,2.41l-0.35-0.88c1.56-0.07,3.11-0.09,4.67-0.05c0.78,0,1.55,0.03,2.33,0.07
								c0.78,0.02,1.55,0.07,2.33,0.12l-0.46,1.08c-0.39-0.41-0.77-0.83-1.14-1.26c-0.37-0.42-0.75-0.85-1.11-1.29
								C93.25,32.36,92.54,31.47,91.88,30.54z"/>
						</g>
						<path d="M105.98,29.37c-0.89-0.92-1.72-1.87-2.56-2.83c-0.83-0.96-1.64-1.94-2.44-2.92l0.8,0.12
							c-0.83,0.68-1.68,1.32-2.52,1.99c-0.84,0.66-1.7,1.3-2.55,1.95l0.14-0.97c0.77,1,1.52,2.03,2.27,3.05
							c0.76,1.02,1.47,2.06,2.2,3.1l-0.85-0.12l2.64-1.82l-0.1,0.68c-0.52-0.8-1.05-1.59-1.55-2.41c-0.51-0.81-1-1.63-1.48-2.46
							c0.66,0.69,1.31,1.4,1.94,2.12c0.64,0.71,1.24,1.45,1.86,2.17l0.3,0.35l-0.4,0.32l-2.5,2.01l-0.46,0.37l-0.39-0.49
							c-0.78-1-1.58-1.98-2.34-2.99c-0.77-1.01-1.54-2.01-2.28-3.04l-0.41-0.57l0.55-0.4c0.86-0.63,1.72-1.27,2.6-1.88
							c0.87-0.62,1.74-1.25,2.62-1.85l0.49-0.33l0.31,0.45c0.72,1.05,1.42,2.1,2.1,3.17C104.68,27.18,105.36,28.25,105.98,29.37z"/>
						<path d="M84.97,50.38c-1.11-0.62-2.19-1.3-3.26-1.98c-1.07-0.69-2.13-1.39-3.17-2.1l-0.45-0.31l0.33-0.49
							c0.6-0.89,1.23-1.75,1.85-2.62c0.61-0.88,1.25-1.73,1.88-2.6l0.4-0.55l0.57,0.41c1.03,0.74,2.04,1.51,3.04,2.28
							c1.02,0.76,2,1.56,2.99,2.34l0.49,0.39l-0.37,0.46l-2.01,2.5l-0.32,0.4l-0.35-0.3c-0.72-0.62-1.46-1.23-2.17-1.86
							C83.7,45.71,83,45.06,82.3,44.4c0.83,0.47,1.66,0.97,2.46,1.48c0.81,0.5,1.61,1.03,2.41,1.55l-0.68,0.1l1.82-2.64l0.12,0.85
							c-1.03-0.73-2.08-1.45-3.1-2.2c-1.02-0.75-2.05-1.49-3.05-2.27l0.97-0.14c-0.65,0.85-1.29,1.71-1.95,2.55
							c-0.66,0.84-1.31,1.69-1.99,2.52l-0.12-0.8c0.99,0.8,1.96,1.61,2.92,2.44C83.09,48.66,84.05,49.49,84.97,50.38z"/>
						<path d="M85.28,45.15c0,0,0.12-0.52,0.43-1.18c0.3-0.67,0.82-1.49,1.41-2.23c0.6-0.74,1.29-1.41,1.88-1.85
							c0.58-0.45,1.07-0.67,1.07-0.67s-0.11,0.52-0.43,1.18c-0.3,0.67-0.82,1.49-1.41,2.23c-0.6,0.74-1.29,1.41-1.89,1.84
							C85.76,44.93,85.28,45.15,85.28,45.15z"/>
					</g>
					<g>
						<path d="M183.17,19.97c0,0,0.56,0.01,1.32,0.19c0.77,0.16,1.73,0.5,2.64,0.94c0.91,0.44,1.78,0.99,2.38,1.49
							c0.61,0.48,0.96,0.92,0.96,0.92s-0.56-0.01-1.32-0.19c-0.77-0.16-1.73-0.5-2.64-0.95c-0.91-0.44-1.78-0.99-2.38-1.49
							C183.53,20.4,183.17,19.97,183.17,19.97z"/>
						<path d="M193.68,25.13c0,0,0.52,0.09,1.18,0.37c0.68,0.27,1.5,0.73,2.26,1.29c0.75,0.56,1.44,1.2,1.9,1.77
							c0.47,0.55,0.7,1.02,0.7,1.02s-0.52-0.09-1.19-0.37c-0.68-0.27-1.5-0.73-2.26-1.29c-0.75-0.56-1.44-1.21-1.9-1.78
							C193.91,25.6,193.68,25.13,193.68,25.13z"/>
						<path d="M173.42,16.66c0,0,0.55-0.08,1.33-0.02c0.78,0.04,1.79,0.22,2.76,0.51c0.97,0.29,1.91,0.69,2.58,1.09
							c0.68,0.38,1.1,0.76,1.1,0.76s-0.55,0.08-1.33,0.03c-0.78-0.04-1.79-0.22-2.76-0.51c-0.97-0.29-1.91-0.69-2.58-1.09
							C173.84,17.04,173.42,16.66,173.42,16.66z"/>
						<path d="M164.82,14c0,0,0.45-0.14,1.08-0.16c0.64-0.04,1.46,0.04,2.25,0.22c0.79,0.19,1.56,0.49,2.11,0.81
							c0.55,0.31,0.9,0.63,0.9,0.63s-0.45,0.14-1.08,0.16c-0.64,0.04-1.46-0.04-2.25-0.23c-0.79-0.19-1.56-0.49-2.11-0.81
							C165.16,14.33,164.82,14,164.82,14z"/>
						<path d="M186.41,19.45c0,0-0.01-0.1-0.02-0.3c-0.01-0.19-0.05-0.47-0.15-0.82c-0.1-0.34-0.26-0.76-0.56-1.15
							c-0.29-0.4-0.69-0.81-1.21-1.09c-0.52-0.29-1.15-0.48-1.81-0.5c-0.16,0-0.34,0.01-0.48,0.02c-0.18,0.03-0.38,0.04-0.52,0.09
							c-0.31,0.07-0.64,0.21-0.93,0.37c-0.6,0.33-1.1,0.83-1.46,1.41c-0.17,0.3-0.3,0.62-0.4,0.94c-0.09,0.33-0.13,0.67-0.13,1.02
							c0.01,0.12,0.01,0.42,0.04,0.53c0.01,0.15,0.06,0.32,0.1,0.48c0.1,0.33,0.23,0.64,0.4,0.94c0.35,0.59,0.86,1.08,1.46,1.41
							c0.6,0.33,1.26,0.5,1.95,0.48c0.63-0.01,1.28-0.2,1.79-0.49c0.53-0.29,0.92-0.7,1.21-1.09c0.3-0.4,0.46-0.81,0.56-1.15
							c0.1-0.34,0.14-0.63,0.15-0.82C186.41,19.56,186.41,19.45,186.41,19.45z M186.41,19.45c0,0,0,0.1-0.01,0.3
							c-0.01,0.19-0.03,0.48-0.13,0.83c-0.18,0.69-0.62,1.7-1.64,2.49c-0.52,0.39-1.14,0.71-1.92,0.86
							c-0.72,0.14-1.59,0.11-2.4-0.18c-0.41-0.15-0.8-0.37-1.17-0.63c-0.36-0.27-0.68-0.61-0.96-0.99
							c-0.28-0.38-0.49-0.81-0.64-1.26c-0.06-0.23-0.13-0.46-0.17-0.72c-0.05-0.29-0.05-0.41-0.06-0.7c0.02-0.96,0.3-1.92,0.87-2.68
							c0.28-0.37,0.6-0.71,0.96-0.99c0.37-0.26,0.76-0.48,1.17-0.63c0.41-0.14,0.81-0.23,1.25-0.26c0.22-0.02,0.39,0,0.58,0
							c0.22,0.01,0.4,0.04,0.59,0.07c0.75,0.15,1.4,0.47,1.9,0.86c1.02,0.8,1.46,1.8,1.64,2.49c0.09,0.35,0.12,0.64,0.13,0.83
							C186.41,19.35,186.41,19.45,186.41,19.45z"/>
						<path d="M167.68,19.45c0.2-1.47,0.47-2.93,0.74-4.39c0.28-1.46,0.57-2.91,0.88-4.36l0.12-0.54l0.58,0.13
							c1.26,0.29,2.51,0.63,3.76,0.94c1.25,0.32,2.5,0.67,3.74,1l0.72,0.19l-0.25,0.72c-0.47,1.36-0.97,2.72-1.45,4.08
							c-0.51,1.35-1,2.71-1.53,4.05l-0.21,0.53l-0.5-0.17c-1.11-0.38-2.22-0.75-3.33-1.16l-0.4-0.15l0.11-0.36
							c0.56-1.76,1.15-3.5,1.81-5.23c-0.28,1.83-0.63,3.64-1,5.45l-0.28-0.5c1.14,0.27,2.28,0.57,3.41,0.86l-0.7,0.36
							c0.42-1.38,0.88-2.75,1.32-4.12c0.47-1.36,0.92-2.73,1.4-4.09l0.48,0.91c-1.24-0.36-2.49-0.71-3.72-1.08
							c-1.23-0.38-2.48-0.74-3.71-1.14l0.7-0.41c-0.41,1.42-0.84,2.84-1.28,4.25C168.65,16.65,168.2,18.06,167.68,19.45z"/>
						<path d="M186.78,26.63c0.57-1.38,1.19-2.72,1.81-4.07c0.64-1.34,1.28-2.67,1.94-4l0.25-0.49l0.53,0.28
							c1.15,0.6,2.27,1.24,3.41,1.85c1.13,0.62,2.25,1.27,3.37,1.91l0.65,0.37l-0.42,0.63c-0.79,1.2-1.62,2.39-2.42,3.59
							c-0.83,1.18-1.65,2.37-2.49,3.54l-0.33,0.46l-0.44-0.29c-0.98-0.65-1.96-1.28-2.93-1.95l-0.35-0.24l0.2-0.32
							c0.98-1.56,1.99-3.1,3.06-4.62c-0.73,1.7-1.52,3.37-2.33,5.02l-0.15-0.56c1.04,0.55,2.06,1.12,3.09,1.68l-0.77,0.17
							c0.76-1.23,1.54-2.44,2.31-3.66c0.79-1.2,1.57-2.42,2.38-3.61l0.23,1c-1.11-0.66-2.23-1.31-3.34-1.97
							c-1.1-0.68-2.21-1.33-3.3-2.03l0.78-0.22c-0.75,1.28-1.53,2.54-2.31,3.8C188.42,24.15,187.63,25.41,186.78,26.63z"/>
					</g>
					<g>
						<path d="M227.28,65.45c0,0,0.39,0.4,0.8,1.06c0.43,0.66,0.87,1.58,1.21,2.53c0.34,0.96,0.57,1.95,0.64,2.73
							c0.09,0.77,0.04,1.33,0.04,1.33s-0.39-0.4-0.81-1.06c-0.43-0.66-0.87-1.58-1.21-2.53c-0.33-0.96-0.56-1.95-0.64-2.73
							C227.22,66.01,227.28,65.45,227.28,65.45z"/>
						<path d="M231.1,76.51c0,0,0.31,0.43,0.58,1.1c0.29,0.67,0.55,1.58,0.7,2.5c0.14,0.93,0.18,1.87,0.1,2.6
							c-0.06,0.72-0.22,1.22-0.22,1.22s-0.31-0.43-0.58-1.1c-0.3-0.67-0.55-1.58-0.69-2.5c-0.14-0.93-0.17-1.87-0.1-2.6
							C230.93,77.01,231.1,76.51,231.1,76.51z"/>
						<path d="M222.68,56.24c0,0,0.45,0.33,0.96,0.92c0.53,0.58,1.11,1.42,1.6,2.31c0.48,0.89,0.87,1.84,1.07,2.6
							c0.21,0.75,0.25,1.31,0.25,1.31s-0.45-0.33-0.96-0.92c-0.53-0.58-1.11-1.42-1.6-2.31c-0.48-0.89-0.87-1.84-1.06-2.6
							C222.71,56.8,222.68,56.24,222.68,56.24z"/>
						<path d="M218.44,48.29c0,0,0.42,0.22,0.88,0.65c0.48,0.42,1.01,1.05,1.44,1.74c0.43,0.69,0.76,1.44,0.92,2.06
							c0.18,0.61,0.19,1.08,0.19,1.08s-0.42-0.22-0.88-0.65c-0.48-0.42-1.01-1.05-1.44-1.74c-0.43-0.69-0.76-1.44-0.92-2.06
							C218.46,48.76,218.44,48.29,218.44,48.29z"/>
						<path d="M229.94,67.37c0,0,0.07-0.08,0.19-0.22c0.12-0.15,0.3-0.37,0.47-0.69c0.17-0.31,0.35-0.72,0.41-1.21
							c0.07-0.49,0.08-1.06-0.09-1.63c-0.16-0.57-0.47-1.15-0.93-1.62c-0.11-0.11-0.25-0.24-0.36-0.32c-0.14-0.11-0.3-0.23-0.43-0.3
							c-0.26-0.17-0.6-0.3-0.92-0.4c-0.66-0.19-1.37-0.19-2.03-0.02c-0.33,0.09-0.65,0.23-0.95,0.39c-0.29,0.16-0.59,0.41-0.78,0.6
							c-0.32,0.34-0.46,0.52-0.65,0.84c-0.16,0.3-0.29,0.62-0.38,0.95c-0.16,0.67-0.15,1.37,0.04,2.03c0.2,0.66,0.55,1.24,1.04,1.71
							c0.45,0.44,1.05,0.76,1.62,0.91c0.58,0.16,1.15,0.15,1.63,0.08c0.49-0.07,0.9-0.25,1.21-0.42c0.32-0.17,0.54-0.35,0.68-0.47
							C229.86,67.44,229.94,67.37,229.94,67.37z M229.94,67.37c0,0-0.07,0.07-0.22,0.2c-0.14,0.13-0.36,0.31-0.67,0.5
							c-0.61,0.37-1.63,0.77-2.92,0.61c-0.64-0.09-1.31-0.3-1.97-0.74c-0.61-0.4-1.21-1.04-1.57-1.82
							c-0.19-0.39-0.31-0.82-0.39-1.27c-0.06-0.45-0.05-0.91,0.01-1.38c0.07-0.46,0.22-0.92,0.44-1.35c0.2-0.41,0.56-0.88,0.81-1.14
							c0.74-0.72,1.58-1.17,2.53-1.32c0.46-0.07,0.93-0.08,1.38-0.02c0.45,0.07,0.88,0.19,1.27,0.38c0.4,0.19,0.74,0.41,1.07,0.69
							c0.18,0.14,0.28,0.27,0.41,0.41c0.15,0.17,0.25,0.31,0.37,0.47c0.42,0.64,0.66,1.32,0.75,1.95c0.17,1.29-0.23,2.31-0.59,2.92
							c-0.18,0.31-0.36,0.54-0.49,0.68C230.01,67.29,229.94,67.37,229.94,67.37z"/>
						<path d="M216.63,54.17c1.18-0.9,2.4-1.75,3.62-2.6c1.22-0.84,2.45-1.66,3.69-2.47l0.46-0.3l0.32,0.5
							c0.69,1.09,1.34,2.21,2.01,3.32c0.66,1.11,1.3,2.23,1.95,3.35l0.38,0.65l-0.68,0.34c-1.29,0.64-2.6,1.25-3.9,1.88
							c-1.31,0.6-2.62,1.22-3.94,1.8l-0.52,0.23l-0.23-0.47c-0.52-1.05-1.05-2.1-1.55-3.16l-0.18-0.38l0.33-0.17
							c1.63-0.85,3.28-1.68,4.97-2.45c-1.49,1.1-3.01,2.15-4.54,3.16l0.15-0.56c0.62,1,1.22,2.01,1.82,3.01l-0.75-0.24
							c1.27-0.68,2.56-1.33,3.84-2c1.29-0.64,2.58-1.29,3.88-1.92l-0.3,0.98c-0.63-1.13-1.27-2.25-1.88-3.39
							c-0.61-1.14-1.24-2.27-1.83-3.42l0.78,0.2c-1.29,0.72-2.6,1.42-3.91,2.12C219.3,52.86,217.99,53.55,216.63,54.17z"/>
						<path d="M225.15,72.72c1.37-0.58,2.76-1.09,4.15-1.61c1.39-0.5,2.79-1,4.19-1.47l0.52-0.18l0.18,0.57
							c0.39,1.23,0.74,2.48,1.11,3.71c0.36,1.24,0.7,2.49,1.05,3.73l0.2,0.72l-0.74,0.16c-1.41,0.29-2.83,0.56-4.24,0.84
							c-1.42,0.26-2.84,0.52-4.26,0.76l-0.56,0.09l-0.11-0.51c-0.24-1.15-0.49-2.3-0.71-3.45l-0.08-0.42l0.37-0.09
							c1.8-0.42,3.6-0.8,5.42-1.12c-1.72,0.69-3.45,1.32-5.19,1.92l0.29-0.5c0.35,1.12,0.68,2.25,1.01,3.37l-0.67-0.42
							c1.4-0.34,2.81-0.65,4.22-0.97c1.41-0.3,2.82-0.61,4.23-0.89L235,77.84c-0.32-1.25-0.66-2.5-0.98-3.75
							c-0.3-1.26-0.63-2.51-0.91-3.77l0.7,0.39c-1.43,0.38-2.87,0.73-4.31,1.07C228.06,72.12,226.61,72.45,225.15,72.72z"/>
					</g>
					<g>
						<path d="M226.02,130.06c0,0-0.01,0.56-0.2,1.32c-0.17,0.77-0.52,1.72-0.97,2.64c-0.45,0.91-1,1.77-1.51,2.37
							c-0.49,0.61-0.93,0.96-0.93,0.96s0.01-0.56,0.2-1.32c0.17-0.77,0.52-1.72,0.97-2.63c0.45-0.91,1-1.77,1.51-2.37
							C225.58,130.41,226.02,130.06,226.02,130.06z"/>
						<path d="M220.76,140.52c0,0-0.09,0.52-0.38,1.18c-0.27,0.68-0.74,1.49-1.31,2.25c-0.56,0.75-1.22,1.43-1.79,1.88
							c-0.56,0.46-1.03,0.69-1.03,0.69s0.09-0.52,0.38-1.18c0.27-0.68,0.74-1.49,1.31-2.25c0.56-0.75,1.22-1.43,1.79-1.88
							C220.29,140.75,220.76,140.52,220.76,140.52z"/>
						<path d="M229.4,120.34c0,0,0.08,0.55,0.01,1.33c-0.04,0.78-0.24,1.79-0.54,2.76c-0.3,0.97-0.71,1.91-1.11,2.58
							c-0.39,0.68-0.76,1.09-0.76,1.09s-0.08-0.56-0.01-1.33c0.04-0.78,0.24-1.79,0.54-2.75c0.3-0.97,0.71-1.9,1.12-2.58
							C229.02,120.75,229.4,120.34,229.4,120.34z"/>
						<path d="M232.13,111.75c0,0,0.13,0.45,0.15,1.09c0.04,0.64-0.05,1.46-0.24,2.25c-0.2,0.79-0.5,1.55-0.83,2.1
							c-0.31,0.55-0.64,0.89-0.64,0.89s-0.13-0.45-0.15-1.09c-0.04-0.64,0.05-1.46,0.24-2.25c0.2-0.79,0.5-1.55,0.83-2.1
							C231.8,112.09,232.13,111.75,232.13,111.75z"/>
						<path d="M226.5,133.3c0,0,0.1-0.01,0.3-0.02c0.19-0.01,0.47-0.05,0.82-0.15c0.34-0.1,0.76-0.25,1.16-0.55
							c0.4-0.29,0.81-0.68,1.1-1.2c0.3-0.52,0.49-1.14,0.51-1.8c0-0.16,0-0.34-0.02-0.48c-0.03-0.18-0.04-0.38-0.09-0.52
							c-0.06-0.31-0.21-0.64-0.36-0.94c-0.32-0.6-0.82-1.11-1.4-1.47c-0.3-0.17-0.61-0.3-0.94-0.41c-0.31-0.09-0.71-0.13-0.98-0.14
							c-0.46,0.01-0.7,0.04-1.05,0.12c-0.33,0.1-0.64,0.23-0.94,0.39c-0.59,0.35-1.09,0.85-1.42,1.44c-0.33,0.6-0.51,1.26-0.5,1.94
							c0.01,0.63,0.19,1.28,0.48,1.79c0.28,0.53,0.69,0.93,1.08,1.22c0.39,0.31,0.81,0.47,1.15,0.57c0.34,0.11,0.63,0.14,0.82,0.16
							C226.4,133.3,226.5,133.3,226.5,133.3z M226.5,133.3c0,0-0.1,0-0.3-0.01c-0.19-0.01-0.48-0.04-0.83-0.13
							c-0.69-0.18-1.69-0.63-2.48-1.66c-0.38-0.52-0.7-1.15-0.85-1.93c-0.14-0.72-0.1-1.59,0.2-2.4c0.15-0.41,0.37-0.8,0.64-1.16
							c0.28-0.36,0.62-0.68,0.99-0.95c0.38-0.28,0.81-0.48,1.27-0.63c0.43-0.14,1.02-0.21,1.38-0.22c1.03,0.03,1.94,0.32,2.71,0.89
							c0.37,0.28,0.71,0.61,0.98,0.97c0.26,0.37,0.48,0.76,0.62,1.17c0.14,0.41,0.23,0.82,0.25,1.25c0.02,0.22,0,0.39,0,0.58
							c-0.02,0.22-0.05,0.4-0.08,0.59c-0.16,0.75-0.49,1.39-0.88,1.9c-0.8,1.02-1.81,1.45-2.5,1.62c-0.35,0.09-0.64,0.11-0.83,0.12
							C226.6,133.3,226.5,133.3,226.5,133.3z"/>
						<path d="M226.66,114.57c1.47,0.22,2.93,0.5,4.39,0.77c1.45,0.29,2.9,0.59,4.35,0.92l0.54,0.12l-0.14,0.58
							c-0.3,1.26-0.65,2.5-0.97,3.75c-0.33,1.25-0.69,2.49-1.04,3.74l-0.2,0.72l-0.72-0.25c-1.36-0.48-2.71-0.99-4.06-1.48
							c-1.35-0.52-2.7-1.02-4.04-1.56l-0.53-0.21l0.17-0.5c0.39-1.11,0.77-2.22,1.18-3.32l0.15-0.4l0.36,0.12
							c1.75,0.57,3.49,1.18,5.22,1.85c-1.83-0.3-3.64-0.66-5.44-1.04l0.51-0.28c-0.28,1.14-0.58,2.27-0.89,3.41l-0.35-0.71
							c1.38,0.44,2.74,0.9,4.11,1.36c1.36,0.48,2.73,0.94,4.08,1.43l-0.92,0.47c0.37-1.24,0.73-2.48,1.11-3.71
							c0.39-1.23,0.76-2.47,1.17-3.7l0.4,0.7c-1.42-0.42-2.83-0.87-4.24-1.32C229.46,115.56,228.05,115.1,226.66,114.57z"/>
						<path d="M219.33,133.61c1.37,0.58,2.71,1.21,4.05,1.85c1.33,0.65,2.66,1.3,3.98,1.98l0.49,0.25l-0.28,0.53
							c-0.61,1.14-1.25,2.26-1.88,3.39c-0.63,1.13-1.29,2.24-1.94,3.36l-0.37,0.65l-0.63-0.42c-1.2-0.8-2.38-1.63-3.57-2.45
							c-1.17-0.84-2.35-1.67-3.52-2.52l-0.46-0.34l0.29-0.44c0.65-0.97,1.3-1.95,1.98-2.91l0.24-0.35l0.32,0.2
							c1.55,0.99,3.09,2.02,4.59,3.1c-1.69-0.74-3.36-1.54-5-2.37l0.56-0.14c-0.55,1.04-1.13,2.06-1.71,3.08l-0.17-0.77
							c1.22,0.77,2.43,1.56,3.64,2.34c1.2,0.8,2.4,1.59,3.59,2.41l-1,0.23c0.67-1.11,1.32-2.22,2-3.32c0.69-1.09,1.35-2.2,2.06-3.28
							l0.21,0.78c-1.27-0.76-2.53-1.55-3.78-2.34C221.79,135.27,220.54,134.47,219.33,133.61z"/>
					</g>
					<g>
						<path d="M180.05,173.83c0,0-0.4,0.39-1.07,0.79c-0.66,0.42-1.58,0.86-2.54,1.19c-0.96,0.33-1.96,0.55-2.74,0.61
							c-0.77,0.09-1.33,0.02-1.33,0.02s0.4-0.39,1.07-0.79c0.66-0.42,1.58-0.86,2.54-1.19c0.96-0.32,1.96-0.54,2.74-0.61
							C179.5,173.77,180.05,173.83,180.05,173.83z"/>
						<path d="M189.31,169.32c0,0-0.34,0.45-0.93,0.95c-0.58,0.52-1.43,1.1-2.32,1.58c-0.9,0.47-1.85,0.85-2.61,1.04
							c-0.75,0.21-1.31,0.23-1.31,0.23s0.34-0.45,0.93-0.95c0.58-0.52,1.43-1.1,2.32-1.57c0.9-0.47,1.85-0.85,2.61-1.04
							C188.75,169.35,189.31,169.32,189.31,169.32z"/>
						<path d="M197.3,165.17c0,0-0.22,0.41-0.66,0.88c-0.42,0.48-1.06,1-1.76,1.42c-0.7,0.42-1.45,0.75-2.07,0.9
							c-0.61,0.17-1.08,0.18-1.08,0.18s0.22-0.42,0.66-0.88c0.42-0.48,1.06-1,1.76-1.42c0.7-0.42,1.45-0.75,2.07-0.9
							C196.83,165.18,197.3,165.17,197.3,165.17z"/>
						<path d="M178.11,176.48c0,0,0.08,0.07,0.22,0.2c0.15,0.13,0.37,0.3,0.68,0.47c0.31,0.17,0.72,0.36,1.21,0.42
							c0.49,0.08,1.06,0.09,1.63-0.07c0.58-0.16,1.15-0.46,1.63-0.92c0.11-0.11,0.24-0.25,0.33-0.36c0.11-0.14,0.24-0.3,0.3-0.43
							c0.17-0.26,0.3-0.6,0.4-0.92c0.19-0.65,0.2-1.36,0.04-2.03c-0.09-0.33-0.22-0.65-0.38-0.95c-0.17-0.3-0.38-0.57-0.62-0.81
							c-0.09-0.08-0.3-0.3-0.4-0.35c-0.11-0.1-0.26-0.19-0.41-0.28c-0.3-0.16-0.62-0.29-0.95-0.39c-0.66-0.17-1.37-0.16-2.03,0.02
							c-0.66,0.19-1.25,0.53-1.72,1.03c-0.44,0.45-0.77,1.04-0.93,1.61c-0.17,0.57-0.17,1.14-0.09,1.63
							c0.06,0.49,0.24,0.9,0.41,1.21c0.17,0.32,0.34,0.54,0.47,0.69C178.04,176.4,178.11,176.48,178.11,176.48z M178.11,176.48
							c0,0-0.07-0.08-0.2-0.22c-0.13-0.14-0.31-0.36-0.49-0.68c-0.36-0.62-0.75-1.64-0.59-2.93c0.09-0.64,0.32-1.31,0.76-1.96
							c0.41-0.6,1.05-1.2,1.84-1.56c0.39-0.18,0.83-0.3,1.27-0.38c0.45-0.06,0.92-0.04,1.38,0.02c0.46,0.07,0.92,0.23,1.34,0.45
							c0.21,0.12,0.41,0.23,0.62,0.39c0.24,0.17,0.32,0.26,0.54,0.45c0.66,0.7,1.14,1.58,1.27,2.52c0.06,0.46,0.08,0.93,0.01,1.38
							c-0.08,0.45-0.2,0.88-0.39,1.27c-0.19,0.39-0.41,0.74-0.7,1.06c-0.14,0.17-0.28,0.28-0.41,0.41
							c-0.17,0.15-0.31,0.25-0.47,0.36c-0.64,0.42-1.33,0.64-1.96,0.73c-1.29,0.15-2.31-0.25-2.92-0.62
							c-0.31-0.18-0.53-0.37-0.67-0.5C178.18,176.55,178.11,176.48,178.11,176.48z"/>
						<path d="M191.43,163.3c0.89,1.19,1.73,2.42,2.56,3.64c0.82,1.23,1.64,2.47,2.43,3.72l0.3,0.47l-0.51,0.31
							c-1.1,0.68-2.22,1.32-3.34,1.98c-1.12,0.65-2.25,1.28-3.37,1.92l-0.65,0.37l-0.33-0.68c-0.63-1.3-1.22-2.61-1.84-3.92
							c-0.59-1.32-1.19-2.63-1.76-3.95l-0.22-0.52l0.47-0.23c1.06-0.51,2.11-1.03,3.18-1.52l0.39-0.18l0.17,0.34
							c0.84,1.64,1.64,3.3,2.4,4.99c-1.09-1.5-2.12-3.03-3.12-4.58l0.56,0.16c-1,0.61-2.02,1.2-3.03,1.79l0.25-0.75
							c0.67,1.28,1.31,2.57,1.96,3.86c0.63,1.3,1.27,2.59,1.88,3.9l-0.98-0.31c1.14-0.62,2.26-1.25,3.4-1.85
							c1.15-0.6,2.28-1.22,3.44-1.79l-0.21,0.78c-0.71-1.3-1.4-2.61-2.08-3.93C192.72,165.98,192.05,164.66,191.43,163.3z"/>
						<path d="M172.81,171.63c0.57,1.38,1.07,2.77,1.57,4.17c0.49,1.4,0.97,2.8,1.43,4.21l0.17,0.53l-0.57,0.18
							c-1.24,0.38-2.48,0.72-3.72,1.08c-1.24,0.35-2.49,0.68-3.74,1.01l-0.72,0.2l-0.15-0.75c-0.28-1.41-0.53-2.83-0.8-4.25
							c-0.24-1.42-0.49-2.84-0.72-4.27l-0.09-0.56l0.51-0.1c1.15-0.23,2.3-0.47,3.46-0.67l0.42-0.07l0.08,0.37
							c0.4,1.8,0.77,3.61,1.07,5.43c-0.68-1.72-1.29-3.46-1.87-5.21l0.5,0.29c-1.12,0.34-2.25,0.66-3.38,0.98l0.43-0.66
							c0.33,1.41,0.62,2.82,0.93,4.23c0.28,1.41,0.58,2.83,0.85,4.24l-0.87-0.55c1.25-0.31,2.5-0.64,3.76-0.94
							c1.26-0.29,2.51-0.61,3.78-0.88l-0.4,0.7c-0.36-1.44-0.7-2.88-1.03-4.32C173.38,174.55,173.06,173.1,172.81,171.63z"/>
					</g>
					<g>
						<path d="M116.45,172.38c0,0-0.56-0.01-1.32-0.19c-0.77-0.17-1.73-0.51-2.64-0.96c-0.91-0.45-1.77-1-2.37-1.5
							c-0.61-0.49-0.96-0.93-0.96-0.93s0.56,0.01,1.32,0.19c0.77,0.17,1.73,0.51,2.64,0.96c0.91,0.45,1.77,1,2.37,1.5
							C116.1,171.95,116.45,172.38,116.45,172.38z"/>
						<path d="M105.97,167.17c0,0-0.52-0.09-1.18-0.38c-0.68-0.27-1.5-0.74-2.25-1.3c-0.75-0.56-1.44-1.21-1.89-1.78
							c-0.46-0.56-0.7-1.03-0.7-1.03s0.52,0.09,1.18,0.37c0.68,0.27,1.5,0.74,2.25,1.3c0.75,0.56,1.44,1.21,1.89,1.79
							C105.74,166.7,105.97,167.17,105.97,167.17z"/>
						<path d="M126.18,175.74c0,0-0.55,0.08-1.33,0.02c-0.78-0.04-1.79-0.23-2.76-0.53c-0.97-0.3-1.91-0.7-2.58-1.11
							c-0.68-0.38-1.09-0.76-1.09-0.76s0.56-0.08,1.33-0.02c0.78,0.04,1.79,0.23,2.76,0.53c0.97,0.3,1.91,0.7,2.58,1.11
							C125.77,175.36,126.18,175.74,126.18,175.74z"/>
						<path d="M113.2,172.88c0,0,0.01,0.1,0.02,0.3c0.01,0.19,0.05,0.47,0.15,0.82c0.1,0.34,0.26,0.76,0.56,1.16
							c0.29,0.4,0.68,0.81,1.21,1.1c0.52,0.3,1.14,0.49,1.8,0.5c0.16,0,0.34-0.01,0.48-0.02c0.18-0.03,0.38-0.04,0.52-0.09
							c0.31-0.07,0.64-0.21,0.93-0.36c0.6-0.33,1.11-0.82,1.46-1.41c0.17-0.3,0.3-0.62,0.41-0.94c0.09-0.31,0.13-0.71,0.14-0.98
							c-0.01-0.46-0.04-0.7-0.13-1.05c-0.1-0.33-0.23-0.64-0.4-0.94c-0.35-0.59-0.86-1.09-1.45-1.42c-0.6-0.33-1.26-0.5-1.94-0.49
							c-0.63,0.01-1.28,0.19-1.79,0.48c-0.53,0.29-0.92,0.69-1.22,1.09c-0.3,0.39-0.46,0.81-0.57,1.15
							c-0.1,0.34-0.14,0.63-0.16,0.82C113.21,172.78,113.2,172.88,113.2,172.88z M113.2,172.88c0,0,0-0.1,0.01-0.3
							c0.01-0.19,0.04-0.48,0.13-0.83c0.18-0.69,0.63-1.69,1.65-2.48c0.52-0.39,1.15-0.7,1.92-0.86c0.72-0.14,1.59-0.1,2.4,0.2
							c0.41,0.15,0.8,0.37,1.17,0.63c0.36,0.28,0.68,0.62,0.96,0.99c0.28,0.38,0.48,0.81,0.63,1.27c0.14,0.43,0.22,1.02,0.22,1.38
							c-0.03,1.03-0.31,1.94-0.88,2.71c-0.28,0.37-0.6,0.71-0.97,0.98c-0.37,0.26-0.76,0.48-1.17,0.62
							c-0.41,0.14-0.81,0.23-1.25,0.25c-0.22,0.02-0.39,0-0.58,0c-0.22-0.01-0.4-0.04-0.59-0.08c-0.75-0.16-1.39-0.48-1.9-0.87
							c-1.02-0.8-1.46-1.81-1.63-2.5c-0.09-0.35-0.12-0.64-0.12-0.83C113.21,172.98,113.2,172.88,113.2,172.88z"/>
						<path d="M131.94,172.97c-0.21,1.47-0.49,2.93-0.76,4.39c-0.29,1.45-0.58,2.91-0.9,4.35l-0.12,0.54l-0.58-0.14
							c-1.26-0.3-2.5-0.64-3.76-0.96c-1.25-0.33-2.49-0.68-3.74-1.02l-0.72-0.2l0.25-0.72c0.48-1.36,0.98-2.71,1.47-4.07
							c0.51-1.35,1.02-2.7,1.55-4.04l0.21-0.53l0.5,0.17c1.11,0.39,2.22,0.76,3.32,1.17l0.4,0.15l-0.12,0.36
							c-0.57,1.75-1.17,3.5-1.83,5.23c0.29-1.83,0.64-3.64,1.03-5.44l0.28,0.51c-1.14-0.27-2.28-0.58-3.41-0.87l0.71-0.36
							c-0.43,1.38-0.89,2.74-1.34,4.11c-0.47,1.36-0.93,2.73-1.42,4.09l-0.47-0.91c1.24,0.37,2.48,0.72,3.72,1.1
							c1.23,0.39,2.47,0.75,3.7,1.16l-0.7,0.4c0.42-1.42,0.86-2.84,1.31-4.25C130.96,175.78,131.42,174.37,131.94,172.97z"/>
						<path d="M112.87,165.71c-0.57,1.37-1.21,2.71-1.83,4.06c-0.64,1.34-1.29,2.67-1.96,3.99l-0.25,0.49l-0.53-0.28
							c-1.14-0.6-2.26-1.25-3.4-1.87c-1.13-0.63-2.24-1.28-3.36-1.93l-0.65-0.37l0.42-0.63c0.8-1.2,1.63-2.38,2.44-3.57
							c0.83-1.18,1.66-2.36,2.51-3.53l0.34-0.46l0.44,0.29c0.98,0.65,1.96,1.29,2.92,1.97l0.35,0.24l-0.2,0.32
							c-0.99,1.55-2.01,3.09-3.08,4.6c0.74-1.7,1.53-3.36,2.36-5.01l0.15,0.56c-1.04-0.55-2.06-1.13-3.08-1.7l0.77-0.17
							c-0.76,1.23-1.55,2.43-2.33,3.65c-0.8,1.2-1.59,2.41-2.4,3.6l-0.23-1c1.11,0.66,2.22,1.32,3.33,1.99
							c1.1,0.68,2.21,1.35,3.29,2.05l-0.78,0.21c0.76-1.27,1.54-2.53,2.33-3.79C111.22,168.17,112.02,166.92,112.87,165.71z"/>
					</g>
					<g>
						<path d="M72.63,126.84c0,0-0.39-0.4-0.8-1.06c-0.43-0.66-0.87-1.58-1.2-2.54c-0.33-0.96-0.56-1.95-0.63-2.73
							c-0.09-0.77-0.03-1.33-0.03-1.33s0.39,0.4,0.8,1.06c0.43,0.66,0.87,1.58,1.2,2.54c0.33,0.96,0.56,1.95,0.63,2.73
							C72.69,126.28,72.63,126.84,72.63,126.84z"/>
						<path d="M68.84,115.76c0,0-0.31-0.43-0.58-1.1c-0.29-0.67-0.55-1.58-0.69-2.5c-0.14-0.93-0.17-1.87-0.09-2.6
							c0.06-0.72,0.23-1.22,0.23-1.22s0.31,0.43,0.58,1.1c0.29,0.67,0.55,1.58,0.69,2.51c0.14,0.93,0.17,1.87,0.09,2.6
							C69.01,115.26,68.84,115.76,68.84,115.76z"/>
						<path d="M77.2,136.06c0,0-0.45-0.33-0.96-0.92c-0.53-0.58-1.11-1.42-1.59-2.31c-0.48-0.89-0.86-1.84-1.06-2.6
							c-0.21-0.75-0.24-1.31-0.24-1.31s0.45,0.33,0.96,0.92c0.53,0.58,1.11,1.42,1.59,2.31c0.48,0.89,0.86,1.84,1.06,2.6
							C77.17,135.5,77.2,136.06,77.2,136.06z"/>
						<path d="M81.41,144.02c0,0-0.42-0.22-0.88-0.65c-0.48-0.42-1-1.05-1.43-1.75c-0.43-0.69-0.76-1.45-0.92-2.06
							c-0.18-0.61-0.19-1.08-0.19-1.08s0.42,0.22,0.88,0.65c0.48,0.42,1,1.05,1.43,1.75c0.43,0.69,0.76,1.45,0.92,2.07
							C81.4,143.55,81.41,144.02,81.41,144.02z"/>
						<path d="M69.98,124.91c0,0-0.07,0.08-0.19,0.22c-0.13,0.15-0.3,0.37-0.47,0.69c-0.17,0.31-0.35,0.72-0.42,1.21
							c-0.07,0.49-0.08,1.06,0.09,1.63c0.16,0.57,0.47,1.15,0.93,1.63c0.11,0.11,0.25,0.24,0.36,0.33c0.14,0.11,0.3,0.24,0.43,0.3
							c0.26,0.17,0.6,0.3,0.92,0.4c0.66,0.19,1.37,0.19,2.03,0.03c0.33-0.09,0.65-0.23,0.95-0.38c0.29-0.16,0.59-0.41,0.79-0.6
							c0.32-0.34,0.46-0.52,0.65-0.84c0.16-0.3,0.29-0.62,0.38-0.95c0.16-0.67,0.15-1.37-0.03-2.03c-0.19-0.66-0.54-1.24-1.04-1.72
							c-0.45-0.44-1.04-0.76-1.61-0.92c-0.58-0.17-1.14-0.16-1.63-0.08c-0.49,0.07-0.9,0.25-1.21,0.42
							c-0.32,0.17-0.54,0.35-0.69,0.47C70.05,124.85,69.98,124.91,69.98,124.91z M69.98,124.91c0,0,0.08-0.07,0.22-0.2
							c0.14-0.13,0.36-0.31,0.67-0.5c0.61-0.36,1.63-0.76,2.92-0.61c0.64,0.09,1.31,0.31,1.97,0.74c0.61,0.41,1.2,1.04,1.57,1.83
							c0.19,0.39,0.31,0.82,0.38,1.27c0.06,0.45,0.05,0.91-0.02,1.38c-0.07,0.46-0.23,0.92-0.44,1.35c-0.2,0.41-0.56,0.88-0.81,1.14
							c-0.74,0.71-1.59,1.16-2.53,1.31c-0.46,0.07-0.93,0.08-1.38,0.02c-0.45-0.08-0.88-0.2-1.27-0.38
							c-0.39-0.19-0.74-0.41-1.06-0.7c-0.17-0.14-0.28-0.27-0.41-0.41c-0.15-0.17-0.25-0.31-0.37-0.47
							c-0.42-0.64-0.65-1.32-0.74-1.96c-0.16-1.29,0.23-2.31,0.6-2.92c0.18-0.31,0.36-0.53,0.49-0.68
							C69.91,124.99,69.98,124.91,69.98,124.91z"/>
						<path d="M83.24,138.15c-1.19,0.9-2.41,1.74-3.62,2.59c-1.23,0.83-2.46,1.66-3.7,2.46l-0.46,0.3l-0.32-0.51
							c-0.69-1.1-1.33-2.22-2-3.32c-0.66-1.11-1.29-2.24-1.94-3.35l-0.38-0.65l0.68-0.33c1.29-0.63,2.6-1.24,3.9-1.86
							c1.31-0.6,2.62-1.21,3.94-1.79l0.52-0.23l0.23,0.47c0.52,1.05,1.04,2.1,1.54,3.17l0.18,0.38l-0.33,0.17
							c-1.64,0.85-3.29,1.67-4.97,2.43c1.49-1.1,3.01-2.14,4.55-3.15l-0.16,0.56c-0.62-1-1.21-2.01-1.81-3.02l0.75,0.24
							c-1.27,0.68-2.56,1.33-3.85,1.98c-1.29,0.64-2.58,1.29-3.88,1.91l0.31-0.98c0.62,1.13,1.26,2.26,1.87,3.39
							c0.6,1.14,1.23,2.27,1.82,3.42l-0.78-0.21c1.29-0.72,2.6-1.42,3.91-2.11C80.57,139.45,81.89,138.77,83.24,138.15z"/>
						<path d="M74.78,119.58c-1.37,0.58-2.77,1.08-4.16,1.6c-1.4,0.5-2.79,0.99-4.2,1.46l-0.52,0.17l-0.18-0.57
							c-0.39-1.23-0.73-2.48-1.1-3.72c-0.36-1.24-0.69-2.49-1.04-3.73l-0.2-0.72l0.74-0.15c1.41-0.29,2.83-0.55,4.25-0.83
							c1.42-0.25,2.84-0.51,4.26-0.74l0.56-0.09l0.11,0.51c0.24,1.15,0.48,2.3,0.7,3.45l0.08,0.42l-0.37,0.08
							c-1.8,0.41-3.6,0.79-5.42,1.11c1.72-0.69,3.45-1.31,5.2-1.91l-0.29,0.5c-0.35-1.12-0.67-2.25-1-3.38l0.67,0.42
							c-1.4,0.34-2.81,0.64-4.22,0.96c-1.41,0.29-2.82,0.6-4.24,0.88l0.54-0.87c0.32,1.25,0.66,2.5,0.97,3.75
							c0.3,1.26,0.62,2.51,0.9,3.77l-0.7-0.39c1.43-0.37,2.87-0.72,4.32-1.06C71.87,120.17,73.32,119.84,74.78,119.58z"/>
					</g>
					<g>
						<path d="M73.71,63.08c0,0,0.01-0.56,0.19-1.32c0.16-0.77,0.5-1.73,0.94-2.64c0.44-0.91,0.99-1.78,1.49-2.38
							c0.48-0.61,0.92-0.96,0.92-0.96s-0.01,0.56-0.19,1.32c-0.16,0.77-0.5,1.73-0.95,2.64c-0.44,0.91-0.99,1.78-1.49,2.38
							C74.15,62.73,73.71,63.08,73.71,63.08z"/>
						<path d="M78.88,52.58c0,0,0.09-0.52,0.37-1.18c0.27-0.68,0.73-1.5,1.29-2.26c0.56-0.75,1.2-1.44,1.77-1.9
							c0.55-0.47,1.02-0.7,1.02-0.7s-0.09,0.52-0.37,1.19c-0.27,0.68-0.73,1.5-1.29,2.26c-0.56,0.75-1.21,1.44-1.78,1.9
							C79.35,52.34,78.88,52.58,78.88,52.58z"/>
						<path d="M70.41,72.83c0,0-0.08-0.55-0.02-1.33c0.04-0.78,0.22-1.79,0.51-2.76c0.29-0.97,0.69-1.91,1.09-2.58
							c0.38-0.68,0.76-1.1,0.76-1.1s0.08,0.55,0.03,1.33c-0.04,0.78-0.22,1.79-0.51,2.76c-0.29,0.97-0.69,1.91-1.09,2.58
							C70.78,72.41,70.41,72.83,70.41,72.83z"/>
						<path d="M67.75,81.43c0,0-0.14-0.45-0.16-1.08c-0.04-0.64,0.04-1.46,0.22-2.25c0.19-0.79,0.49-1.56,0.81-2.11
							c0.31-0.55,0.63-0.9,0.63-0.9s0.14,0.45,0.16,1.08c0.04,0.64-0.04,1.46-0.23,2.25c-0.19,0.79-0.49,1.56-0.81,2.11
							C68.07,81.09,67.75,81.43,67.75,81.43z"/>
						<path d="M73.2,59.84c0,0-0.1,0.01-0.3,0.02c-0.19,0.01-0.47,0.05-0.82,0.15c-0.34,0.1-0.76,0.26-1.15,0.56
							c-0.4,0.29-0.81,0.69-1.1,1.21c-0.29,0.52-0.48,1.15-0.5,1.81c0,0.16,0.01,0.34,0.02,0.48c0.03,0.18,0.04,0.38,0.09,0.52
							c0.07,0.31,0.21,0.64,0.37,0.93c0.33,0.6,0.83,1.1,1.41,1.46c0.3,0.17,0.62,0.3,0.94,0.4c0.33,0.09,0.67,0.13,1.02,0.13
							c0.12-0.01,0.42-0.01,0.53-0.04c0.15-0.01,0.32-0.06,0.48-0.1c0.33-0.1,0.64-0.23,0.94-0.4c0.59-0.35,1.08-0.86,1.41-1.46
							c0.33-0.6,0.5-1.26,0.48-1.95c-0.01-0.63-0.2-1.28-0.49-1.79c-0.29-0.53-0.7-0.92-1.09-1.21c-0.4-0.3-0.81-0.46-1.15-0.56
							c-0.34-0.1-0.63-0.14-0.82-0.15C73.3,59.85,73.2,59.84,73.2,59.84z M73.2,59.84c0,0,0.1,0,0.3,0.01
							c0.19,0.01,0.48,0.03,0.83,0.13c0.69,0.18,1.7,0.62,2.49,1.64c0.39,0.52,0.71,1.14,0.86,1.92c0.14,0.72,0.11,1.59-0.18,2.4
							c-0.15,0.41-0.37,0.8-0.63,1.17c-0.27,0.36-0.61,0.68-0.99,0.96c-0.38,0.28-0.81,0.49-1.26,0.64
							c-0.23,0.06-0.46,0.13-0.72,0.17c-0.29,0.05-0.41,0.05-0.7,0.06c-0.96-0.02-1.92-0.3-2.68-0.87c-0.37-0.28-0.71-0.6-0.99-0.96
							c-0.26-0.37-0.48-0.76-0.63-1.17c-0.14-0.41-0.23-0.81-0.26-1.25c-0.02-0.22,0-0.39,0-0.58c0.01-0.22,0.04-0.4,0.07-0.59
							c0.15-0.75,0.47-1.4,0.86-1.9c0.8-1.02,1.8-1.46,2.49-1.64c0.35-0.09,0.64-0.12,0.83-0.13C73.1,59.84,73.2,59.84,73.2,59.84z"
							/>
						<path d="M73.2,78.58c-1.47-0.2-2.93-0.47-4.39-0.74c-1.46-0.28-2.91-0.57-4.36-0.88l-0.54-0.12l0.13-0.58
							c0.29-1.26,0.63-2.51,0.94-3.76c0.32-1.25,0.67-2.5,1-3.74l0.19-0.72l0.72,0.25c1.36,0.47,2.72,0.97,4.08,1.45
							c1.35,0.51,2.71,1,4.05,1.53l0.53,0.21l-0.17,0.5c-0.38,1.11-0.75,2.22-1.16,3.33l-0.15,0.4l-0.36-0.11
							c-1.76-0.56-3.5-1.15-5.23-1.81c1.83,0.28,3.64,0.63,5.45,1l-0.5,0.28c0.27-1.14,0.57-2.28,0.86-3.41l0.36,0.7
							c-1.38-0.42-2.75-0.88-4.12-1.32c-1.36-0.47-2.73-0.92-4.09-1.4l0.91-0.48c-0.36,1.24-0.71,2.49-1.08,3.72
							c-0.38,1.23-0.74,2.48-1.14,3.71l-0.41-0.7c1.42,0.41,2.84,0.84,4.25,1.28C70.39,77.61,71.8,78.06,73.2,78.58z"/>
						<path d="M80.37,59.47c-1.38-0.57-2.72-1.19-4.07-1.81c-1.34-0.64-2.67-1.28-4-1.94l-0.49-0.25l0.28-0.53
							c0.6-1.15,1.24-2.27,1.85-3.41c0.63-1.13,1.27-2.25,1.91-3.37l0.37-0.65l0.63,0.42c1.2,0.79,2.39,1.62,3.58,2.42
							c1.18,0.83,2.37,1.65,3.54,2.49l0.46,0.33l-0.29,0.44c-0.65,0.98-1.28,1.96-1.95,2.93l-0.24,0.35l-0.32-0.2
							c-1.56-0.98-3.1-1.99-4.62-3.06c1.7,0.73,3.37,1.52,5.02,2.33l-0.56,0.15c0.55-1.04,1.12-2.06,1.68-3.09l0.17,0.77
							c-1.23-0.76-2.44-1.54-3.66-2.31c-1.2-0.79-2.42-1.57-3.61-2.38l1-0.23c-0.66,1.11-1.31,2.23-1.97,3.33
							c-0.68,1.1-1.33,2.21-2.03,3.3l-0.22-0.78c1.28,0.75,2.54,1.53,3.8,2.31C77.9,57.83,79.15,58.62,80.37,59.47z"/>
					</g>
					<g>
						<path d="M120.1,18.63c0,0,0.4-0.39,1.07-0.79c0.66-0.42,1.59-0.85,2.55-1.18c0.96-0.32,1.96-0.54,2.74-0.61
							c0.77-0.08,1.33-0.02,1.33-0.02s-0.4,0.39-1.07,0.79c-0.66,0.42-1.59,0.85-2.55,1.18c-0.96,0.32-1.96,0.54-2.74,0.61
							C120.66,18.69,120.1,18.63,120.1,18.63z"/>
						<path d="M131.21,14.94c0,0,0.43-0.3,1.1-0.57c0.67-0.29,1.58-0.53,2.51-0.67c0.93-0.13,1.87-0.15,2.6-0.07
							c0.72,0.07,1.22,0.24,1.22,0.24s-0.43,0.3-1.1,0.57c-0.67,0.29-1.58,0.53-2.51,0.67c-0.93,0.13-1.87,0.15-2.6,0.07
							C131.7,15.1,131.21,14.94,131.21,14.94z"/>
						<path d="M110.83,23.12c0,0,0.34-0.45,0.93-0.95c0.58-0.52,1.43-1.1,2.33-1.57c0.9-0.47,1.85-0.85,2.61-1.04
							c0.75-0.21,1.31-0.23,1.31-0.23s-0.34,0.45-0.93,0.95c-0.58,0.52-1.43,1.1-2.33,1.57c-0.9,0.47-1.85,0.85-2.61,1.03
							C111.39,23.09,110.83,23.12,110.83,23.12z"/>
						<path d="M102.84,27.26c0,0,0.23-0.41,0.66-0.87c0.42-0.48,1.06-1,1.76-1.42c0.7-0.42,1.45-0.75,2.07-0.9
							c0.61-0.17,1.08-0.18,1.08-0.18s-0.22,0.42-0.66,0.88c-0.42,0.48-1.06,1-1.76,1.42c-0.7,0.42-1.45,0.74-2.07,0.9
							C103.31,27.25,102.84,27.26,102.84,27.26z"/>
						<path d="M122.05,15.99c0,0-0.08-0.07-0.22-0.2c-0.14-0.13-0.37-0.3-0.68-0.47c-0.31-0.17-0.72-0.36-1.21-0.43
							c-0.49-0.08-1.06-0.09-1.63,0.07c-0.58,0.15-1.15,0.46-1.63,0.91c-0.11,0.11-0.24,0.25-0.33,0.36
							c-0.11,0.14-0.24,0.3-0.31,0.43c-0.17,0.26-0.3,0.6-0.41,0.92c-0.19,0.65-0.2,1.36-0.05,2.03c0.09,0.33,0.22,0.65,0.38,0.95
							c0.17,0.3,0.38,0.57,0.62,0.82c0.09,0.08,0.3,0.3,0.4,0.35c0.11,0.1,0.26,0.19,0.41,0.28c0.3,0.16,0.62,0.29,0.95,0.39
							c0.66,0.17,1.37,0.17,2.03-0.02c0.66-0.19,1.25-0.53,1.72-1.02c0.44-0.45,0.77-1.04,0.93-1.61c0.17-0.57,0.17-1.14,0.1-1.63
							c-0.06-0.49-0.24-0.9-0.41-1.22c-0.17-0.32-0.34-0.54-0.46-0.69C122.11,16.07,122.05,15.99,122.05,15.99z M122.05,15.99
							c0,0,0.07,0.08,0.2,0.22c0.13,0.14,0.31,0.36,0.49,0.68c0.36,0.62,0.75,1.64,0.58,2.93c-0.09,0.64-0.32,1.31-0.76,1.96
							c-0.41,0.6-1.05,1.19-1.84,1.55c-0.39,0.18-0.83,0.3-1.27,0.37c-0.45,0.06-0.92,0.04-1.38-0.03
							c-0.46-0.07-0.92-0.23-1.34-0.45c-0.21-0.12-0.41-0.23-0.62-0.4c-0.24-0.17-0.32-0.26-0.53-0.45
							c-0.66-0.7-1.13-1.58-1.26-2.52c-0.06-0.46-0.07-0.93-0.01-1.38c0.08-0.45,0.2-0.88,0.39-1.27c0.19-0.39,0.41-0.74,0.71-1.06
							c0.14-0.17,0.28-0.28,0.41-0.41c0.17-0.15,0.31-0.25,0.47-0.36c0.64-0.41,1.33-0.64,1.96-0.72c1.29-0.15,2.31,0.26,2.92,0.62
							c0.31,0.18,0.53,0.37,0.67,0.5C121.97,15.92,122.05,15.99,122.05,15.99z"/>
						<path d="M108.7,29.14c-0.89-1.19-1.72-2.42-2.56-3.65c-0.82-1.23-1.64-2.47-2.43-3.72l-0.3-0.47l0.51-0.31
							c1.1-0.68,2.23-1.31,3.34-1.97c1.12-0.65,2.25-1.27,3.37-1.91l0.65-0.37l0.33,0.68c0.62,1.3,1.22,2.61,1.83,3.92
							c0.59,1.32,1.18,2.63,1.75,3.96l0.22,0.52l-0.47,0.23c-1.06,0.51-2.11,1.02-3.18,1.51l-0.39,0.18l-0.17-0.34
							c-0.83-1.64-1.64-3.3-2.39-5c1.08,1.5,2.11,3.03,3.11,4.58l-0.56-0.16c1-0.61,2.02-1.2,3.03-1.79l-0.25,0.75
							c-0.67-1.28-1.3-2.57-1.95-3.86c-0.62-1.3-1.26-2.59-1.87-3.9l0.98,0.32c-1.14,0.61-2.27,1.24-3.41,1.85
							c-1.15,0.59-2.28,1.21-3.44,1.79l0.21-0.78c0.71,1.3,1.39,2.61,2.07,3.93C107.42,26.46,108.09,27.78,108.7,29.14z"/>
						<path d="M127.34,20.84c-0.56-1.38-1.06-2.78-1.56-4.17c-0.49-1.4-0.97-2.8-1.42-4.21l-0.17-0.53l0.57-0.18
							c1.24-0.38,2.48-0.71,3.73-1.07c1.24-0.35,2.5-0.67,3.74-1.01l0.72-0.2l0.15,0.75c0.28,1.41,0.53,2.84,0.79,4.25
							c0.24,1.42,0.49,2.84,0.71,4.27l0.09,0.56l-0.51,0.1c-1.15,0.23-2.3,0.46-3.46,0.67l-0.42,0.07l-0.08-0.37
							c-0.4-1.8-0.76-3.61-1.06-5.43c0.67,1.72,1.28,3.46,1.86,5.21l-0.5-0.29c1.12-0.34,2.26-0.65,3.38-0.97l-0.43,0.66
							c-0.32-1.41-0.62-2.82-0.92-4.23c-0.28-1.41-0.57-2.83-0.84-4.24l0.87,0.55c-1.25,0.31-2.5,0.64-3.76,0.93
							c-1.26,0.29-2.51,0.6-3.78,0.87l0.4-0.7c0.36,1.44,0.7,2.88,1.02,4.33C126.77,17.93,127.09,19.37,127.34,20.84z"/>
					</g>
					<path d="M212.63,39.57c0,0,0.45,0.25,0.97,0.74c0.53,0.47,1.13,1.18,1.63,1.94c0.5,0.77,0.91,1.59,1.12,2.27
						c0.23,0.67,0.28,1.18,0.28,1.18s-0.45-0.25-0.97-0.73c-0.53-0.47-1.13-1.18-1.63-1.94c-0.5-0.77-0.9-1.6-1.12-2.27
						C212.68,40.08,212.63,39.57,212.63,39.57z"/>
					<path d="M234.7,100.47c0,0,0.17,0.49,0.24,1.19c0.09,0.71,0.07,1.63-0.05,2.53c-0.13,0.91-0.37,1.8-0.65,2.45
						c-0.26,0.66-0.57,1.07-0.57,1.07s-0.17-0.49-0.24-1.19c-0.09-0.71-0.07-1.63,0.06-2.53c0.13-0.91,0.37-1.8,0.66-2.45
						C234.4,100.89,234.7,100.47,234.7,100.47z"/>
					<path d="M207.27,159.45c0,0-0.28,0.5-0.8,1.09c-0.51,0.61-1.28,1.31-2.11,1.92c-0.83,0.61-1.73,1.13-2.47,1.43
						c-0.72,0.32-1.28,0.43-1.28,0.43s0.28-0.5,0.8-1.09c0.51-0.61,1.28-1.31,2.11-1.92c0.84-0.61,1.74-1.12,2.47-1.43
						C206.71,159.57,207.27,159.45,207.27,159.45z"/>
					<path d="M82.69,146.9c0,0,0.48,0.3,1.03,0.84c0.57,0.54,1.23,1.32,1.78,2.17c0.56,0.85,1.02,1.76,1.28,2.51
						c0.28,0.73,0.35,1.29,0.35,1.29s-0.48-0.29-1.04-0.84c-0.58-0.53-1.23-1.32-1.78-2.18c-0.55-0.85-1.02-1.77-1.27-2.51
						C82.77,147.45,82.69,146.9,82.69,146.9z"/>
					<path d="M66.36,84.26c0,0,0.16,0.56,0.21,1.36c0.07,0.81,0.03,1.86-0.13,2.9c-0.16,1.04-0.42,2.06-0.73,2.82
						c-0.28,0.76-0.6,1.24-0.6,1.24s-0.16-0.56-0.21-1.36c-0.07-0.81-0.03-1.86,0.13-2.9c0.16-1.04,0.42-2.06,0.73-2.82
						C66.05,84.75,66.36,84.26,66.36,84.26z"/>
					<path d="M99.45,28.73c0,0-0.28,0.51-0.8,1.12c-0.52,0.63-1.29,1.35-2.13,1.99c-0.84,0.63-1.75,1.18-2.49,1.51
						c-0.73,0.34-1.3,0.47-1.3,0.47s0.28-0.51,0.8-1.12c0.52-0.63,1.29-1.35,2.13-1.99c0.84-0.63,1.75-1.18,2.49-1.51
						C98.89,28.86,99.45,28.73,99.45,28.73z"/>
				</g>
				<g>
					<circle cx="150" cy="105.52" r="5.57"/>
					<g>
						<polygon points="126.39,109.31 126.37,109.28 145.83,85.21 137.2,76.1 121.09,104 110.42,93.33 97.22,93.33 116.26,112.37 
							97.22,145.34 120.47,116.58 120.49,116.6 						"/>
						<polygon points="202.78,93.33 189.58,93.33 178.91,104 158.8,69.17 169.79,55.58 157.77,40.47 142.23,40.47 130.21,55.65 
							149,55.65 141.2,69.17 154.02,85.03 202.78,145.34 183.74,112.37 						"/>
						<polygon points="150,132.91 128.81,111.72 122.4,118.51 150,146.11 177.48,118.63 171.06,111.85 						"/>
					</g>
				</g>
			</g>
		</g>
		<g>
			<path d="M211.15,28.7h16.59v20c0.48,0.79,0.96,1.59,1.42,2.4V27.28h-19.61C210.09,27.75,210.62,28.22,211.15,28.7z"/>
			<path d="M72.26,48.7v-20h16.59c0.53-0.48,1.06-0.95,1.6-1.42H70.84V51.1C71.3,50.29,71.77,49.49,72.26,48.7z"/>
			<path d="M227.74,143.82v40.37h-53.76c-1.98,0.54-3.98,1.01-6.01,1.42h61.19v-44.19C228.7,142.23,228.23,143.02,227.74,143.82z"/>
			<path d="M126.01,184.19H72.26v-40.37c-0.48-0.79-0.96-1.59-1.42-2.4v44.19h61.19C129.99,185.2,127.99,184.73,126.01,184.19z"/>
		</g>
	</g>
	<rect x="70.84" y="184.24" width="158.33" height="1.36"/>
</g>
<g>
</g>
<g>
</g>
<g>
</g>
<g>
</g>
<g>
</g>
<g>
</g>
<g>
</g>
<g>
</g>
<g>
</g>
<g>
</g>
<g>
</g>
<g>
</g>
<g>
</g>
<g>
</g>
<g>
</g>
</svg>
