<svg xmlns="http://www.w3.org/2000/svg" width="160.319" height="216.754" viewBox="0 0 160.319 216.754">
  <g id="Grupo_239" data-name="Grupo 239" transform="translate(-461.923 -135.099)">
    <g id="Grupo_209" data-name="Grupo 209" transform="translate(462.165 303.382)">
      <g id="Grupo_201" data-name="Grupo 201">
        <path id="Trazado_373" data-name="Trazado 373" d="M479.714,409.569l-.807.107-.574.073a.908.908,0,0,0-.466.305.969.969,0,0,0-.17.305,1.466,1.466,0,0,0-.045.414v5.535l-1.811.593a10.956,10.956,0,0,1-1.918.449,14.619,14.619,0,0,1-5.308-.225,7.22,7.22,0,0,1-2.385-.96,8.965,8.965,0,0,1-3-3.123,8.667,8.667,0,0,1-.924-4.146,8.8,8.8,0,0,1,2.776-6.534,9.158,9.158,0,0,1,6.627-2.71,16.508,16.508,0,0,1,2.561.179,12.612,12.612,0,0,1,2.078.5l.555.179c.179.071.28.114.3.125a.949.949,0,0,1,.25.233.935.935,0,0,1,.153.3,1.31,1.31,0,0,1,.044.367v3.03h-.627l-.161-.861a3.493,3.493,0,0,0-1.558-2.394,5.559,5.559,0,0,0-3.116-.834,6.469,6.469,0,0,0-5.444,2.352,8.544,8.544,0,0,0-1.575,5.385,10.253,10.253,0,0,0,1.488,5.96,7.182,7.182,0,0,0,7.217,2.208,1.855,1.855,0,0,0,1.013-.791,2.408,2.408,0,0,0,.287-.943,9.758,9.758,0,0,0,.09-1.357v-2.247a2.4,2.4,0,0,0-.044-.494,1.258,1.258,0,0,0-.188-.423,1.06,1.06,0,0,0-.7-.359l-1-.107-.682-.054v-.629h7.065Z" transform="translate(-462.303 -399.652)" fill="#dac078"/>
        <path id="Trazado_374" data-name="Trazado 374" d="M507.165,417.373h-2.188a2.819,2.819,0,0,1-.637-.072,1.7,1.7,0,0,1-.529-.207,1.132,1.132,0,0,1-.377-.42l-4.046-6.94h-2.32v5.752a1.689,1.689,0,0,0,.063.5.879.879,0,0,0,.26.377,1.874,1.874,0,0,0,1.255.4h.466v.61h-6.563v-.611l.825-.108a3.993,3.993,0,0,0,.753-.125.817.817,0,0,0,.278-.242,1.043,1.043,0,0,0,.206-.4,1.723,1.723,0,0,0,.054-.44v-13.5a1.067,1.067,0,0,0-.2-.647,1.046,1.046,0,0,0-.493-.377,2.014,2.014,0,0,0-.69-.108h-.736v-.663H498.9a13.5,13.5,0,0,1,2.546.179,3.862,3.862,0,0,1,2.134,1.165,4.426,4.426,0,0,1,1.094,2.976,5.035,5.035,0,0,1-.457,2.089,5.31,5.31,0,0,1-1.317,1.784,4.794,4.794,0,0,1-.654.493,5.293,5.293,0,0,1-.707.368l-.3.143,3.637,5.364c.251.37.463.661.636.87a8.983,8.983,0,0,0,.69.726q.251.234.475.4c.149.113.314.23.493.349Zm-5.828-15.583a2.163,2.163,0,0,0-.932-.672,4.038,4.038,0,0,0-1.273-.17h-2.044L497.07,409h1.291a8.883,8.883,0,0,0,1.443-.089,2.7,2.7,0,0,0,1.085-.5,2.9,2.9,0,0,0,1.022-1.426,6.005,6.005,0,0,0,.34-2.053,6.458,6.458,0,0,0-.242-1.793A3.529,3.529,0,0,0,501.338,401.791Z" transform="translate(-473.31 -399.836)" fill="#dac078"/>
        <path id="Trazado_375" data-name="Trazado 375" d="M534.657,417.219h-5.72v-.61h.323a1.383,1.383,0,0,0,.933-.359.845.845,0,0,0,.251-.7v-.287c-.034-.1-.055-.162-.067-.2l-1.184-3.567h-6.262l-1.125,3.176a1.71,1.71,0,0,0-.131.681,1.163,1.163,0,0,0,.3.86,1.441,1.441,0,0,0,.969.394v.61H518.43v-.576l.215-.034a1.783,1.783,0,0,0,.923-.392,2.649,2.649,0,0,0,.619-.73,6.534,6.534,0,0,0,.448-1.012l5.577-14.74h1.434l5.326,15.547a1.919,1.919,0,0,0,.735,1.039,1.8,1.8,0,0,0,.367.215.986.986,0,0,0,.385.072h.2Zm-5.771-6.617-2.549-8.106-3.105,8.106Z" transform="translate(-482.728 -399.683)" fill="#dac078"/>
        <path id="Trazado_376" data-name="Trazado 376" d="M565.545,400.822h-.359a1.841,1.841,0,0,0-1.506.681,1.546,1.546,0,0,0-.314.628,4.265,4.265,0,0,0-.063.825v14.417H562.5l-12-14.31v11.548a3.589,3.589,0,0,0,.045.645,1.73,1.73,0,0,0,.224.538,1.7,1.7,0,0,0,.834.735,2.781,2.781,0,0,0,1.1.233h.5v.61H547.2v-.61h.359a1.838,1.838,0,0,0,1.542-.752,1.436,1.436,0,0,0,.314-.61,4.44,4.44,0,0,0,.062-.843V402.49a3.4,3.4,0,0,0-1.2-1.2,3.2,3.2,0,0,0-1.686-.466v-.663l4.432.013,11.239,13.379V402.925a5.71,5.71,0,0,0-.027-.593,1.493,1.493,0,0,0-.26-.611,1.923,1.923,0,0,0-.78-.674,2.427,2.427,0,0,0-1.049-.225h-.61v-.663h6.007Z" transform="translate(-492.976 -399.836)" fill="#dac078"/>
        <path id="Trazado_377" data-name="Trazado 377" d="M602.046,412.944l-.734,4.429H589.244v-.609l.824-.107a4.641,4.641,0,0,0,.619-.125.924.924,0,0,0,.413-.251,1.028,1.028,0,0,0,.215-.6,8.543,8.543,0,0,0,.045-.887V402a1.545,1.545,0,0,0-.036-.349.84.84,0,0,0-.162-.314,1.082,1.082,0,0,0-.484-.349,1.953,1.953,0,0,0-.7-.117l-.735-.053v-.663h6.6v.663l-.9.053a1.6,1.6,0,0,0-.591.1.8.8,0,0,0-.386.3,1.027,1.027,0,0,0-.171.385,2.057,2.057,0,0,0-.036.386v12.641a4.193,4.193,0,0,0,.063.852,1.145,1.145,0,0,0,.331.547,2.2,2.2,0,0,0,1.56.466h1.7a6.228,6.228,0,0,0,1.219-.1,2.822,2.822,0,0,0,.995-.439,3.246,3.246,0,0,0,.942-1.059,7.3,7.3,0,0,0,.484-.968l.377-1.058Z" transform="translate(-508.497 -399.836)" fill="#dac078"/>
        <path id="Trazado_378" data-name="Trazado 378" d="M630.655,408.433a8.951,8.951,0,0,1-2.672,6.42,8.612,8.612,0,0,1-12.211.431,8.285,8.285,0,0,1-2.708-6.348,8.967,8.967,0,0,1,2.761-6.563,8.313,8.313,0,0,1,6.043-2.636,8.717,8.717,0,0,1,6.222,2.313A8.37,8.37,0,0,1,630.655,408.433Zm-2.8-.107a9.026,9.026,0,0,0-1.524-5.2,5.417,5.417,0,0,0-4.7-2.6,4.871,4.871,0,0,0-4.322,2.331,10.392,10.392,0,0,0-1.416,5.756,9.46,9.46,0,0,0,1.685,5.54,5.25,5.25,0,0,0,8.858.233A10.978,10.978,0,0,0,627.858,408.325Z" transform="translate(-517.165 -399.683)" fill="#dac078"/>
        <path id="Trazado_379" data-name="Trazado 379" d="M661.569,409.569l-.807.107-.574.073a.909.909,0,0,0-.467.305.992.992,0,0,0-.17.305,1.462,1.462,0,0,0-.045.414v5.535l-1.811.593a10.956,10.956,0,0,1-1.918.449,14.619,14.619,0,0,1-5.308-.225,7.214,7.214,0,0,1-2.385-.96,8.962,8.962,0,0,1-3-3.123,8.669,8.669,0,0,1-.924-4.146,8.8,8.8,0,0,1,2.776-6.534,9.156,9.156,0,0,1,6.627-2.71,16.506,16.506,0,0,1,2.56.179,12.644,12.644,0,0,1,2.078.5l.555.179c.179.071.281.114.3.125a.935.935,0,0,1,.251.233.919.919,0,0,1,.152.3,1.308,1.308,0,0,1,.045.367v3.03h-.627l-.161-.861a3.492,3.492,0,0,0-1.558-2.394,5.556,5.556,0,0,0-3.115-.834,6.467,6.467,0,0,0-5.443,2.352,8.54,8.54,0,0,0-1.576,5.385,10.254,10.254,0,0,0,1.488,5.96,7.183,7.183,0,0,0,7.218,2.208,1.856,1.856,0,0,0,1.013-.791,2.408,2.408,0,0,0,.287-.943,9.767,9.767,0,0,0,.09-1.357v-2.247a2.312,2.312,0,0,0-.045-.494,1.252,1.252,0,0,0-.188-.423,1.06,1.06,0,0,0-.7-.359l-1-.107-.682-.054v-.629h7.065Z" transform="translate(-528.48 -399.652)" fill="#dac078"/>
        <path id="Trazado_380" data-name="Trazado 380" d="M681.512,417.373h-6.6v-.609l.843-.107a5.019,5.019,0,0,0,.663-.108.827.827,0,0,0,.4-.323,1.244,1.244,0,0,0,.207-.77V402a1.512,1.512,0,0,0-.036-.349.834.834,0,0,0-.162-.314,1.083,1.083,0,0,0-.484-.349,1.953,1.953,0,0,0-.7-.117l-.735-.053v-.663h6.6v.663l-.9.053a1.519,1.519,0,0,0-.592.1.988.988,0,0,0-.413.349.8.8,0,0,0-.143.331,2.1,2.1,0,0,0-.036.386v13.431a1.663,1.663,0,0,0,.062.511.845.845,0,0,0,.278.367,1.133,1.133,0,0,0,.565.234q.349.053.69.09l.483.089Z" transform="translate(-539.672 -399.836)" fill="#dac078"/>
        <path id="Trazado_381" data-name="Trazado 381" d="M704.673,417.219h-5.72v-.61h.323a1.382,1.382,0,0,0,.932-.359.845.845,0,0,0,.251-.7v-.287c-.033-.1-.055-.162-.066-.2l-1.184-3.567h-6.263l-1.125,3.176a1.71,1.71,0,0,0-.13.681,1.162,1.162,0,0,0,.3.86,1.442,1.442,0,0,0,.969.394v.61h-4.519v-.576l.215-.034a1.788,1.788,0,0,0,.924-.392,2.649,2.649,0,0,0,.619-.73,6.531,6.531,0,0,0,.448-1.012l5.577-14.74h1.434l5.325,15.547a1.919,1.919,0,0,0,.735,1.039,1.818,1.818,0,0,0,.367.215.99.99,0,0,0,.386.072h.2ZM698.9,410.6l-2.549-8.106-3.1,8.106Z" transform="translate(-544.596 -399.683)" fill="#dac078"/>
      </g>
      <g id="Grupo_202" data-name="Grupo 202" transform="translate(17.873 22.667)">
        <path id="Trazado_382" data-name="Trazado 382" d="M502.937,441.231a6.735,6.735,0,0,1-2.169,5.422,7.462,7.462,0,0,1-5.025,1.639H490.4v-.449l.661-.066a.935.935,0,0,0,.74-.318.765.765,0,0,0,.178-.338,2.523,2.523,0,0,0,.034-.47v-9.729a.789.789,0,0,0-.146-.477.779.779,0,0,0-.364-.279,1.486,1.486,0,0,0-.509-.079h-.542V435.6h5.3a12.791,12.791,0,0,1,3.425.383,5.135,5.135,0,0,1,2.684,1.653A5.59,5.59,0,0,1,502.937,441.231Zm-4.576-4.523a5.374,5.374,0,0,0-1.494-.45,14.5,14.5,0,0,0-1.826-.093h-1.3v9.68a3.928,3.928,0,0,0,.092,1.012,1.071,1.071,0,0,0,.344.522,1.706,1.706,0,0,0,1.085.3h1.058a3.811,3.811,0,0,0,.781-.072,7.747,7.747,0,0,0,.819-.232,3.929,3.929,0,0,0,2.249-2.09,7.387,7.387,0,0,0,.74-3.372,7.536,7.536,0,0,0-.648-3.174A3.8,3.8,0,0,0,498.361,436.709Z" transform="translate(-490.4 -435.4)" fill="#dac078"/>
        <path id="Trazado_383" data-name="Trazado 383" d="M522.082,445.04l-.555,3.253h-9.006v-.45l.609-.093a2.671,2.671,0,0,0,.449-.092.676.676,0,0,0,.3-.219.754.754,0,0,0,.172-.345,2.669,2.669,0,0,0,.033-.471v-9.688a.839.839,0,0,0-.139-.483.725.725,0,0,0-.37-.286,1.565,1.565,0,0,0-.51-.079h-.542V435.6h8.252v2.922h-.45l-.146-.7q-.132-.489-.2-.674a1.437,1.437,0,0,0-.391-.555,1.573,1.573,0,0,0-.536-.317,2.055,2.055,0,0,0-.648-.093H515.84v5.184h1.971a1.416,1.416,0,0,0,.873-.291,1.153,1.153,0,0,0,.311-.417,2.1,2.1,0,0,0,.139-.575l.026-.3h.463v3.835h-.476l-.027-.344a1.612,1.612,0,0,0-.119-.522,1.4,1.4,0,0,0-.291-.4,1.231,1.231,0,0,0-.516-.3,2.626,2.626,0,0,0-.78-.1H515.84v3.915a6.888,6.888,0,0,0,.027.82,1.181,1.181,0,0,0,.417.695,1.634,1.634,0,0,0,1.064.284h1.667a2.943,2.943,0,0,0,.688-.066,2.247,2.247,0,0,0,.635-.3,2.194,2.194,0,0,0,.674-.754,4.3,4.3,0,0,0,.331-.727l.291-.78Z" transform="translate(-498.45 -435.4)" fill="#dac078"/>
        <path id="Trazado_384" data-name="Trazado 384" d="M549.243,444.966l-.635,2.656a8.933,8.933,0,0,1-2.03.584,12.16,12.16,0,0,1-2.056.2,7.215,7.215,0,0,1-5.184-1.787,5.884,5.884,0,0,1-1.786-4.475,6.586,6.586,0,0,1,2-4.878,6.786,6.786,0,0,1,4.965-1.979,11.946,11.946,0,0,1,1.971.145,5.446,5.446,0,0,1,2.2.794v2.71h-.463l-.119-.648a2.56,2.56,0,0,0-1.184-1.759,4.369,4.369,0,0,0-2.4-.622,4.213,4.213,0,0,0-3.822,1.987,7.836,7.836,0,0,0-1.031,4.249,6.182,6.182,0,0,0,1.2,3.972,4.736,4.736,0,0,0,3.941,1.695,4.36,4.36,0,0,0,1.521-.245,4.423,4.423,0,0,0,1.283-.764,3.282,3.282,0,0,0,.548-.578,3.578,3.578,0,0,0,.391-.751l.212-.505Z" transform="translate(-507.559 -435.286)" fill="#dac078"/>
        <path id="Trazado_385" data-name="Trazado 385" d="M571.295,441.7a6.6,6.6,0,0,1-1.97,4.734,6.351,6.351,0,0,1-9.006.318,6.112,6.112,0,0,1-2-4.682,6.612,6.612,0,0,1,2.037-4.84,6.132,6.132,0,0,1,4.456-1.943,6.427,6.427,0,0,1,4.589,1.705A6.175,6.175,0,0,1,571.295,441.7Zm-2.062-.079a6.66,6.66,0,0,0-1.124-3.835,4,4,0,0,0-3.465-1.918,3.592,3.592,0,0,0-3.187,1.719,7.66,7.66,0,0,0-1.044,4.245,6.978,6.978,0,0,0,1.243,4.087,3.873,3.873,0,0,0,6.533.172A8.1,8.1,0,0,0,569.232,441.62Z" transform="translate(-515.117 -435.286)" fill="#dac078"/>
        <path id="Trazado_386" data-name="Trazado 386" d="M590.425,445.026l-.542,3.266h-8.9v-.449l.608-.079a3.279,3.279,0,0,0,.457-.092.679.679,0,0,0,.3-.185.753.753,0,0,0,.159-.443,6.288,6.288,0,0,0,.033-.654v-9.432a1.128,1.128,0,0,0-.027-.258.618.618,0,0,0-.119-.231.8.8,0,0,0-.358-.258,1.436,1.436,0,0,0-.515-.086l-.543-.039V435.6h4.867v.489l-.661.039a1.193,1.193,0,0,0-.436.073.6.6,0,0,0-.284.218.768.768,0,0,0-.125.285,1.5,1.5,0,0,0-.027.284v9.323a3.086,3.086,0,0,0,.046.628.842.842,0,0,0,.245.4,1.617,1.617,0,0,0,1.15.344h1.256a4.64,4.64,0,0,0,.9-.072,2.079,2.079,0,0,0,.734-.324,2.392,2.392,0,0,0,.695-.78,5.455,5.455,0,0,0,.357-.714l.277-.781Z" transform="translate(-523.363 -435.4)" fill="#dac078"/>
        <path id="Trazado_387" data-name="Trazado 387" d="M611.524,441.7a6.6,6.6,0,0,1-1.97,4.734,6.351,6.351,0,0,1-9.005.318,6.109,6.109,0,0,1-2-4.682,6.612,6.612,0,0,1,2.037-4.84,6.132,6.132,0,0,1,4.456-1.943,6.428,6.428,0,0,1,4.589,1.705A6.177,6.177,0,0,1,611.524,441.7Zm-2.063-.079a6.655,6.655,0,0,0-1.124-3.835,3.993,3.993,0,0,0-3.465-1.918,3.592,3.592,0,0,0-3.187,1.719,7.661,7.661,0,0,0-1.045,4.245,6.978,6.978,0,0,0,1.243,4.087,3.873,3.873,0,0,0,6.533.172A8.1,8.1,0,0,0,609.461,441.62Z" transform="translate(-529.756 -435.286)" fill="#dac078"/>
        <path id="Trazado_388" data-name="Trazado 388" d="M637.455,436.06h-.344a1.394,1.394,0,0,0-1.058.517,1.668,1.668,0,0,0-.311.689,4.622,4.622,0,0,0-.073.875v8.734a1.266,1.266,0,0,0,.033.338.873.873,0,0,0,.165.279.559.559,0,0,0,.338.206c.136.026.276.048.417.066l.608.08v.449h-4.853v-.449h.344a1.377,1.377,0,0,0,.926-.3.821.821,0,0,0,.238-.648v-8.375l-5.144,9.83-.277.007-4.775-9.923.013,7.829c0,.115,0,.245.007.39a1.073,1.073,0,0,0,.152.482,1.392,1.392,0,0,0,1.322.713h.185v.449h-4.126v-.449h.265a1.358,1.358,0,0,0,1.138-.556,1.052,1.052,0,0,0,.231-.45,3.122,3.122,0,0,0,.046-.607V437.5a2.329,2.329,0,0,0-.859-1,3.134,3.134,0,0,0-.6-.331,1.653,1.653,0,0,0-.6-.106V435.6H624.2l4.906,10.2,5.29-10.2h3.055Z" transform="translate(-537.874 -435.4)" fill="#dac078"/>
        <path id="Trazado_389" data-name="Trazado 389" d="M658.738,444.511a3.4,3.4,0,0,1-1.323,2.856,4.74,4.74,0,0,1-3,.926H649.07v-.45l.662-.066a2.107,2.107,0,0,0,.443-.093.792.792,0,0,0,.3-.238.74.74,0,0,0,.165-.325,2.054,2.054,0,0,0,.047-.47v-9.728a.788.788,0,0,0-.146-.477.779.779,0,0,0-.364-.279,1.486,1.486,0,0,0-.509-.079h-.542V435.6h5.3a4.5,4.5,0,0,1,2.261.5,2.384,2.384,0,0,1,1.2,1.864c.009.088.015.165.02.231s.006.121.006.165a2.7,2.7,0,0,1-.6,1.733,3.881,3.881,0,0,1-1.607,1.163l-.4.172.568.118a4.185,4.185,0,0,1,2.01.9A2.645,2.645,0,0,1,658.738,444.511Zm-3.254-7.683a1.915,1.915,0,0,0-.774-.509,3.16,3.16,0,0,0-1-.139h-1.3v5.237h1.19a3.069,3.069,0,0,0,.826-.12,2.507,2.507,0,0,0,.8-.383,1.954,1.954,0,0,0,.661-.873,3.17,3.17,0,0,0,.225-1.2,3.788,3.788,0,0,0-.171-1.157A2.273,2.273,0,0,0,655.484,436.828Zm.318,5.832a2.283,2.283,0,0,0-.913-.509,3.2,3.2,0,0,0-.886-.179H652.43l-.013,3.915a7.04,7.04,0,0,0,.026.82,1.089,1.089,0,0,0,.858.9,2.615,2.615,0,0,0,.619.066h.772a1.658,1.658,0,0,0,1.438-.82,3.379,3.379,0,0,0,.546-1.917,3.651,3.651,0,0,0-.218-1.25A2.682,2.682,0,0,0,655.8,442.659Z" transform="translate(-548.14 -435.4)" fill="#dac078"/>
        <path id="Trazado_390" data-name="Trazado 390" d="M671.858,448.293h-4.867v-.449l.622-.079a3.736,3.736,0,0,0,.489-.08.614.614,0,0,0,.3-.238.92.92,0,0,0,.151-.568v-9.921a1.123,1.123,0,0,0-.026-.258.617.617,0,0,0-.119-.231.8.8,0,0,0-.357-.258,1.442,1.442,0,0,0-.516-.086l-.543-.039V435.6h4.867v.489l-.662.039a1.131,1.131,0,0,0-.436.073.735.735,0,0,0-.3.258.594.594,0,0,0-.106.246,1.5,1.5,0,0,0-.027.284v9.9a1.2,1.2,0,0,0,.047.377.617.617,0,0,0,.2.272.833.833,0,0,0,.417.171q.257.04.509.067l.357.066Z" transform="translate(-554.661 -435.4)" fill="#dac078"/>
        <path id="Trazado_391" data-name="Trazado 391" d="M688.94,448.179h-4.219v-.449h.238a1.022,1.022,0,0,0,.688-.265.622.622,0,0,0,.185-.516v-.212c-.025-.071-.041-.119-.049-.146l-.873-2.63h-4.619l-.83,2.341a1.264,1.264,0,0,0-.1.5.856.856,0,0,0,.225.634,1.06,1.06,0,0,0,.714.291v.449h-3.333v-.425l.159-.024a1.324,1.324,0,0,0,.681-.289,1.953,1.953,0,0,0,.456-.538,4.788,4.788,0,0,0,.33-.746l4.113-10.87h1.058l3.928,11.466a1.412,1.412,0,0,0,.543.767,1.381,1.381,0,0,0,.271.159.728.728,0,0,0,.284.053h.146Zm-4.257-4.88-1.88-5.978-2.29,5.978Z" transform="translate(-558.293 -435.286)" fill="#dac078"/>
      </g>
      <g id="Grupo_208" data-name="Grupo 208" transform="translate(32.064 40.964)">
        <g id="Grupo_204" data-name="Grupo 204" transform="translate(12.316)">
          <g id="Grupo_203" data-name="Grupo 203">
            <path id="Trazado_392" data-name="Trazado 392" d="M536.072,469.137h-2.437l-.835,2.38h-.728l2.525-6.857h.777l2.35,6.857h-.845Zm-.156-.485c-.709-2.136-.835-2.574-1.029-3.166-.185.544-.31.942-1.088,3.166Z" transform="translate(-532.071 -464.272)" fill="#dac078"/>
            <path id="Trazado_393" data-name="Trazado 393" d="M543.3,470.434a5.289,5.289,0,0,0,.087,1.233.827.827,0,0,0,.9.593,1.541,1.541,0,0,0,1.156-.486c.214-.233.223-.388.223-1.02v-3.011h.719v3.244a12.7,12.7,0,0,0,.1,1.651h-.728a4.3,4.3,0,0,1-.078-.564,2.048,2.048,0,0,1-1.641.69,1.226,1.226,0,0,1-1.379-.99,5.755,5.755,0,0,1-.088-1.136v-2.894h.729Z" transform="translate(-535.892 -465.394)" fill="#dac078"/>
            <path id="Trazado_394" data-name="Trazado 394" d="M553.216,471.4c-1.175,0-1.932-.845-1.932-2.487,0-2.117,1.214-2.621,2.088-2.621a1.958,1.958,0,0,1,1.37.446v-2.69h.719v6.1a8.478,8.478,0,0,0,.087,1.146h-.7c-.029-.146-.068-.486-.087-.641A1.87,1.87,0,0,1,553.216,471.4Zm1.282-4.292a1.369,1.369,0,0,0-1.049-.369c-.766,0-1.408.631-1.408,2.165,0,1.418.534,2.039,1.321,2.039a1.229,1.229,0,0,0,.981-.379c.291-.311.408-.651.408-1.767C554.751,467.74,554.712,467.351,554.5,467.109Z" transform="translate(-539.063 -464.05)" fill="#dac078"/>
            <path id="Trazado_395" data-name="Trazado 395" d="M561.284,465.571c-.3,0-.447-.107-.447-.485,0-.359.156-.485.466-.485s.437.116.437.485S561.595,465.571,561.284,465.571Zm-.359,5.924V466.6h.738v4.895Z" transform="translate(-542.539 -464.25)" fill="#dac078"/>
            <path id="Trazado_396" data-name="Trazado 396" d="M581.118,471.517l-2.35-6.857h.874c1.5,4.555,1.631,5.011,1.932,6,.31-.982.515-1.564,1.991-6h.786l-2.467,6.857Z" transform="translate(-549.064 -464.272)" fill="#dac078"/>
            <path id="Trazado_397" data-name="Trazado 397" d="M589.623,465.571c-.3,0-.447-.107-.447-.485,0-.359.155-.485.466-.485s.437.116.437.485S589.934,465.571,589.623,465.571Zm-.359,5.924V466.6H590v4.895Z" transform="translate(-552.852 -464.25)" fill="#dac078"/>
            <path id="Trazado_398" data-name="Trazado 398" d="M595.06,471.4c-1.175,0-1.933-.845-1.933-2.487,0-2.117,1.214-2.621,2.088-2.621a1.958,1.958,0,0,1,1.37.446v-2.69h.719v6.1a8.468,8.468,0,0,0,.087,1.146h-.7c-.029-.146-.067-.486-.087-.641A1.871,1.871,0,0,1,595.06,471.4Zm1.282-4.292a1.369,1.369,0,0,0-1.049-.369c-.767,0-1.408.631-1.408,2.165,0,1.418.534,2.039,1.321,2.039a1.23,1.23,0,0,0,.981-.379c.291-.311.408-.651.408-1.767C596.595,467.74,596.556,467.351,596.342,467.109Z" transform="translate(-554.289 -464.05)" fill="#dac078"/>
            <path id="Trazado_399" data-name="Trazado 399" d="M603.032,470.11c.01,1.38.563,2.088,1.563,2.088a2.875,2.875,0,0,0,1.5-.427v.553a3.234,3.234,0,0,1-1.612.369c-1.438,0-2.195-.8-2.195-2.593,0-1.641.767-2.554,2.107-2.554a1.572,1.572,0,0,1,1.661.942,3.473,3.473,0,0,1,.233,1.427v.194Zm1.33-2.137c-.621,0-1.272.408-1.311,1.729H605.5C605.5,468.653,605.324,467.973,604.362,467.973Z" transform="translate(-557.622 -465.322)" fill="#dac078"/>
            <path id="Trazado_400" data-name="Trazado 400" d="M629.407,465.136h-2.2v6.381h-.777v-6.381H624.29v-.476h5.117Z" transform="translate(-565.629 -464.272)" fill="#dac078"/>
            <path id="Trazado_401" data-name="Trazado 401" d="M635.7,471.887a1.564,1.564,0,0,1-1.486.8,1.436,1.436,0,0,1-1.564-1.5c0-.952.719-1.486,2.419-1.486.184,0,.436.01.611.02v-.437a1.538,1.538,0,0,0-.223-.913.969.969,0,0,0-.806-.31,3.087,3.087,0,0,0-1.534.4V467.9a4.045,4.045,0,0,1,1.622-.349,1.784,1.784,0,0,1,1.273.379,1.641,1.641,0,0,1,.388,1.282v2.282a3.569,3.569,0,0,0,.126,1.078h-.709A3.775,3.775,0,0,1,635.7,471.887Zm-.5-1.778c-1.4,0-1.816.476-1.816,1.059a.917.917,0,0,0,.971,1.02,1.389,1.389,0,0,0,1.088-.525,1.31,1.31,0,0,0,.233-.855v-.689C635.547,470.11,635.362,470.11,635.207,470.11Z" transform="translate(-568.672 -465.322)" fill="#dac078"/>
            <path id="Trazado_402" data-name="Trazado 402" d="M643.3,472.693c-1.32,0-2.146-.777-2.146-2.5,0-1.787.845-2.651,2.272-2.651a4.124,4.124,0,0,1,1.175.146v.641a2.243,2.243,0,0,0-1.185-.272c-.952,0-1.506.66-1.506,2.088s.631,2.049,1.525,2.049a2.478,2.478,0,0,0,1.194-.321v.544A2.966,2.966,0,0,1,643.3,472.693Z" transform="translate(-571.766 -465.322)" fill="#dac078"/>
            <path id="Trazado_403" data-name="Trazado 403" d="M648.906,470.11c.009,1.38.562,2.088,1.563,2.088a2.877,2.877,0,0,0,1.5-.427v.553a3.239,3.239,0,0,1-1.612.369c-1.438,0-2.195-.8-2.195-2.593,0-1.641.767-2.554,2.107-2.554a1.571,1.571,0,0,1,1.661.942,3.463,3.463,0,0,1,.233,1.427v.194Zm1.33-2.137c-.622,0-1.272.408-1.312,1.729h2.448C651.372,468.653,651.2,467.973,650.236,467.973Z" transform="translate(-574.315 -465.322)" fill="#dac078"/>
            <rect id="Rectángulo_56" data-name="Rectángulo 56" width="2.447" height="2.447" transform="translate(23.433 3.356)" fill="#dac078"/>
            <rect id="Rectángulo_57" data-name="Rectángulo 57" width="2.447" height="2.447" transform="translate(52.521 3.356)" fill="#dac078"/>
          </g>
        </g>
        <g id="Grupo_207" data-name="Grupo 207" transform="translate(0 1.845)">
          <g id="Grupo_205" data-name="Grupo 205" transform="translate(94.63 0)">
            <rect id="Rectángulo_58" data-name="Rectángulo 58" width="2.831" height="2.831" transform="translate(8.494 2.831) rotate(180)" fill="#dac078"/>
            <rect id="Rectángulo_59" data-name="Rectángulo 59" width="2.831" height="2.831" transform="translate(2.831 2.831) rotate(180)" fill="#dac078"/>
            <rect id="Rectángulo_60" data-name="Rectángulo 60" width="2.831" height="2.831" transform="translate(5.663 5.663) rotate(180)" fill="#dac078"/>
          </g>
          <g id="Grupo_206" data-name="Grupo 206">
            <rect id="Rectángulo_61" data-name="Rectángulo 61" width="2.831" height="2.831" transform="translate(0 2.831)" fill="#dac078"/>
            <rect id="Rectángulo_62" data-name="Rectángulo 62" width="2.831" height="2.831" transform="translate(5.663 2.831)" fill="#dac078"/>
            <rect id="Rectángulo_63" data-name="Rectángulo 63" width="2.831" height="2.831" transform="translate(2.831)" fill="#dac078"/>
          </g>
        </g>
      </g>
    </g>
    <path id="Trazado_404" data-name="Trazado 404" d="M604.867,237.27" transform="translate(-52.017 -37.18)" fill="#7a1700"/>
    <g id="Grupo_238" data-name="Grupo 238" transform="translate(461.923 135.099)">
      <g id="Grupo_236" data-name="Grupo 236">
        <circle id="Elipse_36" data-name="Elipse 36" cx="80.038" cy="80.038" r="80.038"/>
        <g id="Grupo_235" data-name="Grupo 235" transform="translate(1.086 1.086)">
          <g id="Grupo_232" data-name="Grupo 232">
            <path id="Trazado_405" data-name="Trazado 405" d="M593.305,141.884a6,6,0,0,1,1.18-.174,11.639,11.639,0,0,1,4.932.81,5.961,5.961,0,0,1,1.062.545,5.935,5.935,0,0,1-1.18.176,10.909,10.909,0,0,1-2.51-.139,11.026,11.026,0,0,1-2.422-.675A6.017,6.017,0,0,1,593.305,141.884Z" transform="translate(-510.819 -138.582)" fill="#dac078"/>
            <g id="Grupo_211" data-name="Grupo 211" transform="translate(65.242)">
              <g id="Grupo_210" data-name="Grupo 210" transform="translate(9.786)">
                <path id="Trazado_406" data-name="Trazado 406" d="M582.189,144.612c-.174-1.011-.291-2.021-.377-3.032-.049-.505-.083-1.011-.113-1.516s-.061-1.011-.077-1.516l-.043-1.373,1.022.983q.753.725,1.476,1.479c.488.5.969,1,1.437,1.515q1.426,1.526,2.754,3.144l.678.824-1.013-.047c-.957-.044-1.915-.108-2.872-.179s-1.914-.16-2.871-.281c.957-.12,1.915-.206,2.871-.281s1.915-.136,2.872-.18l-.335.777q-1.542-1.416-2.99-2.92c-.49-.495-.966-1-1.434-1.517s-.941-1.027-1.4-1.554l.978-.39c-.015.506-.04,1.011-.077,1.516s-.064,1.011-.113,1.516C582.48,142.59,582.363,143.6,582.189,144.612Z" transform="translate(-581.579 -136.94)" fill="#dac078"/>
                <path id="Trazado_407" data-name="Trazado 407" d="M591.455,137.314c.174,1.011.291,2.022.376,3.032.049.505.083,1.011.114,1.516s.061,1.011.077,1.516l.043,1.373-1.022-.983q-.753-.725-1.475-1.479c-.489-.5-.97-1-1.438-1.515q-1.425-1.526-2.753-3.144l-.679-.824,1.013.047c.957.044,1.914.107,2.871.179s1.915.16,2.872.281c-.957.12-1.915.206-2.872.281s-1.914.136-2.871.18l.335-.777q1.541,1.416,2.99,2.92c.49.495.966,1,1.434,1.517s.941,1.026,1.4,1.554l-.979.39c.016-.506.041-1.011.078-1.516s.064-1.011.113-1.516C591.164,139.335,591.28,138.324,591.455,137.314Z" transform="translate(-582.714 -136.806)" fill="#dac078"/>
              </g>
              <path id="Trazado_408" data-name="Trazado 408" d="M606.93,145.749c.017-1.144.1-2.279.171-3.414s.187-2.266.307-3.395l.431.578c-.954-.1-1.9-.227-2.854-.339s-1.9-.249-2.849-.378l.706-.527c-.145,1.125-.32,2.246-.5,3.367s-.377,2.238-.567,3.357l-.457-.613,2.827.52-.492.367c.181-.835.346-1.674.544-2.506s.4-1.665.624-2.494c-.019.859-.055,1.716-.115,2.569s-.129,1.7-.195,2.557l-.032.417-.46-.05-2.859-.309-.526-.057.068-.557c.137-1.127.252-2.256.415-3.379s.3-2.249.486-3.369l.1-.62.606.094c.946.147,1.894.285,2.838.451s1.89.31,2.832.49l.52.1-.089.478q-.313,1.675-.677,3.341C607.488,143.538,607.24,144.648,606.93,145.749Z" transform="translate(-578.73 -137.049)" fill="#dac078"/>
              <path id="Trazado_409" data-name="Trazado 409" d="M567.772,145.749c-.31-1.1-.559-2.211-.811-3.321s-.468-2.224-.676-3.341l-.09-.478.521-.1c.941-.181,1.888-.326,2.832-.49s1.891-.3,2.838-.451l.606-.094.1.62c.182,1.12.335,2.244.485,3.369s.278,2.252.415,3.379l.068.557-.525.057-2.858.309-.461.05-.032-.417c-.066-.852-.147-1.7-.195-2.557s-.1-1.71-.114-2.569c.227.829.437,1.66.624,2.494s.364,1.671.544,2.506l-.492-.367,2.827-.52-.457.613c-.19-1.118-.4-2.234-.567-3.357s-.351-2.242-.5-3.367l.706.527c-.948.13-1.9.268-2.848.378s-1.9.244-2.854.339l.431-.578q.178,1.694.306,3.395C567.675,143.471,567.755,144.605,567.772,145.749Z" transform="translate(-566.195 -137.049)" fill="#dac078"/>
              <path id="Trazado_410" data-name="Trazado 410" d="M574.191,144.989a5.411,5.411,0,0,1,1.023-.473A9.8,9.8,0,0,1,577.52,144a9.682,9.682,0,0,1,2.362.024,5.39,5.39,0,0,1,1.1.252,5.343,5.343,0,0,1-1.023.475,9.678,9.678,0,0,1-2.306.515,9.808,9.808,0,0,1-2.363-.026A5.423,5.423,0,0,1,574.191,144.989Z" transform="translate(-569.105 -139.402)" fill="#dac078"/>
            </g>
            <g id="Grupo_213" data-name="Grupo 213" transform="translate(120.048 14.533)">
              <g id="Grupo_212" data-name="Grupo 212" transform="translate(6.963 5.982)">
                <path id="Trazado_411" data-name="Trazado 411" d="M663.3,174.748c.592-.838,1.224-1.635,1.878-2.41.323-.392.656-.773.992-1.152s.671-.758,1.017-1.127l.941-1,.027,1.418c.013.7.014,1.393,0,2.089s-.02,1.392-.055,2.087q-.071,2.088-.277,4.17l-.1,1.063-.683-.749c-.646-.708-1.277-1.43-1.9-2.158s-1.24-1.467-1.832-2.23c.762.592,1.5,1.208,2.229,1.832s1.45,1.258,2.158,1.9l-.786.313q-.089-2.091-.049-4.179c0-.7.027-1.392.058-2.087s.06-1.391.111-2.086l.968.416q-.554.519-1.127,1.018c-.379.336-.76.669-1.153.992C664.937,173.524,664.14,174.157,663.3,174.748Z" transform="translate(-663.302 -169.057)" fill="#dac078"/>
                <path id="Trazado_412" data-name="Trazado 412" d="M677.521,176.139c-.591.838-1.224,1.635-1.878,2.41-.323.392-.656.774-.992,1.153s-.672.758-1.018,1.127l-.941,1-.027-1.419c-.013-.7-.014-1.393,0-2.089s.02-1.392.055-2.087q.072-2.087.277-4.17l.1-1.063.683.749c.646.709,1.277,1.43,1.9,2.158s1.24,1.467,1.832,2.229c-.762-.592-1.5-1.208-2.229-1.832s-1.45-1.258-2.158-1.9l.786-.314q.089,2.091.049,4.179c0,.7-.026,1.392-.059,2.088s-.061,1.391-.111,2.086l-.968-.417c.368-.346.743-.686,1.126-1.017s.76-.67,1.152-.992C675.886,177.362,676.683,176.73,677.521,176.139Z" transform="translate(-666.706 -169.765)" fill="#dac078"/>
              </g>
              <path id="Trazado_413" data-name="Trazado 413" d="M679.549,193.479c.821-.8,1.679-1.543,2.536-2.293s1.734-1.47,2.617-2.184l-.1.714c-.607-.742-1.184-1.506-1.778-2.258s-1.167-1.519-1.747-2.282l.872.127c-.9.693-1.815,1.362-2.732,2.03s-1.849,1.316-2.775,1.973l.111-.757,1.631,2.368-.607-.088c.718-.464,1.427-.94,2.156-1.388s1.459-.9,2.205-1.322q-.932.891-1.9,1.735c-.638.571-1.3,1.114-1.946,1.671l-.317.272-.29-.361-1.8-2.239-.331-.412.442-.346c.894-.7,1.773-1.417,2.682-2.1s1.8-1.375,2.726-2.039l.51-.367.362.494c.566.773,1.138,1.541,1.688,2.326s1.118,1.556,1.656,2.349l.3.439-.4.275q-1.405.964-2.841,1.884C681.507,192.311,680.547,192.92,679.549,193.479Z" transform="translate(-660.723 -168.49)" fill="#dac078"/>
              <path id="Trazado_414" data-name="Trazado 414" d="M652.355,165.817c.56-1,1.169-1.959,1.775-2.922s1.242-1.9,1.884-2.84l.276-.4.438.3c.794.538,1.565,1.1,2.349,1.656s1.553,1.123,2.326,1.688l.495.361-.368.511c-.663.92-1.35,1.823-2.039,2.725s-1.4,1.789-2.1,2.683l-.345.441-.412-.331-2.24-1.8-.361-.29.272-.317c.556-.649,1.1-1.307,1.67-1.945s1.142-1.277,1.735-1.9q-.637,1.119-1.322,2.2c-.448.73-.924,1.439-1.387,2.157l-.088-.607,2.367,1.632-.757.11c.657-.926,1.3-1.864,1.973-2.775s1.337-1.833,2.03-2.731l.127.871c-.763-.579-1.53-1.151-2.282-1.746s-1.516-1.172-2.258-1.779l.714-.1q-1.072,1.324-2.184,2.617C653.9,164.137,653.152,165,652.355,165.817Z" transform="translate(-652.355 -159.653)" fill="#dac078"/>
              <path id="Trazado_415" data-name="Trazado 415" d="M659.718,169.783a5.42,5.42,0,0,1,1.058.389,9.787,9.787,0,0,1,2,1.266,9.662,9.662,0,0,1,1.654,1.688,5.374,5.374,0,0,1,.6.955,5.353,5.353,0,0,1-1.059-.388,10.287,10.287,0,0,1-3.647-2.956A5.414,5.414,0,0,1,659.718,169.783Z" transform="translate(-655.034 -163.339)" fill="#dac078"/>
            </g>
            <g id="Grupo_215" data-name="Grupo 215" transform="translate(149.141 65.242)">
              <g id="Grupo_214" data-name="Grupo 214" transform="translate(0.585 9.785)">
                <path id="Trazado_416" data-name="Trazado 416" d="M699.518,255.366c1.011-.174,2.022-.291,3.032-.377.506-.05,1.011-.083,1.516-.113s1.011-.062,1.516-.078l1.374-.043-.984,1.022q-.725.753-1.478,1.475c-.5.489-1,.97-1.515,1.438q-1.526,1.426-3.144,2.753l-.824.679.046-1.013c.044-.957.108-1.914.18-2.871s.16-1.915.281-2.871c.121.957.207,1.914.281,2.871s.135,1.915.18,2.871l-.778-.335q1.416-1.541,2.92-2.99c.495-.49,1-.966,1.518-1.434s1.026-.941,1.553-1.4l.39.979q-.758-.024-1.516-.077c-.506-.03-1.011-.064-1.516-.114C701.54,255.656,700.529,255.54,699.518,255.366Z" transform="translate(-699.011 -254.755)" fill="#dac078"/>
                <path id="Trazado_417" data-name="Trazado 417" d="M706.817,264.631c-1.011.174-2.022.291-3.032.377-.506.05-1.011.083-1.516.113s-1.011.062-1.516.078l-1.374.043.984-1.022q.725-.753,1.479-1.476c.5-.488,1-.969,1.515-1.437q1.526-1.425,3.144-2.754l.824-.678-.046,1.013c-.044.957-.108,1.915-.18,2.872s-.16,1.914-.28,2.871c-.121-.957-.207-1.914-.281-2.871s-.135-1.915-.18-2.872l.778.335q-1.417,1.542-2.92,2.99c-.495.49-1,.966-1.518,1.435s-1.026.941-1.553,1.4l-.39-.978c.505.016,1.011.04,1.516.077s1.011.064,1.516.113C704.8,264.34,705.806,264.457,706.817,264.631Z" transform="translate(-699.145 -255.89)" fill="#dac078"/>
              </g>
              <path id="Trazado_418" data-name="Trazado 418" d="M698.155,280.106c1.144.017,2.279.1,3.415.172s2.266.187,3.395.306l-.579.431c.1-.954.228-1.9.34-2.854s.248-1.9.378-2.848l.527.707c-1.125-.145-2.246-.321-3.367-.5s-2.238-.377-3.357-.567l.613-.457-.52,2.827-.367-.492c.836.18,1.674.345,2.506.544s1.666.4,2.495.624c-.859-.019-1.715-.055-2.569-.114s-1.7-.129-2.557-.195l-.416-.033.05-.46.308-2.858.057-.525.557.068c1.127.137,2.256.252,3.379.415s2.249.3,3.369.485l.621.1-.094.606c-.147.947-.285,1.894-.451,2.838s-.309,1.891-.49,2.832l-.1.52-.478-.089q-1.674-.312-3.341-.676C700.367,280.665,699.256,280.417,698.155,280.106Z" transform="translate(-698.091 -251.907)" fill="#dac078"/>
              <path id="Trazado_419" data-name="Trazado 419" d="M698.155,240.948c1.1-.31,2.212-.559,3.321-.811s2.225-.468,3.341-.676l.478-.089.1.52c.181.941.326,1.888.49,2.832s.3,1.891.451,2.838l.094.606-.621.1c-1.12.182-2.244.335-3.369.486s-2.252.277-3.379.415l-.557.067-.057-.525-.308-2.859-.05-.46.416-.032c.852-.066,1.7-.147,2.557-.194s1.71-.1,2.569-.115c-.829.227-1.66.437-2.495.624s-1.67.363-2.506.544l.367-.492.52,2.827-.613-.457c1.119-.19,2.234-.4,3.357-.567s2.242-.351,3.367-.5l-.527.707c-.13-.949-.268-1.9-.378-2.848s-.244-1.9-.34-2.854l.579.431c-1.129.12-2.261.219-3.395.306S699.3,240.931,698.155,240.948Z" transform="translate(-698.091 -239.372)" fill="#dac078"/>
              <path id="Trazado_420" data-name="Trazado 420" d="M702.9,247.368a5.415,5.415,0,0,1,.473,1.023,9.782,9.782,0,0,1,.516,2.306,9.661,9.661,0,0,1-.024,2.363,5.35,5.35,0,0,1-.252,1.1,5.386,5.386,0,0,1-.474-1.023,9.647,9.647,0,0,1-.514-2.307,9.772,9.772,0,0,1,.025-2.362A5.4,5.4,0,0,1,702.9,247.368Z" transform="translate(-699.718 -242.282)" fill="#dac078"/>
            </g>
            <g id="Grupo_217" data-name="Grupo 217" transform="translate(118.383 120.049)">
              <g id="Grupo_216" data-name="Grupo 216" transform="translate(6.943 6.963)">
                <path id="Trazado_421" data-name="Trazado 421" d="M667.734,336.478c.838.592,1.635,1.224,2.41,1.878.393.322.773.656,1.153.992s.758.671,1.126,1.018l1,.941-1.419.027c-.7.013-1.393.014-2.089,0s-1.392-.021-2.087-.055q-2.087-.071-4.17-.276l-1.062-.1.749-.683c.708-.646,1.429-1.278,2.158-1.9s1.467-1.24,2.229-1.832c-.592.762-1.208,1.5-1.832,2.23s-1.258,1.45-1.9,2.158l-.313-.786q2.091-.089,4.179-.05c.7,0,1.392.027,2.088.059s1.391.06,2.086.111l-.417.968q-.519-.552-1.017-1.127c-.336-.379-.67-.76-.992-1.152C668.958,338.113,668.326,337.316,667.734,336.478Z" transform="translate(-661.36 -336.478)" fill="#dac078"/>
                <path id="Trazado_422" data-name="Trazado 422" d="M666.343,350.7c-.838-.592-1.635-1.224-2.41-1.878-.393-.322-.773-.656-1.152-.992s-.758-.671-1.127-1.017l-1-.941,1.418-.027c.7-.013,1.393-.014,2.089,0s1.392.02,2.088.055q2.087.071,4.17.276l1.063.1-.749.684c-.708.646-1.43,1.277-2.158,1.9s-1.467,1.24-2.23,1.832c.592-.762,1.208-1.5,1.832-2.229s1.258-1.45,1.9-2.158l.313.786c-1.394.059-2.787.078-4.179.05-.7,0-1.392-.027-2.087-.059s-1.391-.06-2.086-.112l.416-.968q.52.552,1.018,1.127c.336.379.67.76.992,1.153C665.119,349.062,665.752,349.859,666.343,350.7Z" transform="translate(-660.652 -339.882)" fill="#dac078"/>
              </g>
              <path id="Trazado_423" data-name="Trazado 423" d="M649.737,352.725c.8.821,1.544,1.68,2.293,2.535s1.47,1.735,2.184,2.618l-.714-.1c.742-.607,1.506-1.184,2.258-1.779s1.519-1.167,2.282-1.746l-.127.871c-.693-.9-1.362-1.815-2.03-2.732s-1.315-1.849-1.972-2.774l.757.11-2.367,1.632.089-.608c.463.718.939,1.427,1.387,2.157s.9,1.459,1.322,2.2q-.89-.931-1.735-1.9c-.571-.638-1.115-1.3-1.67-1.945l-.272-.317.361-.29,2.24-1.8.412-.331.345.441c.7.894,1.417,1.773,2.1,2.683s1.376,1.8,2.039,2.725l.368.51-.495.362c-.773.565-1.541,1.138-2.326,1.688s-1.555,1.118-2.349,1.656l-.438.3-.275-.4q-.963-1.4-1.884-2.84C650.906,354.684,650.3,353.723,649.737,352.725Z" transform="translate(-649.737 -333.9)" fill="#dac078"/>
              <path id="Trazado_424" data-name="Trazado 424" d="M676.931,325.532c1,.559,1.959,1.169,2.922,1.775s1.9,1.242,2.841,1.884l.4.275-.3.439c-.538.793-1.1,1.565-1.656,2.349s-1.122,1.552-1.687,2.326l-.362.494-.51-.367c-.921-.663-1.824-1.35-2.726-2.039s-1.789-1.4-2.682-2.1l-.442-.346.331-.412,1.8-2.239.29-.361.317.272c.649.556,1.308,1.1,1.946,1.671s1.277,1.141,1.9,1.735q-1.12-.638-2.205-1.323c-.73-.448-1.438-.924-2.156-1.388l.607-.089-1.631,2.368-.111-.757c.925.656,1.865,1.294,2.775,1.973s1.833,1.336,2.732,2.03l-.872.127c.579-.763,1.151-1.531,1.747-2.282s1.171-1.516,1.778-2.258l.1.714q-1.324-1.071-2.617-2.184C678.61,327.075,677.751,326.329,676.931,325.532Z" transform="translate(-658.105 -325.532)" fill="#dac078"/>
              <path id="Trazado_425" data-name="Trazado 425" d="M676.433,332.895a5.4,5.4,0,0,1-.389,1.058,10.272,10.272,0,0,1-2.954,3.649,5.38,5.38,0,0,1-.955.6,5.367,5.367,0,0,1,.388-1.059,9.662,9.662,0,0,1,1.267-1.994,9.788,9.788,0,0,1,1.689-1.653A5.38,5.38,0,0,1,676.433,332.895Z" transform="translate(-657.888 -328.211)" fill="#dac078"/>
            </g>
            <g id="Grupo_219" data-name="Grupo 219" transform="translate(12.867 118.383)">
              <g id="Grupo_218" data-name="Grupo 218" transform="translate(7.211 6.942)">
                <path id="Trazado_426" data-name="Trazado 426" d="M509.414,340.911c-.592.838-1.224,1.635-1.878,2.41-.323.392-.656.773-.992,1.152s-.671.758-1.017,1.126l-.941,1-.027-1.418c-.013-.7-.014-1.393,0-2.089s.02-1.392.055-2.088c.047-1.391.142-2.781.276-4.17l.1-1.063.683.749c.646.708,1.277,1.43,1.9,2.158s1.24,1.467,1.832,2.23c-.762-.592-1.5-1.208-2.229-1.832s-1.45-1.258-2.158-1.9l.787-.313c.058,1.394.078,2.787.049,4.179,0,.7-.027,1.392-.059,2.087s-.06,1.391-.112,2.086l-.968-.416q.554-.52,1.127-1.018c.379-.336.76-.67,1.153-.992C507.779,342.134,508.576,341.5,509.414,340.911Z" transform="translate(-498.599 -334.536)" fill="#dac078"/>
                <path id="Trazado_427" data-name="Trazado 427" d="M495.2,339.519c.591-.838,1.224-1.635,1.878-2.41.322-.392.656-.773.992-1.153s.672-.758,1.018-1.127l.941-1,.027,1.419c.013.7.014,1.393,0,2.089s-.02,1.392-.055,2.087q-.072,2.087-.277,4.17l-.1,1.062-.683-.749q-.969-1.062-1.9-2.158c-.625-.729-1.24-1.467-1.832-2.229.762.592,1.5,1.208,2.229,1.832s1.45,1.258,2.158,1.9l-.786.314q-.089-2.092-.049-4.179c0-.7.026-1.392.058-2.088s.06-1.391.111-2.086l.967.417q-.552.519-1.127,1.017c-.379.336-.76.67-1.152.992C496.83,338.3,496.033,338.928,495.2,339.519Z" transform="translate(-495.195 -333.828)" fill="#dac078"/>
              </g>
              <path id="Trazado_428" data-name="Trazado 428" d="M490.022,322.914c-.821.8-1.679,1.543-2.535,2.293s-1.734,1.47-2.617,2.184l.1-.714c.607.742,1.184,1.506,1.778,2.258s1.167,1.519,1.747,2.282l-.872-.127c.9-.693,1.815-1.362,2.732-2.03s1.849-1.316,2.775-1.973l-.111.757-1.631-2.368.607.088c-.718.464-1.427.94-2.156,1.388s-1.459.9-2.205,1.322q.931-.891,1.9-1.735c.638-.571,1.3-1.114,1.946-1.671l.317-.272.29.361,1.8,2.239.331.412-.442.346c-.894.7-1.773,1.417-2.682,2.1s-1.805,1.375-2.726,2.038l-.51.368-.362-.494c-.566-.773-1.138-1.541-1.688-2.326s-1.118-1.556-1.656-2.349l-.3-.439.4-.275q1.405-.963,2.841-1.884C488.063,324.083,489.024,323.473,490.022,322.914Z" transform="translate(-483.858 -322.914)" fill="#dac078"/>
              <path id="Trazado_429" data-name="Trazado 429" d="M517.684,350.107c-.559,1-1.168,1.959-1.775,2.922s-1.242,1.9-1.884,2.84l-.275.4-.438-.3c-.794-.538-1.565-1.1-2.349-1.656s-1.553-1.122-2.326-1.688l-.495-.362.368-.51c.663-.92,1.35-1.823,2.038-2.725s1.4-1.789,2.1-2.683l.346-.441.412.331,2.24,1.8.36.29-.272.317c-.556.649-1.1,1.307-1.67,1.945s-1.142,1.277-1.735,1.9q.637-1.119,1.322-2.2c.448-.73.924-1.439,1.387-2.157l.088.607-2.367-1.632.757-.11c-.657.925-1.3,1.864-1.973,2.774s-1.337,1.834-2.03,2.732l-.127-.871c.763.579,1.53,1.151,2.282,1.746s1.515,1.172,2.258,1.779l-.714.1q1.071-1.324,2.184-2.618C516.141,351.787,516.888,350.928,517.684,350.107Z" transform="translate(-492.695 -331.281)" fill="#dac078"/>
              <path id="Trazado_430" data-name="Trazado 430" d="M512.745,349.61a5.426,5.426,0,0,1-1.058-.389,9.786,9.786,0,0,1-2-1.266,9.663,9.663,0,0,1-1.654-1.688,5.379,5.379,0,0,1-.6-.955,5.365,5.365,0,0,1,1.059.388,9.661,9.661,0,0,1,1.994,1.267,9.771,9.771,0,0,1,1.653,1.689A5.411,5.411,0,0,1,512.745,349.61Z" transform="translate(-492.439 -331.065)" fill="#dac078"/>
            </g>
            <g id="Grupo_221" data-name="Grupo 221" transform="translate(0 62.887)">
              <g id="Grupo_220" data-name="Grupo 220" transform="translate(0 10.64)">
                <path id="Trazado_431" data-name="Trazado 431" d="M471.436,262.272c-1.011.174-2.022.291-3.032.377-.506.05-1.011.083-1.516.113s-1.011.062-1.516.078l-1.374.043.984-1.022q.724-.753,1.478-1.476c.5-.488,1-.969,1.515-1.437q1.526-1.426,3.144-2.753l.824-.679-.046,1.013c-.044.957-.107,1.914-.18,2.871s-.16,1.915-.281,2.871c-.121-.957-.207-1.914-.281-2.871s-.135-1.915-.18-2.871l.778.334q-1.417,1.542-2.92,2.99c-.495.49-1,.965-1.518,1.434s-1.026.941-1.553,1.4l-.39-.979c.505.016,1.011.04,1.516.077s1.011.064,1.516.114C469.414,261.981,470.425,262.1,471.436,262.272Z" transform="translate(-463.764 -253.532)" fill="#dac078"/>
                <path id="Trazado_432" data-name="Trazado 432" d="M464.137,253.007c1.011-.174,2.022-.291,3.032-.377.506-.05,1.011-.083,1.516-.113s1.011-.062,1.516-.078l1.374-.043-.984,1.022q-.725.753-1.478,1.476c-.5.488-1,.969-1.515,1.437q-1.526,1.426-3.144,2.753l-.824.679.046-1.013c.044-.957.108-1.915.18-2.872s.16-1.914.281-2.871c.121.957.207,1.914.281,2.871s.135,1.915.18,2.872l-.778-.335q1.416-1.542,2.92-2.99c.495-.49,1-.965,1.518-1.434s1.026-.941,1.553-1.4l.39.978c-.505-.016-1.011-.04-1.516-.077s-1.011-.064-1.516-.114C466.159,253.3,465.148,253.181,464.137,253.007Z" transform="translate(-463.63 -252.397)" fill="#dac078"/>
              </g>
              <path id="Trazado_433" data-name="Trazado 433" d="M472.573,237.246c-1.144-.017-2.279-.1-3.415-.172s-2.266-.187-3.395-.306l.578-.431c-.1.954-.227,1.9-.339,2.854s-.248,1.9-.378,2.848l-.527-.707c1.125.145,2.246.32,3.367.5s2.238.377,3.357.567l-.613.457.52-2.827.367.492c-.836-.18-1.674-.345-2.506-.544s-1.666-.4-2.495-.624c.859.019,1.716.055,2.569.115s1.705.129,2.557.195l.417.032-.05.46-.308,2.858-.057.525-.557-.068c-1.126-.137-2.256-.252-3.378-.415s-2.249-.3-3.369-.485l-.621-.1.094-.606c.147-.947.285-1.894.451-2.838s.309-1.89.49-2.832l.1-.52.478.089q1.674.312,3.341.676C470.361,236.688,471.472,236.936,472.573,237.246Z" transform="translate(-463.873 -235.67)" fill="#dac078"/>
              <path id="Trazado_434" data-name="Trazado 434" d="M472.573,276.4c-1.1.31-2.212.559-3.321.811s-2.225.468-3.341.676l-.478.089-.1-.52c-.181-.941-.325-1.888-.49-2.832s-.3-1.891-.451-2.838l-.094-.606.621-.1c1.12-.182,2.244-.335,3.369-.486s2.252-.277,3.378-.415l.557-.068.057.525.308,2.859.05.46-.417.032c-.852.066-1.7.148-2.557.195s-1.709.1-2.569.115c.829-.227,1.66-.437,2.495-.624s1.67-.363,2.506-.544l-.367.492-.52-2.827.613.457c-1.119.19-2.234.4-3.357.567s-2.242.351-3.367.5l.527-.707c.13.949.268,1.9.378,2.848s.244,1.9.339,2.854l-.578-.431c1.129-.12,2.261-.219,3.395-.307S471.429,276.421,472.573,276.4Z" transform="translate(-463.873 -248.204)" fill="#dac078"/>
              <path id="Trazado_435" data-name="Trazado 435" d="M471.812,270.6a5.419,5.419,0,0,1-.473-1.023,10.285,10.285,0,0,1-.492-4.669,5.341,5.341,0,0,1,.252-1.1,5.39,5.39,0,0,1,.475,1.023,10.292,10.292,0,0,1,.489,4.669A5.4,5.4,0,0,1,471.812,270.6Z" transform="translate(-466.226 -245.909)" fill="#dac078"/>
            </g>
            <g id="Grupo_223" data-name="Grupo 223" transform="translate(14.532 12.868)">
              <g id="Grupo_222" data-name="Grupo 222" transform="translate(5.982 7.211)">
                <path id="Trazado_436" data-name="Trazado 436" d="M501.571,182.59c-.838-.591-1.635-1.224-2.41-1.878-.393-.322-.773-.656-1.153-.992s-.758-.672-1.127-1.018l-1-.941,1.419-.027c.7-.013,1.393-.014,2.088,0s1.392.02,2.088.055q2.087.071,4.17.276l1.062.1-.749.683c-.708.646-1.43,1.278-2.158,1.9s-1.467,1.24-2.229,1.832c.592-.762,1.207-1.5,1.832-2.229s1.258-1.45,1.9-2.158l.313.786q-2.091.089-4.179.049c-.7,0-1.392-.026-2.088-.059s-1.391-.06-2.086-.111l.417-.967q.519.552,1.017,1.127c.336.378.67.76.992,1.152C500.347,180.955,500.98,181.752,501.571,182.59Z" transform="translate(-495.88 -171.775)" fill="#dac078"/>
                <path id="Trazado_437" data-name="Trazado 437" d="M502.962,168.371c.838.592,1.635,1.224,2.411,1.878.392.322.773.656,1.152.992s.758.671,1.127,1.017l1,.941-1.418.027c-.7.013-1.393.014-2.089,0s-1.392-.02-2.088-.055c-1.391-.047-2.781-.142-4.17-.276l-1.062-.1.749-.683c.708-.646,1.43-1.277,2.158-1.9s1.467-1.24,2.229-1.832c-.592.762-1.207,1.5-1.832,2.229s-1.258,1.45-1.9,2.158l-.313-.787c1.394-.059,2.787-.078,4.179-.049.7,0,1.392.027,2.087.059s1.391.06,2.086.112l-.416.967q-.52-.552-1.018-1.127c-.336-.379-.67-.76-.992-1.153C504.186,170.006,503.553,169.209,502.962,168.371Z" transform="translate(-496.588 -168.371)" fill="#dac078"/>
              </g>
              <path id="Trazado_438" data-name="Trazado 438" d="M520.3,163.2c-.8-.821-1.543-1.68-2.292-2.536s-1.47-1.734-2.184-2.617l.714.1c-.742.607-1.506,1.184-2.257,1.779s-1.519,1.167-2.282,1.746l.127-.871c.693.9,1.362,1.815,2.03,2.731s1.315,1.849,1.973,2.775l-.757-.11,2.367-1.632-.088.607c-.463-.718-.939-1.427-1.387-2.157s-.9-1.459-1.322-2.2q.89.931,1.735,1.9c.571.638,1.114,1.3,1.67,1.945l.272.317-.36.29-2.24,1.8-.411.331-.345-.441c-.7-.894-1.417-1.773-2.1-2.683s-1.375-1.8-2.038-2.725l-.368-.511.495-.361c.773-.566,1.541-1.138,2.326-1.688s1.555-1.118,2.349-1.656l.438-.3.275.4q.963,1.4,1.884,2.84C519.134,161.24,519.743,162.2,520.3,163.2Z" transform="translate(-495.313 -157.035)" fill="#dac078"/>
              <path id="Trazado_439" data-name="Trazado 439" d="M492.64,190.861c-1-.559-1.959-1.169-2.922-1.775s-1.9-1.242-2.841-1.884l-.4-.275.3-.439c.538-.793,1.1-1.565,1.656-2.349s1.122-1.552,1.688-2.326l.362-.494.51.367c.92.663,1.824,1.35,2.726,2.039s1.789,1.4,2.682,2.1l.442.346-.331.412-1.8,2.239-.29.361-.317-.272c-.649-.557-1.308-1.1-1.946-1.671s-1.277-1.141-1.9-1.735q1.12.638,2.205,1.322c.729.448,1.438.924,2.156,1.388l-.607.088,1.631-2.368.111.757c-.926-.656-1.865-1.3-2.775-1.973s-1.833-1.336-2.732-2.03l.872-.127c-.579.763-1.151,1.531-1.747,2.282s-1.171,1.516-1.778,2.258l-.1-.714q1.324,1.071,2.617,2.184C490.961,189.318,491.819,190.064,492.64,190.861Z" transform="translate(-486.476 -165.872)" fill="#dac078"/>
              <path id="Trazado_440" data-name="Trazado 440" d="M496.607,185.922a5.409,5.409,0,0,1,.389-1.058,9.786,9.786,0,0,1,1.266-2,9.678,9.678,0,0,1,1.688-1.653,5.34,5.34,0,0,1,.955-.6,5.339,5.339,0,0,1-.387,1.059,9.675,9.675,0,0,1-1.267,1.994,9.813,9.813,0,0,1-1.689,1.653A5.382,5.382,0,0,1,496.607,185.922Z" transform="translate(-490.163 -165.616)" fill="#dac078"/>
            </g>
            <g id="Grupo_224" data-name="Grupo 224" transform="translate(92.228 1.833)">
              <path id="Trazado_441" data-name="Trazado 441" d="M634.468,153.488a6.009,6.009,0,0,1,1.181.169,11.047,11.047,0,0,1,2.368.846,10.9,10.9,0,0,1,2.13,1.334,5.97,5.97,0,0,1,.863.824,5.978,5.978,0,0,1-1.182-.167,11.638,11.638,0,0,1-4.5-2.183A5.994,5.994,0,0,1,634.468,153.488Z" transform="translate(-618.026 -144.709)" fill="#dac078"/>
              <path id="Trazado_442" data-name="Trazado 442" d="M649.259,160.763a5.273,5.273,0,0,1,1.061.331,9.515,9.515,0,0,1,2.022,1.153,9.377,9.377,0,0,1,1.7,1.59,5.226,5.226,0,0,1,.629.918,5.26,5.26,0,0,1-1.062-.329,9.981,9.981,0,0,1-3.719-2.745A5.259,5.259,0,0,1,649.259,160.763Z" transform="translate(-623.408 -147.357)" fill="#dac078"/>
              <path id="Trazado_443" data-name="Trazado 443" d="M620.736,148.815a5.976,5.976,0,0,1,1.193-.021,11.631,11.631,0,0,1,4.787,1.438,5.976,5.976,0,0,1,.983.677,5.938,5.938,0,0,1-1.193.023,10.943,10.943,0,0,1-2.471-.461,11.066,11.066,0,0,1-2.315-.981A5.966,5.966,0,0,1,620.736,148.815Z" transform="translate(-613.029 -142.994)" fill="#dac078"/>
              <path id="Trazado_444" data-name="Trazado 444" d="M608.619,145a4.212,4.212,0,0,1,.971-.142,7.219,7.219,0,0,1,2.015.2,7.121,7.121,0,0,1,1.888.728,4.163,4.163,0,0,1,.8.567,4.174,4.174,0,0,1-.971.144,7.1,7.1,0,0,1-2.014-.2,7.225,7.225,0,0,1-1.888-.73A4.209,4.209,0,0,1,608.619,145Z" transform="translate(-608.619 -141.567)" fill="#dac078"/>
              <path id="Trazado_445" data-name="Trazado 445" d="M634.369,150.429l-.017-.265a3.455,3.455,0,0,0-.137-.732,3.167,3.167,0,0,0-.5-1.032,3.4,3.4,0,0,0-2.7-1.424c-.142,0-.308.006-.433.02a3.1,3.1,0,0,0-.465.082,3.478,3.478,0,0,0-2.141,1.6,4.425,4.425,0,0,0-.359.845,3.517,3.517,0,0,0-.117.91,4.1,4.1,0,0,0,.033.476,3.336,3.336,0,0,0,.086.434,4.4,4.4,0,0,0,.361.843,3.556,3.556,0,0,0,1.3,1.265,3.4,3.4,0,0,0,4.435-.99,3.147,3.147,0,0,0,.5-1.032,3.385,3.385,0,0,0,.137-.732Zm0,0-.009.265a3.44,3.44,0,0,1-.114.74,4.138,4.138,0,0,1-1.47,2.232,4.2,4.2,0,0,1-1.719.775,4.088,4.088,0,0,1-2.15-.165,4.4,4.4,0,0,1-1.048-.562,4.5,4.5,0,0,1-.863-.884,4,4,0,0,1-.571-1.132,4.384,4.384,0,0,1-.148-.644,4.505,4.505,0,0,1-.057-.625,4.2,4.2,0,0,1,.779-2.4,4,4,0,0,1,1.91-1.445,3.932,3.932,0,0,1,1.115-.23,3.694,3.694,0,0,1,.517,0,4.788,4.788,0,0,1,.529.066,4.238,4.238,0,0,1,1.706.772,4.135,4.135,0,0,1,1.471,2.231,3.444,3.444,0,0,1,.114.741Z" transform="translate(-615.024 -142.11)" fill="#dac078"/>
              <path id="Trazado_446" data-name="Trazado 446" d="M612.642,148.007c.182-1.321.424-2.627.661-3.934s.509-2.606.791-3.9l.1-.483.52.12c1.128.26,2.246.563,3.369.842s2.235.6,3.353.9l.648.174-.221.643c-.42,1.222-.866,2.434-1.3,3.652-.453,1.21-.9,2.423-1.368,3.627l-.186.474-.445-.152c-.995-.34-1.991-.674-2.98-1.035l-.356-.13.1-.322c.5-1.573,1.031-3.139,1.617-4.689-.252,1.639-.56,3.263-.9,4.879l-.254-.452c1.024.24,2.041.507,3.059.768l-.63.322c.38-1.235.786-2.462,1.184-3.691.419-1.222.824-2.449,1.255-3.666l.427.817c-1.112-.323-2.227-.632-3.335-.965s-2.219-.662-3.319-1.022l.625-.363c-.366,1.275-.754,2.544-1.15,3.812S613.107,146.757,612.642,148.007Z" transform="translate(-610.083 -139.687)" fill="#dac078"/>
              <path id="Trazado_447" data-name="Trazado 447" d="M639.544,158.482c.507-1.233,1.069-2.437,1.625-3.644s1.146-2.4,1.742-3.58l.222-.441.474.246c1.028.535,2.034,1.107,3.051,1.659s2.014,1.141,3.021,1.71l.584.33-.375.568c-.712,1.078-1.447,2.14-2.17,3.212-.741,1.058-1.475,2.121-2.232,3.169l-.3.413-.392-.258c-.879-.578-1.76-1.151-2.626-1.748l-.312-.216.179-.286c.88-1.4,1.784-2.78,2.739-4.135-.653,1.523-1.358,3.018-2.088,4.5l-.133-.5c.932.489,1.849,1,2.77,1.509l-.691.154c.677-1.1,1.377-2.187,2.07-3.278.712-1.078,1.41-2.165,2.133-3.236l.209.9c-1-.59-2-1.169-2.987-1.769s-1.983-1.2-2.958-1.82l.7-.2c-.674,1.142-1.367,2.275-2.067,3.4S640.307,157.389,639.544,158.482Z" transform="translate(-619.873 -143.737)" fill="#dac078"/>
            </g>
            <g id="Grupo_225" data-name="Grupo 225" transform="translate(138.643 35.985)">
              <path id="Trazado_448" data-name="Trazado 448" d="M696.568,217.541a6.02,6.02,0,0,1,.72.952,11.088,11.088,0,0,1,1.085,2.268,10.9,10.9,0,0,1,.573,2.448,5.981,5.981,0,0,1,.033,1.193,5.943,5.943,0,0,1-.721-.951,10.945,10.945,0,0,1-1.084-2.268,11.066,11.066,0,0,1-.572-2.448A5.989,5.989,0,0,1,696.568,217.541Z" transform="translate(-687.034 -202.17)" fill="#dac078"/>
              <path id="Trazado_449" data-name="Trazado 449" d="M701.82,233.122a5.256,5.256,0,0,1,.52.982,9.483,9.483,0,0,1,.624,2.242,9.362,9.362,0,0,1,.087,2.325,5.236,5.236,0,0,1-.2,1.094,5.221,5.221,0,0,1-.522-.981,9.378,9.378,0,0,1-.622-2.243,9.479,9.479,0,0,1-.085-2.326A5.257,5.257,0,0,1,701.82,233.122Z" transform="translate(-688.865 -207.84)" fill="#dac078"/>
              <path id="Trazado_450" data-name="Trazado 450" d="M690.1,204.569a5.973,5.973,0,0,1,.861.825,11.644,11.644,0,0,1,2.387,4.392,6,6,0,0,1,.221,1.172,5.937,5.937,0,0,1-.863-.824,11.627,11.627,0,0,1-2.383-4.394A6.008,6.008,0,0,1,690.1,204.569Z" transform="translate(-684.686 -197.45)" fill="#dac078"/>
              <path id="Trazado_451" data-name="Trazado 451" d="M684.136,193.377a4.206,4.206,0,0,1,.79.583,7.2,7.2,0,0,1,1.289,1.561,7.111,7.111,0,0,1,.828,1.847,4.188,4.188,0,0,1,.17.967,4.192,4.192,0,0,1-.791-.582,7.114,7.114,0,0,1-1.287-1.562,7.208,7.208,0,0,1-.827-1.848A4.191,4.191,0,0,1,684.136,193.377Z" transform="translate(-682.515 -193.377)" fill="#dac078"/>
              <path id="Trazado_452" data-name="Trazado 452" d="M696.335,216.266l.174-.2a3.385,3.385,0,0,0,.418-.616,3.158,3.158,0,0,0,.37-1.088,3.4,3.4,0,0,0-.917-2.915c-.1-.1-.223-.212-.322-.291a3.1,3.1,0,0,0-.388-.269,3.472,3.472,0,0,0-2.644-.374,4.415,4.415,0,0,0-.849.347,3.542,3.542,0,0,0-1.281,1.293,4.339,4.339,0,0,0-.338.852,3.561,3.561,0,0,0,.035,1.817,3.429,3.429,0,0,0,2.384,2.35,3.421,3.421,0,0,0,1.463.07,3.147,3.147,0,0,0,1.084-.378,3.459,3.459,0,0,0,.614-.423Zm0,0-.193.182a3.417,3.417,0,0,1-.6.445,4.136,4.136,0,0,1-2.616.55,4.2,4.2,0,0,1-1.766-.661,4.086,4.086,0,0,1-1.41-1.631,4.414,4.414,0,0,1-.348-1.137,4.463,4.463,0,0,1,.01-1.235,4.018,4.018,0,0,1,.392-1.206,4.83,4.83,0,0,1,.726-1.022,4.172,4.172,0,0,1,2.264-1.179,4,4,0,0,1,2.373.319,3.943,3.943,0,0,1,.954.622,3.627,3.627,0,0,1,.368.364,4.792,4.792,0,0,1,.328.419,4.232,4.232,0,0,1,.668,1.749,4.133,4.133,0,0,1-.527,2.619,3.436,3.436,0,0,1-.441.606Z" transform="translate(-684.417 -199.178)" fill="#dac078"/>
              <path id="Trazado_453" data-name="Trazado 453" d="M681.588,198.907c1.059-.81,2.151-1.567,3.24-2.328s2.2-1.491,3.309-2.214l.415-.269.285.452c.618.98,1.2,1.981,1.8,2.971s1.164,2,1.747,3l.338.58-.61.3c-1.158.572-2.329,1.12-3.492,1.68-1.174.541-2.343,1.089-3.526,1.612l-.466.206-.209-.421c-.467-.942-.939-1.881-1.386-2.833l-.162-.343.3-.156c1.464-.763,2.943-1.5,4.45-2.191-1.332.987-2.695,1.922-4.071,2.833l.138-.5c.558.892,1.092,1.8,1.631,2.7l-.674-.215c1.139-.61,2.292-1.195,3.44-1.788,1.158-.572,2.309-1.158,3.473-1.719l-.272.881c-.562-1.011-1.136-2.016-1.688-3.034s-1.109-2.032-1.637-3.063l.7.183c-1.158.647-2.327,1.275-3.5,1.9S682.8,198.347,681.588,198.907Z" transform="translate(-681.588 -193.639)" fill="#dac078"/>
              <path id="Trazado_454" data-name="Trazado 454" d="M693.576,226.107c1.228-.519,2.474-.978,3.719-1.443s2.5-.894,3.757-1.315l.469-.157.162.508c.354,1.1.665,2.218,1,3.327s.627,2.228.941,3.342l.183.646-.666.139c-1.265.265-2.535.5-3.8.753-1.272.229-2.541.468-3.817.678l-.5.083-.1-.46c-.216-1.029-.438-2.056-.633-3.09l-.07-.373.329-.076c1.608-.373,3.224-.718,4.857-1.008-1.537.621-3.09,1.187-4.651,1.724l.258-.449c.317,1,.608,2.013.9,3.021l-.6-.377c1.256-.305,2.518-.583,3.778-.87,1.265-.265,2.526-.544,3.793-.8l-.484.785c-.291-1.12-.595-2.237-.875-3.36s-.566-2.245-.818-3.375l.631.351c-1.282.337-2.572.653-3.864.96S694.888,225.868,693.576,226.107Z" transform="translate(-685.95 -204.227)" fill="#dac078"/>
            </g>
            <g id="Grupo_226" data-name="Grupo 226" transform="translate(137.367 92.834)">
              <path id="Trazado_455" data-name="Trazado 455" d="M692.953,308.527a5.985,5.985,0,0,1-.178,1.179,11.649,11.649,0,0,1-2.217,4.481,5.99,5.99,0,0,1-.831.856,5.925,5.925,0,0,1,.177-1.18,10.924,10.924,0,0,1,.866-2.36,11.064,11.064,0,0,1,1.353-2.119A6,6,0,0,1,692.953,308.527Z" transform="translate(-683.273 -292.129)" fill="#dac078"/>
              <path id="Trazado_456" data-name="Trazado 456" d="M685.094,323.257a5.273,5.273,0,0,1-.34,1.058,9.97,9.97,0,0,1-2.773,3.7,5.212,5.212,0,0,1-.923.621,5.254,5.254,0,0,1,.338-1.059,9.367,9.367,0,0,1,1.171-2.011,9.51,9.51,0,0,1,1.6-1.686A5.294,5.294,0,0,1,685.094,323.257Z" transform="translate(-680.119 -297.489)" fill="#dac078"/>
              <path id="Trazado_457" data-name="Trazado 457" d="M698.312,294.833a6,6,0,0,1,.011,1.193,11.057,11.057,0,0,1-.479,2.467,10.943,10.943,0,0,1-1,2.308,5.958,5.958,0,0,1-.685.977,5.958,5.958,0,0,1-.013-1.193,10.922,10.922,0,0,1,.481-2.467,11.053,11.053,0,0,1,1-2.307A6.023,6.023,0,0,1,698.312,294.833Z" transform="translate(-685.602 -287.146)" fill="#dac078"/>
              <path id="Trazado_458" data-name="Trazado 458" d="M702.526,282.748a4.183,4.183,0,0,1,.135.973,7.214,7.214,0,0,1-.217,2.013,7.127,7.127,0,0,1-.744,1.882,4.157,4.157,0,0,1-.574.8,4.172,4.172,0,0,1-.135-.973,7.123,7.123,0,0,1,.218-2.013,7.2,7.2,0,0,1,.745-1.882A4.209,4.209,0,0,1,702.526,282.748Z" transform="translate(-687.369 -282.748)" fill="#dac078"/>
              <path id="Trazado_459" data-name="Trazado 459" d="M693.166,308.434l.265-.015a3.4,3.4,0,0,0,.733-.132,3.146,3.146,0,0,0,1.036-.495,3.4,3.4,0,0,0,1.447-2.692c0-.142,0-.308-.017-.433a3.023,3.023,0,0,0-.079-.466,3.5,3.5,0,0,0-.322-.838,3.548,3.548,0,0,0-1.256-1.316,4.457,4.457,0,0,0-.842-.366,3.639,3.639,0,0,0-.877-.125,3.6,3.6,0,0,0-.943.111,4.423,4.423,0,0,0-.847.354,3.56,3.56,0,0,0-1.275,1.294,3.405,3.405,0,0,0,.953,4.443,3.143,3.143,0,0,0,1.028.512,3.415,3.415,0,0,0,.731.144Zm0,0-.265-.011a3.485,3.485,0,0,1-.74-.12,4.141,4.141,0,0,1-2.22-1.488,4.205,4.205,0,0,1-.76-1.726,4.1,4.1,0,0,1,.182-2.148,4.411,4.411,0,0,1,.571-1.043,4.481,4.481,0,0,1,.891-.856,4,4,0,0,1,1.137-.562,4.824,4.824,0,0,1,1.238-.194,4.175,4.175,0,0,1,2.425.8,4,4,0,0,1,1.429,1.922,3.911,3.911,0,0,1,.221,1.117,3.666,3.666,0,0,1,0,.517,4.9,4.9,0,0,1-.071.527,4.232,4.232,0,0,1-.786,1.7,4.129,4.129,0,0,1-2.243,1.453,3.442,3.442,0,0,1-.742.108Z" transform="translate(-683.05 -289.13)" fill="#dac078"/>
              <path id="Trazado_460" data-name="Trazado 460" d="M694.462,286.707c1.319.193,2.623.447,3.929.693s2.6.532,3.895.823l.482.109-.124.52c-.27,1.127-.581,2.241-.87,3.362s-.619,2.231-.927,3.346l-.179.647-.642-.226c-1.218-.429-2.427-.885-3.641-1.327-1.207-.463-2.416-.917-3.616-1.4l-.473-.19.156-.443c.348-.992.691-1.985,1.06-2.971l.134-.356.321.106c1.569.515,3.13,1.057,4.676,1.655-1.637-.265-3.257-.586-4.871-.936l.454-.25c-.249,1.022-.524,2.037-.794,3.053l-.317-.633c1.233.39,2.455.806,3.682,1.214,1.218.429,2.442.844,3.656,1.286l-.821.42c.331-1.109.65-2.221.992-3.327s.68-2.212,1.05-3.31l.358.628c-1.272-.377-2.538-.775-3.8-1.182S695.708,287.183,694.462,286.707Z" transform="translate(-684.208 -284.189)" fill="#dac078"/>
              <path id="Trazado_461" data-name="Trazado 461" d="M683.268,313.526c1.23.517,2.429,1.088,3.631,1.655s2.385,1.165,3.565,1.772l.44.226-.25.471c-.543,1.023-1.124,2.025-1.684,3.038s-1.158,2-1.735,3.007l-.335.581-.565-.379c-1.072-.721-2.128-1.465-3.194-2.2-1.052-.75-2.109-1.492-3.151-2.258l-.41-.3.261-.391c.585-.873,1.166-1.749,1.77-2.611l.218-.311.284.182c1.39.891,2.766,1.807,4.112,2.773-1.518-.666-3.007-1.383-4.482-2.125l.5-.129c-.5.927-1.017,1.841-1.532,2.757l-.148-.692c1.1.686,2.175,1.395,3.261,2.1,1.073.721,2.153,1.429,3.218,2.16l-.9.2c.6-.991,1.185-1.988,1.793-2.973s1.212-1.973,1.845-2.943l.189.7c-1.137-.683-2.263-1.385-3.385-2.1S684.356,314.3,683.268,313.526Z" transform="translate(-679.581 -293.948)" fill="#dac078"/>
            </g>
            <g id="Grupo_227" data-name="Grupo 227" transform="translate(92.809 139.008)">
              <path id="Trazado_462" data-name="Trazado 462" d="M626.135,370.159a5.986,5.986,0,0,1-.958.711,11.05,11.05,0,0,1-2.279,1.064,10.916,10.916,0,0,1-2.453.549,5.941,5.941,0,0,1-1.193.021,5.977,5.977,0,0,1,.957-.712,10.951,10.951,0,0,1,2.279-1.062,11.063,11.063,0,0,1,2.453-.548A6.016,6.016,0,0,1,626.135,370.159Z" transform="translate(-613.07 -360.724)" fill="#dac078"/>
              <path id="Trazado_463" data-name="Trazado 463" d="M639.432,363.821a6.006,6.006,0,0,1-.833.854,11.636,11.636,0,0,1-4.415,2.344,5.938,5.938,0,0,1-1.175.209,5.944,5.944,0,0,1,.832-.855,10.971,10.971,0,0,1,2.081-1.41,11.1,11.1,0,0,1,2.336-.931A6.041,6.041,0,0,1,639.432,363.821Z" transform="translate(-618.076 -358.424)" fill="#dac078"/>
              <path id="Trazado_464" data-name="Trazado 464" d="M651.5,357.966a4.208,4.208,0,0,1-.59.784,7.215,7.215,0,0,1-1.573,1.273,7.129,7.129,0,0,1-1.855.81,4.172,4.172,0,0,1-.969.161,4.164,4.164,0,0,1,.59-.786,7.535,7.535,0,0,1,3.429-2.081A4.208,4.208,0,0,1,651.5,357.966Z" transform="translate(-622.991 -356.294)" fill="#dac078"/>
              <path id="Trazado_465" data-name="Trazado 465" d="M626.661,369.918l.2.176a3.4,3.4,0,0,0,.613.424,3.141,3.141,0,0,0,1.084.38,3.4,3.4,0,0,0,2.924-.889c.1-.1.214-.221.293-.319a2.959,2.959,0,0,0,.273-.386,3.5,3.5,0,0,0,.363-.821,3.555,3.555,0,0,0,.037-1.819,4.386,4.386,0,0,0-.338-.853,3.517,3.517,0,0,0-.557-.73,4.189,4.189,0,0,0-.358-.316,3.256,3.256,0,0,0-.366-.247,4.36,4.36,0,0,0-.849-.346,3.555,3.555,0,0,0-1.817.018,3.425,3.425,0,0,0-2.373,2.361,3.41,3.41,0,0,0-.085,1.461,3.159,3.159,0,0,0,.367,1.088,3.406,3.406,0,0,0,.417.617Zm0,0-.18-.2a3.413,3.413,0,0,1-.44-.607,4.134,4.134,0,0,1-.525-2.621,4.2,4.2,0,0,1,.678-1.759,4.09,4.09,0,0,1,1.645-1.394,4.427,4.427,0,0,1,1.141-.337,4.474,4.474,0,0,1,1.235.022,4.028,4.028,0,0,1,1.2.4,4.445,4.445,0,0,1,.558.354,4.686,4.686,0,0,1,.48.4,4.2,4.2,0,0,1,1.133,2.254,3.993,3.993,0,0,1-.342,2.37,3.951,3.951,0,0,1-.631.948,3.722,3.722,0,0,1-.368.364,4.769,4.769,0,0,1-.422.324,4.232,4.232,0,0,1-1.756.651,4.132,4.132,0,0,1-2.615-.552,3.46,3.46,0,0,1-.6-.447Z" transform="translate(-615.336 -358.115)" fill="#dac078"/>
              <path id="Trazado_466" data-name="Trazado 466" d="M642.656,355.337c.8,1.067,1.545,2.167,2.3,3.263s1.469,2.211,2.181,3.331l.265.417-.455.281c-.985.608-1.992,1.179-2.988,1.77s-2.012,1.145-3.017,1.718l-.583.332-.3-.613c-.561-1.164-1.1-2.34-1.646-3.509-.529-1.179-1.066-2.354-1.578-3.541l-.2-.468.424-.2c.946-.458,1.89-.92,2.847-1.359l.345-.158.153.3c.749,1.471,1.473,2.957,2.147,4.471-.973-1.342-1.9-2.714-2.794-4.1l.5.143c-.9.55-1.808,1.074-2.715,1.6l.221-.672c.6,1.145,1.172,2.3,1.754,3.457.561,1.164,1.135,2.321,1.685,3.49l-.878-.281c1.017-.553,2.028-1.116,3.05-1.659s2.042-1.09,3.079-1.607l-.19.7c-.636-1.164-1.252-2.34-1.862-3.52S643.2,356.553,642.656,355.337Z" transform="translate(-619.396 -355.337)" fill="#dac078"/>
              <path id="Trazado_467" data-name="Trazado 467" d="M616.107,367.07c.507,1.233.954,2.485,1.407,3.733s.87,2.509,1.279,3.771l.152.47-.51.158c-1.107.342-2.224.642-3.336.966s-2.235.6-3.351.908l-.648.176-.133-.668c-.251-1.267-.476-2.539-.715-3.808-.217-1.274-.443-2.546-.641-3.824l-.078-.5.461-.092c1.031-.206,2.06-.419,3.1-.6l.374-.067.073.329c.357,1.612.687,3.231.96,4.866-.606-1.543-1.156-3.1-1.679-4.667l.447.263c-1.006.308-2.019.588-3.03.875l.383-.6c.293,1.259.559,2.523.833,3.786.252,1.267.519,2.531.758,3.8l-.78-.491c1.123-.281,2.243-.573,3.368-.843s2.251-.544,3.383-.786l-.358.628c-.324-1.286-.627-2.579-.922-3.873S616.333,368.384,616.107,367.07Z" transform="translate(-609.533 -359.607)" fill="#dac078"/>
            </g>
            <g id="Grupo_228" data-name="Grupo 228" transform="translate(34.119 137.494)">
              <path id="Trazado_468" data-name="Trazado 468" d="M536.764,366.3a6.018,6.018,0,0,1-1.18-.174,11.053,11.053,0,0,1-2.364-.857,10.934,10.934,0,0,1-2.124-1.345,5.966,5.966,0,0,1-.859-.829,5.964,5.964,0,0,1,1.181.173,11.633,11.633,0,0,1,4.486,2.205A6,6,0,0,1,536.764,366.3Z" transform="translate(-521.988 -356.645)" fill="#dac078"/>
              <path id="Trazado_469" data-name="Trazado 469" d="M522.659,358.484a5.293,5.293,0,0,1-1.06-.337,9.515,9.515,0,0,1-2.016-1.162,9.373,9.373,0,0,1-1.691-1.6,5.181,5.181,0,0,1-.624-.92,5.222,5.222,0,0,1,1.06.335,9.393,9.393,0,0,1,2.015,1.163,9.524,9.524,0,0,1,1.691,1.6A5.275,5.275,0,0,1,522.659,358.484Z" transform="translate(-517.268 -353.506)" fill="#dac078"/>
              <path id="Trazado_470" data-name="Trazado 470" d="M550.23,371.61a5.989,5.989,0,0,1-1.193.015,11.068,11.068,0,0,1-2.47-.471,10.946,10.946,0,0,1-2.31-.99,5.973,5.973,0,0,1-.98-.682,5.935,5.935,0,0,1,1.193-.017,10.928,10.928,0,0,1,2.469.473,11.061,11.061,0,0,1,2.31.992A5.979,5.979,0,0,1,550.23,371.61Z" transform="translate(-526.733 -358.957)" fill="#dac078"/>
              <path id="Trazado_471" data-name="Trazado 471" d="M535.932,366.5l.016.265a3.431,3.431,0,0,0,.134.733,3.166,3.166,0,0,0,.5,1.035,3.4,3.4,0,0,0,2.7,1.438,4.273,4.273,0,0,0,.433-.018,2.966,2.966,0,0,0,.466-.08,3.464,3.464,0,0,0,2.148-1.585,4.422,4.422,0,0,0,.364-.842,3.667,3.667,0,0,0,.122-.878,3.6,3.6,0,0,0-.114-.943,4.352,4.352,0,0,0-.356-.845,3.559,3.559,0,0,0-1.3-1.272,3.427,3.427,0,0,0-3.348-.007,3.4,3.4,0,0,0-1.092.974,3.156,3.156,0,0,0-.51,1.029,3.422,3.422,0,0,0-.141.732Zm0,0,.01-.265a3.451,3.451,0,0,1,.118-.74,4.139,4.139,0,0,1,1.481-2.225,4.194,4.194,0,0,1,1.723-.766,4.091,4.091,0,0,1,2.149.176,4.392,4.392,0,0,1,1.045.568,4.483,4.483,0,0,1,.859.888,3.992,3.992,0,0,1,.565,1.135,4.812,4.812,0,0,1,.2,1.237,4.171,4.171,0,0,1-.79,2.427,3.995,3.995,0,0,1-1.917,1.435,3.894,3.894,0,0,1-1.116.225,3.583,3.583,0,0,1-.517,0,4.755,4.755,0,0,1-.528-.069,4.241,4.241,0,0,1-1.7-.78,4.135,4.135,0,0,1-1.46-2.238,3.443,3.443,0,0,1-.11-.742Z" transform="translate(-524.06 -356.407)" fill="#dac078"/>
              <path id="Trazado_472" data-name="Trazado 472" d="M556.9,367.734c-.188,1.32-.438,2.625-.681,3.931s-.523,2.6-.81,3.9l-.107.483-.52-.123c-1.128-.267-2.243-.574-3.365-.859s-2.233-.612-3.349-.917l-.647-.177.224-.642c.426-1.219.877-2.43,1.315-3.646.459-1.208.91-2.418,1.387-3.62l.188-.473.444.154c.993.345,1.988.684,2.974,1.05l.356.132-.1.321c-.509,1.571-1.046,3.133-1.64,4.681.26-1.637.576-3.259.92-4.874l.252.453c-1.024-.245-2.039-.517-3.056-.784l.632-.319c-.386,1.233-.8,2.458-1.2,3.686-.426,1.219-.836,2.445-1.273,3.66l-.423-.819c1.11.328,2.224.643,3.331.981s2.215.672,3.314,1.039l-.627.36c.373-1.273.766-2.541,1.17-3.806S556.426,368.981,556.9,367.734Z" transform="translate(-528.24 -357.554)" fill="#dac078"/>
              <path id="Trazado_473" data-name="Trazado 473" d="M529.325,356.627c-.513,1.231-1.081,2.432-1.643,3.636s-1.158,2.389-1.76,3.571l-.225.441-.473-.249c-1.025-.539-2.028-1.117-3.042-1.674s-2.009-1.151-3.013-1.725l-.583-.333.378-.565c.718-1.075,1.458-2.133,2.186-3.2.746-1.055,1.485-2.114,2.248-3.158l.3-.412.391.261c.875.582,1.753,1.16,2.617,1.761l.312.217-.181.285c-.887,1.393-1.8,2.772-2.759,4.122.661-1.52,1.373-3.012,2.11-4.489l.13.5c-.929-.494-1.844-1.011-2.762-1.523l.691-.151c-.682,1.1-1.388,2.181-2.086,3.268-.717,1.075-1.422,2.158-2.149,3.226l-.2-.9c.992.6,1.992,1.179,2.979,1.784s1.976,1.205,2.948,1.835l-.7.191c.679-1.139,1.378-2.268,2.085-3.392S528.557,357.716,529.325,356.627Z" transform="translate(-517.748 -352.957)" fill="#dac078"/>
            </g>
            <g id="Grupo_229" data-name="Grupo 229" transform="translate(1.358 89.777)">
              <path id="Trazado_474" data-name="Trazado 474" d="M477.418,300.061a5.971,5.971,0,0,1-.717-.953,11.072,11.072,0,0,1-1.079-2.271,10.951,10.951,0,0,1-.566-2.45,5.951,5.951,0,0,1-.029-1.193,5.943,5.943,0,0,1,.719.953,10.934,10.934,0,0,1,1.077,2.272,11.062,11.062,0,0,1,.565,2.45A6.007,6.007,0,0,1,477.418,300.061Z" transform="translate(-469.129 -283.493)" fill="#dac078"/>
              <path id="Trazado_475" data-name="Trazado 475" d="M472.744,284.59a5.269,5.269,0,0,1-.517-.984,9.959,9.959,0,0,1-.7-4.569,5.241,5.241,0,0,1,.2-1.094,5.232,5.232,0,0,1,.519.984,9.383,9.383,0,0,1,.616,2.244,9.489,9.489,0,0,1,.079,2.326A5.234,5.234,0,0,1,472.744,284.59Z" transform="translate(-467.848 -277.943)" fill="#dac078"/>
              <path id="Trazado_476" data-name="Trazado 476" d="M483.258,313.319a6.044,6.044,0,0,1-.859-.828,11.643,11.643,0,0,1-2.374-4.4,5.962,5.962,0,0,1-.218-1.174,5.96,5.96,0,0,1,.861.827,10.887,10.887,0,0,1,1.424,2.072,11.063,11.063,0,0,1,.947,2.329A5.979,5.979,0,0,1,483.258,313.319Z" transform="translate(-470.875 -288.487)" fill="#dac078"/>
              <path id="Trazado_477" data-name="Trazado 477" d="M489.412,325.349a4.18,4.18,0,0,1-.788-.585,7.2,7.2,0,0,1-1.284-1.564,7.126,7.126,0,0,1-.822-1.849,4.189,4.189,0,0,1-.168-.968,4.193,4.193,0,0,1,.789.585,7.1,7.1,0,0,1,1.283,1.565,7.192,7.192,0,0,1,.821,1.85A4.186,4.186,0,0,1,489.412,325.349Z" transform="translate(-473.256 -293.387)" fill="#dac078"/>
              <path id="Trazado_478" data-name="Trazado 478" d="M474.374,300.592l-.174.2a3.458,3.458,0,0,0-.42.616,3.168,3.168,0,0,0-.373,1.086,3.4,3.4,0,0,0,.908,2.918c.1.1.223.213.321.291a2.9,2.9,0,0,0,.387.27,3.492,3.492,0,0,0,.824.357,3.553,3.553,0,0,0,1.819.026,4.456,4.456,0,0,0,.851-.344,3.662,3.662,0,0,0,.7-.538,3.606,3.606,0,0,0,.581-.751,4.35,4.35,0,0,0,.34-.852,3.555,3.555,0,0,0-.03-1.817,3.405,3.405,0,0,0-3.839-2.432,3.16,3.16,0,0,0-1.085.375,3.414,3.414,0,0,0-.614.422Zm0,0,.194-.181a3.406,3.406,0,0,1,.6-.444,4.132,4.132,0,0,1,2.617-.542,4.2,4.2,0,0,1,1.764.665,4.089,4.089,0,0,1,1.405,1.635,3.986,3.986,0,0,1,.331,2.374,4,4,0,0,1-.4,1.2,4.8,4.8,0,0,1-.728,1.019A4.167,4.167,0,0,1,477.9,307.5a4.006,4.006,0,0,1-2.372-.326,3.925,3.925,0,0,1-.952-.625,3.535,3.535,0,0,1-.366-.364,4.877,4.877,0,0,1-.328-.42,4.237,4.237,0,0,1-.662-1.752,4.132,4.132,0,0,1,.534-2.618,3.462,3.462,0,0,1,.442-.6Z" transform="translate(-468.464 -285.749)" fill="#dac078"/>
              <path id="Trazado_479" data-name="Trazado 479" d="M487.372,316.484c-1.062.807-2.156,1.56-3.247,2.319s-2.2,1.485-3.316,2.2l-.415.268-.284-.453c-.615-.981-1.192-1.985-1.79-2.976s-1.158-2-1.738-3.006l-.336-.581.611-.3c1.16-.569,2.332-1.113,3.5-1.67,1.176-.537,2.347-1.082,3.53-1.6l.466-.2.207.422c.464.943.934,1.884,1.378,2.837l.16.344-.3.155c-1.466.759-2.946,1.494-4.457,2.177,1.336-.982,2.7-1.913,4.08-2.821l-.139.5c-.556-.893-1.087-1.8-1.623-2.7l.674.217c-1.141.607-2.295,1.188-3.445,1.777-1.16.569-2.313,1.152-3.478,1.709l.275-.88c.559,1.013,1.13,2.02,1.679,3.039s1.1,2.035,1.628,3.068l-.7-.184c1.16-.644,2.331-1.268,3.506-1.885S486.159,317.04,487.372,316.484Z" transform="translate(-469.579 -289.785)" fill="#dac078"/>
              <path id="Trazado_480" data-name="Trazado 480" d="M475.981,290.009c-1.23.515-2.478.971-3.724,1.433s-2.5.887-3.762,1.3l-.469.156-.162-.51c-.35-1.1-.658-2.219-.989-3.329s-.62-2.23-.931-3.345l-.181-.646.667-.137c1.265-.261,2.536-.494,3.8-.742,1.272-.225,2.543-.46,3.819-.667l.5-.081.1.461c.213,1.029.433,2.057.624,3.091l.069.373-.329.076c-1.609.368-3.226.709-4.859.993,1.539-.616,3.093-1.177,4.656-1.711l-.26.448c-.314-1-.6-2.015-.894-3.025l.6.379c-1.257.3-2.52.576-3.78.859-1.265.261-2.528.536-3.8.784l.486-.783c.288,1.121.589,2.238.866,3.362s.559,2.246.808,3.378l-.63-.354c1.284-.333,2.574-.645,3.866-.948S474.669,290.244,475.981,290.009Z" transform="translate(-465.765 -279.945)" fill="#dac078"/>
            </g>
            <g id="Grupo_230" data-name="Grupo 230" transform="translate(1.833 34.412)">
              <path id="Trazado_481" data-name="Trazado 481" d="M480.315,210.458a6.012,6.012,0,0,1,.169-1.181,11.048,11.048,0,0,1,.846-2.368,10.9,10.9,0,0,1,1.334-2.13,5.971,5.971,0,0,1,.824-.863,5.972,5.972,0,0,1-.167,1.182,11.626,11.626,0,0,1-2.184,4.5A6.016,6.016,0,0,1,480.315,210.458Z" transform="translate(-471.535 -195.639)" fill="#dac078"/>
              <path id="Trazado_482" data-name="Trazado 482" d="M487.59,196.315a5.247,5.247,0,0,1,.331-1.062,9.976,9.976,0,0,1,2.742-3.721,5.243,5.243,0,0,1,.918-.628,5.251,5.251,0,0,1-.33,1.062,9.386,9.386,0,0,1-1.154,2.021,9.5,9.5,0,0,1-1.591,1.7A5.3,5.3,0,0,1,487.59,196.315Z" transform="translate(-474.182 -190.904)" fill="#dac078"/>
              <path id="Trazado_483" data-name="Trazado 483" d="M475.64,223.95a6.037,6.037,0,0,1-.021-1.193,11.1,11.1,0,0,1,.459-2.472,10.95,10.95,0,0,1,.979-2.315,5.968,5.968,0,0,1,.677-.983,5.973,5.973,0,0,1,.022,1.193,10.957,10.957,0,0,1-.461,2.471,11.07,11.07,0,0,1-.981,2.315A6.013,6.013,0,0,1,475.64,223.95Z" transform="translate(-469.819 -200.396)" fill="#dac078"/>
              <path id="Trazado_484" data-name="Trazado 484" d="M471.829,236.8a4.227,4.227,0,0,1-.142-.971,7.248,7.248,0,0,1,.2-2.015,7.118,7.118,0,0,1,.728-1.888,4.16,4.16,0,0,1,.567-.8,4.161,4.161,0,0,1,.144.971,7.548,7.548,0,0,1-.933,3.9A4.2,4.2,0,0,1,471.829,236.8Z" transform="translate(-468.392 -205.541)" fill="#dac078"/>
              <path id="Trazado_485" data-name="Trazado 485" d="M477.256,209.638l-.265.018a3.419,3.419,0,0,0-.732.137,3.152,3.152,0,0,0-1.032.5A3.4,3.4,0,0,0,473.8,213c0,.142.006.308.02.433a3,3,0,0,0,.083.465,3.47,3.47,0,0,0,1.6,2.141,4.438,4.438,0,0,0,.845.359,3.538,3.538,0,0,0,.91.118,4.1,4.1,0,0,0,.476-.033,3.236,3.236,0,0,0,.434-.085,4.4,4.4,0,0,0,.843-.361,3.555,3.555,0,0,0,1.265-1.3,3.406,3.406,0,0,0-.989-4.435,3.156,3.156,0,0,0-1.032-.5,3.423,3.423,0,0,0-.733-.137Zm0,0,.265.009a3.449,3.449,0,0,1,.741.115,4.139,4.139,0,0,1,2.232,1.47,4.2,4.2,0,0,1,.775,1.719,4.094,4.094,0,0,1-.166,2.15,4.4,4.4,0,0,1-.562,1.048,4.478,4.478,0,0,1-.884.863,3.989,3.989,0,0,1-1.132.571,4.38,4.38,0,0,1-.644.148,4.6,4.6,0,0,1-.625.057,4.2,4.2,0,0,1-2.4-.779,4.011,4.011,0,0,1-1.445-1.91,3.94,3.94,0,0,1-.23-1.116,3.585,3.585,0,0,1,0-.517,4.794,4.794,0,0,1,.066-.528,4.229,4.229,0,0,1,.772-1.706,4.128,4.128,0,0,1,2.231-1.471,3.451,3.451,0,0,1,.74-.115Z" transform="translate(-468.935 -197.721)" fill="#dac078"/>
              <path id="Trazado_486" data-name="Trazado 486" d="M474.832,230.622c-1.321-.182-2.627-.425-3.934-.662s-2.606-.509-3.9-.791l-.483-.1.12-.52c.261-1.129.563-2.246.843-3.369s.6-2.235.9-3.353l.174-.648.643.221c1.222.42,2.434.866,3.652,1.3,1.21.453,2.424.9,3.627,1.369l.475.185-.152.445c-.34.994-.674,1.991-1.036,2.979l-.13.357-.322-.1c-1.572-.5-3.138-1.032-4.689-1.618,1.639.252,3.262.56,4.878.9l-.452.254c.24-1.025.507-2.041.768-3.059l.322.63c-1.236-.38-2.462-.786-3.691-1.184-1.222-.419-2.449-.824-3.666-1.255l.817-.427c-.323,1.112-.632,2.227-.966,3.335s-.661,2.219-1.022,3.319l-.363-.625c1.275.366,2.544.754,3.811,1.151S473.582,230.157,474.832,230.622Z" transform="translate(-466.512 -201.919)" fill="#dac078"/>
              <path id="Trazado_487" data-name="Trazado 487" d="M485.309,202.993c-1.233-.507-2.437-1.069-3.644-1.625s-2.4-1.146-3.58-1.742l-.442-.223.246-.473c.535-1.028,1.107-2.034,1.659-3.051s1.141-2.014,1.711-3.021l.33-.584.568.375c1.078.712,2.141,1.447,3.211,2.17,1.058.742,2.122,1.475,3.17,2.233l.412.3-.258.392c-.578.878-1.151,1.759-1.748,2.625l-.216.313-.286-.18c-1.4-.88-2.78-1.784-4.135-2.739,1.523.654,3.018,1.359,4.5,2.088l-.5.132c.489-.932,1-1.849,1.509-2.77l.154.691c-1.1-.677-2.187-1.377-3.278-2.07-1.078-.712-2.165-1.41-3.235-2.133l.9-.209c-.59,1-1.169,2-1.769,2.987s-1.2,1.983-1.821,2.958l-.2-.7c1.143.674,2.275,1.366,3.4,2.067S484.216,202.229,485.309,202.993Z" transform="translate(-470.563 -191.402)" fill="#dac078"/>
            </g>
            <g id="Grupo_231" data-name="Grupo 231" transform="translate(36.704 1.222)">
              <path id="Trazado_488" data-name="Trazado 488" d="M545.64,150.254a6.059,6.059,0,0,1,.96-.709,11.664,11.664,0,0,1,4.735-1.6,5.956,5.956,0,0,1,1.193-.018,5.935,5.935,0,0,1-.959.71,10.9,10.9,0,0,1-2.281,1.058,11.048,11.048,0,0,1-2.455.543A5.994,5.994,0,0,1,545.64,150.254Z" transform="translate(-530.178 -142.066)" fill="#dac078"/>
              <path id="Trazado_489" data-name="Trazado 489" d="M561.283,145.709a5.246,5.246,0,0,1,.988-.509,9.49,9.49,0,0,1,2.249-.6,9.388,9.388,0,0,1,2.327-.06,5.249,5.249,0,0,1,1.092.212,5.219,5.219,0,0,1-.989.511,9.959,9.959,0,0,1-4.575.654A5.268,5.268,0,0,1,561.283,145.709Z" transform="translate(-535.87 -140.826)" fill="#dac078"/>
              <path id="Trazado_490" data-name="Trazado 490" d="M532.593,155.981a6,6,0,0,1,.835-.852,11.641,11.641,0,0,1,4.42-2.335,5.961,5.961,0,0,1,1.176-.207,5.98,5.98,0,0,1-.835.854,11.628,11.628,0,0,1-4.421,2.332A6.011,6.011,0,0,1,532.593,155.981Z" transform="translate(-525.43 -143.77)" fill="#dac078"/>
              <path id="Trazado_491" data-name="Trazado 491" d="M521.332,162.029a4.214,4.214,0,0,1,.592-.783,7.206,7.206,0,0,1,1.576-1.271,7.119,7.119,0,0,1,1.856-.806,4.17,4.17,0,0,1,.969-.16,4.183,4.183,0,0,1-.591.784,7.541,7.541,0,0,1-3.434,2.074A4.221,4.221,0,0,1,521.332,162.029Z" transform="translate(-521.332 -146.108)" fill="#dac078"/>
              <path id="Trazado_492" data-name="Trazado 492" d="M544.391,147.187l-.2-.176a3.4,3.4,0,0,0-.611-.426,3.155,3.155,0,0,0-1.083-.382,3.4,3.4,0,0,0-2.926.883c-.1.1-.215.22-.294.318a2.955,2.955,0,0,0-.274.385,3.48,3.48,0,0,0-.364.82,3.549,3.549,0,0,0-.042,1.819,4.45,4.45,0,0,0,.337.854,3.529,3.529,0,0,0,.555.731,4.174,4.174,0,0,0,.357.316,3.221,3.221,0,0,0,.365.249,4.381,4.381,0,0,0,.849.348,3.563,3.563,0,0,0,1.817-.014,3.406,3.406,0,0,0,2.465-3.818,3.148,3.148,0,0,0-.365-1.088,3.432,3.432,0,0,0-.416-.618Zm0,0,.18.2a3.461,3.461,0,0,1,.439.607,4.14,4.14,0,0,1,.519,2.622,4.2,4.2,0,0,1-.681,1.758,4.093,4.093,0,0,1-1.648,1.391,4.436,4.436,0,0,1-1.142.335,4.5,4.5,0,0,1-1.235-.024,4.006,4.006,0,0,1-1.2-.406,4.439,4.439,0,0,1-.557-.355,4.507,4.507,0,0,1-.479-.4,4.2,4.2,0,0,1-1.129-2.256,4,4,0,0,1,.346-2.369,3.924,3.924,0,0,1,.634-.947,3.627,3.627,0,0,1,.368-.363,4.738,4.738,0,0,1,.423-.324,4.234,4.234,0,0,1,1.757-.647,4.13,4.13,0,0,1,2.614.557,3.465,3.465,0,0,1,.6.448Z" transform="translate(-527.183 -141.363)" fill="#dac078"/>
              <path id="Trazado_493" data-name="Trazado 493" d="M526.878,160.047c-.8-1.069-1.541-2.17-2.291-3.267s-1.465-2.214-2.174-3.334l-.265-.418.455-.28c.987-.606,2-1.175,2.992-1.764s2.014-1.141,3.02-1.712l.583-.331.295.613c.558,1.165,1.091,2.342,1.639,3.512.527,1.18,1.062,2.356,1.571,3.544l.2.468-.424.2c-.947.455-1.891.917-2.849,1.353l-.345.157-.153-.3c-.746-1.473-1.468-2.959-2.139-4.475.971,1.344,1.891,2.717,2.786,4.1l-.5-.144c.9-.548,1.81-1.071,2.719-1.6l-.223.672c-.6-1.147-1.167-2.306-1.747-3.461-.559-1.165-1.132-2.323-1.679-3.493l.877.282c-1.019.55-2.03,1.112-3.053,1.653s-2.044,1.086-3.082,1.6l.19-.7c.634,1.165,1.248,2.341,1.855,3.522S526.333,158.83,526.878,160.047Z" transform="translate(-521.629 -142.444)" fill="#dac078"/>
              <path id="Trazado_494" data-name="Trazado 494" d="M554.224,148.9c-.505-1.235-.95-2.486-1.4-3.736s-.864-2.511-1.271-3.773l-.151-.471.51-.157c1.107-.34,2.226-.638,3.338-.959s2.235-.6,3.352-.9l.648-.175.131.668c.249,1.267.471,2.54.708,3.81.214,1.274.438,2.546.634,3.824l.077.5-.461.091c-1.031.2-2.061.415-3.1.6l-.374.066-.073-.33c-.354-1.613-.681-3.233-.95-4.868.6,1.544,1.15,3.1,1.67,4.67l-.447-.263c1.007-.306,2.02-.585,3.032-.868l-.384.595c-.291-1.26-.554-2.525-.826-3.788-.249-1.268-.514-2.532-.751-3.8l.779.493c-1.123.278-2.244.569-3.37.836s-2.251.539-3.384.779l.359-.628c.322,1.287.623,2.58.915,3.875S554,147.585,554.224,148.9Z" transform="translate(-532.274 -138.727)" fill="#dac078"/>
            </g>
            <path id="Trazado_495" data-name="Trazado 495" d="M675.951,181.092a5.037,5.037,0,0,1,.865.659,9.495,9.495,0,0,1,2.467,3.773,5.044,5.044,0,0,1,.254,1.058,5.006,5.006,0,0,1-.866-.658,8.931,8.931,0,0,1-1.459-1.739,9.03,9.03,0,0,1-1-2.036A5.051,5.051,0,0,1,675.951,181.092Z" transform="translate(-540.893 -152.922)" fill="#dac078"/>
            <path id="Trazado_496" data-name="Trazado 496" d="M706.349,266.853a5.071,5.071,0,0,1,.216,1.066,9.036,9.036,0,0,1-.049,2.27,8.934,8.934,0,0,1-.586,2.193,5.02,5.02,0,0,1-.506.962,5.025,5.025,0,0,1-.217-1.065,8.917,8.917,0,0,1,.05-2.27,9.03,9.03,0,0,1,.588-2.193A5.067,5.067,0,0,1,706.349,266.853Z" transform="translate(-551.521 -184.13)" fill="#dac078"/>
            <path id="Trazado_497" data-name="Trazado 497" d="M664.981,349.921a6.191,6.191,0,0,1-.719.975,12.027,12.027,0,0,1-4.107,3,6.126,6.126,0,0,1-1.149.385,6.144,6.144,0,0,1,.718-.976,11.347,11.347,0,0,1,1.894-1.717,11.481,11.481,0,0,1,2.215-1.278A6.194,6.194,0,0,1,664.981,349.921Z" transform="translate(-534.727 -214.358)" fill="#dac078"/>
            <path id="Trazado_498" data-name="Trazado 498" d="M492.965,332.237a6.04,6.04,0,0,1,.927.754,11.715,11.715,0,0,1,2.741,4.193,5.992,5.992,0,0,1,.317,1.153,5.98,5.98,0,0,1-.929-.754,11.675,11.675,0,0,1-2.738-4.2A6.045,6.045,0,0,1,492.965,332.237Z" transform="translate(-474.305 -207.923)" fill="#dac078"/>
            <path id="Trazado_499" data-name="Trazado 499" d="M469.207,244.031a6.41,6.41,0,0,1,.186,1.218,11.863,11.863,0,0,1-.113,2.6,11.735,11.735,0,0,1-.65,2.522,6.34,6.34,0,0,1-.535,1.111,6.369,6.369,0,0,1-.188-1.219,11.709,11.709,0,0,1,.115-2.6,11.905,11.905,0,0,1,.651-2.522A6.4,6.4,0,0,1,469.207,244.031Z" transform="translate(-465.176 -175.825)" fill="#dac078"/>
            <path id="Trazado_500" data-name="Trazado 500" d="M513.12,165.826a6.392,6.392,0,0,1-.721,1,11.872,11.872,0,0,1-1.905,1.782,11.748,11.748,0,0,1-2.232,1.35,6.321,6.321,0,0,1-1.161.42,6.379,6.379,0,0,1,.72-1,11.776,11.776,0,0,1,1.906-1.781,11.94,11.94,0,0,1,2.233-1.349A6.406,6.406,0,0,1,513.12,165.826Z" transform="translate(-479.449 -147.366)" fill="#dac078"/>
          </g>
          <g id="Grupo_234" data-name="Grupo 234" transform="translate(31.676 28.982)">
            <circle id="Elipse_37" data-name="Elipse 37" cx="4.985" cy="4.985" r="4.985" transform="translate(42.291 53.286)" fill="#dac078"/>
            <g id="Grupo_233" data-name="Grupo 233">
              <path id="Trazado_501" data-name="Trazado 501" d="M539.555,262.282l-.018-.018L556.969,240.7l-7.733-8.164-14.431,25-9.558-9.558h-11.82l17.051,17.051-17.051,29.534,20.825-25.76.015.015Z" transform="translate(-513.428 -200.624)" fill="#dac078"/>
              <path id="Trazado_502" data-name="Trazado 502" d="M624.884,229.718h-11.82l-9.558,9.558-18.015-31.2,9.845-12.177-10.771-13.528H570.65l-10.771,13.6h16.835l-6.99,12.108,11.482,14.2L624.883,276.3l-17.051-29.533Z" transform="translate(-530.331 -182.368)" fill="#dac078"/>
              <path id="Trazado_503" data-name="Trazado 503" d="M573.6,301.684,554.618,282.7l-5.741,6.079L573.6,313.5l24.616-24.616-5.749-6.07Z" transform="translate(-526.328 -218.878)" fill="#dac078"/>
            </g>
          </g>
        </g>
      </g>
      <g id="Grupo_237" data-name="Grupo 237" transform="translate(9.124 18.249)">
        <path id="Trazado_504" data-name="Trazado 504" d="M673.048,165.06h14.861v17.916q.652,1.063,1.272,2.147V163.788H671.61Q672.336,164.416,673.048,165.06Z" transform="translate(-547.352 -163.788)" fill="#dac078"/>
        <path id="Trazado_505" data-name="Trazado 505" d="M477.539,182.976V165.06H492.4q.712-.644,1.438-1.272h-17.57v21.335Q476.887,184.038,477.539,182.976Z" transform="translate(-476.267 -163.788)" fill="#dac078"/>
        <path id="Trazado_506" data-name="Trazado 506" d="M666.6,326.67v36.165H618.449q-2.657.723-5.384,1.272h54.811V324.524Q667.256,325.608,666.6,326.67Z" transform="translate(-526.048 -222.28)" fill="#dac078"/>
        <path id="Trazado_507" data-name="Trazado 507" d="M525.694,362.836H477.539V326.67q-.652-1.062-1.272-2.146v39.584h54.811Q528.351,363.562,525.694,362.836Z" transform="translate(-476.267 -222.28)" fill="#dac078"/>
      </g>
    </g>
    <rect id="Rectángulo_64" data-name="Rectángulo 64" width="141.828" height="1.433" transform="translate(471.047 293.743)" fill="#dac078"/>
  </g>
</svg>
